{"glyphs":{"0":{"ha":806,"x_min":69,"x_max":755,"o":"m 755 608 q 722 334 755 451 q 634 142 690 218 q 505 27 578 65 q 349 -10 431 -10 q 235 15 287 -10 q 147 90 184 40 q 90 215 110 140 q 69 390 69 290 q 101 662 69 546 q 189 856 133 778 q 318 970 244 933 q 474 1008 391 1008 q 586 983 535 1008 q 676 908 638 958 q 734 783 713 858 q 755 608 755 708 m 620 615 q 608 745 620 692 q 573 833 595 799 q 522 882 551 867 q 460 897 493 897 q 365 870 411 897 q 283 782 319 843 q 225 622 247 721 q 203 381 203 524 q 215 251 203 304 q 249 164 228 197 q 300 115 271 131 q 362 100 329 100 q 457 127 410 100 q 539 214 503 153 q 598 373 576 275 q 620 615 620 472 z "},"1":{"ha":806,"x_min":139,"x_max":651,"o":"m 651 100 l 638 0 l 139 0 l 151 100 l 345 100 l 426 764 q 431 794 428 779 q 436 826 433 810 l 267 681 q 247 671 256 673 q 229 670 237 669 q 215 676 221 672 q 206 685 208 680 l 172 742 l 479 999 l 586 999 l 476 100 l 651 100 z "},"2":{"ha":806,"x_min":38,"x_max":733,"o":"m 626 124 q 658 111 647 124 q 667 79 669 99 l 657 0 l 38 0 l 43 44 q 52 74 44 58 q 74 101 60 89 l 401 418 q 484 504 447 464 q 545 584 520 544 q 584 666 571 624 q 597 755 597 707 q 587 816 597 790 q 559 860 577 842 q 517 887 542 878 q 463 896 492 896 q 402 885 431 896 q 350 855 374 874 q 309 810 327 836 q 281 753 292 784 q 254 718 269 727 q 212 714 238 710 l 144 726 q 195 847 162 794 q 272 936 228 900 q 370 990 316 972 q 484 1008 424 1008 q 585 992 539 1008 q 664 944 631 975 q 715 868 697 913 q 733 767 733 823 q 714 650 733 703 q 663 551 695 598 q 588 460 631 504 q 497 369 545 416 l 228 105 q 289 118 258 113 q 347 124 320 124 l 626 124 z "},"3":{"ha":806,"x_min":61,"x_max":728,"o":"m 147 726 q 198 847 165 794 q 275 936 231 900 q 373 990 319 972 q 487 1008 427 1008 q 587 992 542 1008 q 663 946 632 976 q 711 875 694 916 q 728 784 728 834 q 715 686 728 728 q 678 611 702 643 q 618 558 653 580 q 540 524 583 537 q 654 448 616 500 q 692 322 692 397 q 663 183 692 244 q 586 78 634 121 q 475 12 538 35 q 344 -11 413 -11 q 223 8 272 -11 q 141 62 174 28 q 90 144 108 97 q 61 249 71 192 l 121 274 q 165 279 144 283 q 191 255 185 274 q 208 208 199 235 q 236 158 218 182 q 282 117 253 134 q 356 101 310 101 q 442 120 404 101 q 507 170 481 139 q 547 240 533 201 q 561 320 561 279 q 551 377 561 351 q 518 423 542 403 q 454 452 494 442 q 354 463 415 463 l 365 558 q 543 613 487 560 q 599 758 599 665 q 589 818 599 792 q 562 861 579 844 q 520 887 544 878 q 466 896 495 896 q 405 885 433 896 q 353 855 376 874 q 311 810 329 836 q 283 753 294 784 q 256 718 272 727 q 214 714 240 710 l 147 726 z "},"4":{"ha":806,"x_min":35,"x_max":732,"o":"m 488 363 l 536 760 q 542 795 538 776 q 550 835 545 815 l 174 363 l 488 363 m 732 363 l 723 287 q 713 267 722 275 q 691 259 705 259 l 589 259 l 557 0 l 443 0 l 475 259 l 74 259 q 51 267 60 259 q 41 288 42 276 l 35 356 l 557 997 l 680 997 l 601 363 l 732 363 z "},"5":{"ha":806,"x_min":56,"x_max":733,"o":"m 733 997 l 726 940 q 703 894 723 912 q 642 876 683 876 l 369 876 l 298 624 q 425 640 366 640 q 539 619 490 640 q 620 564 588 599 q 669 482 653 529 q 685 379 685 434 q 655 219 685 291 q 573 96 625 147 q 451 17 521 45 q 304 -11 382 -11 q 226 -2 263 -11 q 158 21 190 6 q 101 56 127 36 q 56 96 76 75 l 103 152 q 140 171 119 171 q 169 160 154 171 q 205 136 184 149 q 255 112 226 123 q 326 101 283 101 q 420 121 378 101 q 492 176 463 141 q 536 259 521 211 q 552 363 552 307 q 542 432 552 401 q 510 484 531 463 q 458 518 490 506 q 384 531 426 531 q 238 504 317 531 l 158 528 l 291 997 l 733 997 z "},"6":{"ha":741,"x_min":80,"x_max":713,"o":"m 362 98 q 449 116 408 98 q 518 166 489 134 q 564 242 547 198 q 581 338 581 285 q 569 410 581 378 q 537 465 558 442 q 486 500 516 488 q 419 513 456 513 q 333 494 372 513 q 265 442 294 475 q 221 366 237 410 q 205 274 205 323 q 215 203 205 235 q 245 148 225 171 q 294 111 265 124 q 362 98 323 98 m 372 626 q 349 599 360 612 q 327 572 338 585 q 397 602 360 592 q 475 613 433 613 q 568 596 524 613 q 643 547 611 579 q 694 466 676 514 q 713 358 713 419 q 686 213 713 280 q 610 95 658 145 q 495 17 561 46 q 351 -11 428 -11 q 237 10 287 -11 q 152 69 187 31 q 98 161 117 107 q 80 280 80 215 q 89 366 80 324 q 117 451 98 408 q 164 537 135 493 q 231 629 192 581 l 500 965 q 531 988 512 979 q 574 997 551 997 l 690 997 l 372 626 z "},"7":{"ha":806,"x_min":121,"x_max":792,"o":"m 792 997 l 785 939 q 775 898 782 914 q 760 870 767 881 l 292 46 q 262 13 280 26 q 215 0 244 0 l 121 0 l 594 813 q 618 847 606 831 q 644 876 630 862 l 181 876 q 160 885 168 876 q 153 908 152 895 l 164 997 l 792 997 z "},"8":{"ha":806,"x_min":68,"x_max":726,"o":"m 362 93 q 448 109 410 93 q 512 154 485 125 q 552 223 538 183 q 566 311 566 263 q 553 381 566 351 q 519 428 541 410 q 468 456 497 447 q 408 465 440 465 q 332 453 369 465 q 267 416 296 442 q 222 349 239 390 q 204 249 204 308 q 215 186 204 215 q 245 137 225 158 q 294 105 265 116 q 362 93 324 93 m 462 907 q 385 892 418 907 q 330 850 352 876 q 297 788 308 823 q 285 713 285 752 q 293 659 285 685 q 316 614 300 633 q 358 582 332 594 q 420 569 383 569 q 498 585 465 569 q 553 628 531 601 q 587 691 576 655 q 598 767 598 726 q 590 821 598 795 q 564 866 581 847 q 522 896 547 885 q 462 907 496 907 m 551 519 q 663 442 625 495 q 701 310 701 389 q 674 177 701 236 q 601 76 648 117 q 490 11 554 34 q 349 -11 425 -11 q 233 7 285 -11 q 144 57 181 24 q 88 136 108 90 q 68 239 68 182 q 122 420 68 349 q 278 522 175 492 q 188 597 218 548 q 158 713 158 647 q 182 830 158 776 q 248 923 206 883 q 348 985 290 963 q 474 1008 406 1008 q 579 990 533 1008 q 658 940 626 972 q 708 866 691 908 q 726 774 726 823 q 682 617 726 683 q 551 519 638 551 z "},"9":{"ha":806,"x_min":124,"x_max":735,"o":"m 256 669 q 295 551 256 594 q 405 508 333 508 q 490 526 451 508 q 554 575 528 544 q 595 645 581 606 q 610 730 610 685 q 599 800 610 768 q 568 853 588 831 q 520 887 549 875 q 458 899 492 899 q 377 882 415 899 q 313 835 340 865 q 271 763 286 805 q 256 669 256 720 m 465 396 q 494 431 481 414 q 519 464 508 448 q 438 422 482 437 q 347 408 394 408 q 261 424 301 408 q 190 472 220 440 q 141 549 159 503 q 124 653 124 595 q 150 792 124 727 q 224 905 177 857 q 335 981 272 953 q 473 1008 399 1008 q 583 988 534 1008 q 665 931 631 967 q 717 843 699 894 q 735 731 735 792 q 725 634 735 679 q 696 548 715 590 q 650 465 677 506 q 588 378 622 423 l 326 31 q 297 9 315 17 q 256 0 278 0 l 135 0 l 465 396 z "},"\u0000":{"ha":0,"x_min":0,"x_max":0,"o":""}," ":{"ha":319,"x_min":0,"x_max":0,"o":""},"A":{"ha":883,"x_min":-48,"x_max":827,"o":"m 599 371 l 514 765 q 506 811 510 785 q 496 867 501 837 q 474 810 485 837 q 454 764 463 784 l 272 371 l 599 371 m 827 0 l 717 0 q 688 9 698 0 q 673 34 677 19 l 622 268 l 224 268 l 115 34 q 95 10 109 20 q 63 0 81 0 l -48 0 l 440 997 l 584 997 l 827 0 z "},"Ą":{"ha":883,"x_min":-48,"x_max":856,"o":"m 599 371 l 514 765 q 506 811 510 785 q 496 867 501 837 q 474 810 485 837 q 454 764 463 784 l 272 371 l 599 371 m 856 -202 q 802 -228 833 -218 q 736 -237 770 -237 q 651 -213 681 -237 q 622 -149 622 -189 q 651 -67 622 -105 q 728 0 680 -30 l 717 0 q 688 9 698 0 q 673 34 677 19 l 622 268 l 224 268 l 115 34 q 95 10 109 20 q 63 0 81 0 l -48 0 l 440 997 l 584 997 l 827 0 l 813 0 q 783 -19 798 -8 q 756 -45 768 -31 q 735 -76 743 -59 q 728 -111 728 -92 q 740 -144 728 -132 q 774 -157 752 -157 q 796 -155 787 -157 q 811 -150 805 -152 q 821 -145 817 -147 q 828 -142 825 -142 q 841 -151 839 -142 l 856 -202 z "},"Æ":{"ha":1206,"x_min":-48,"x_max":1217,"o":"m 597 371 l 597 881 q 576 830 587 854 q 553 786 565 806 l 313 371 l 597 371 m 731 881 l 731 558 l 1079 558 l 1065 447 l 731 447 l 731 116 l 1110 116 l 1094 0 l 597 0 l 597 268 l 253 268 l 118 34 q 96 10 110 20 q 63 0 81 0 l -48 0 l 546 997 l 1217 997 l 1203 881 l 731 881 z "},"B":{"ha":840,"x_min":65,"x_max":790,"o":"m 410 113 q 503 127 463 113 q 569 168 542 142 q 608 231 595 194 q 622 313 622 267 q 611 370 622 345 q 580 414 601 396 q 527 442 559 432 q 451 451 494 451 l 263 451 l 221 113 l 410 113 m 316 885 l 275 552 l 428 552 q 523 566 482 552 q 590 605 563 580 q 631 667 617 631 q 645 749 645 703 q 604 852 645 818 q 476 885 563 885 l 316 885 m 489 997 q 625 982 568 997 q 718 937 681 966 q 772 866 755 908 q 790 774 790 825 q 777 690 790 730 q 739 615 765 649 q 676 555 714 581 q 586 513 638 529 q 719 443 675 492 q 763 316 763 393 q 738 189 763 247 q 666 89 713 131 q 551 24 619 47 q 398 0 483 0 l 65 0 l 187 997 l 489 997 z "},"C":{"ha":866,"x_min":65,"x_max":884,"o":"m 472 112 q 551 119 517 112 q 611 138 585 126 q 656 161 638 149 q 689 185 675 174 q 712 203 702 196 q 730 210 722 210 q 741 208 737 210 q 749 202 746 206 l 799 140 q 647 28 733 68 q 448 -11 561 -11 q 286 21 358 -11 q 166 111 215 53 q 91 248 117 168 q 65 422 65 327 q 83 585 65 508 q 135 728 101 663 q 217 845 169 793 q 323 933 265 897 q 449 989 381 969 q 590 1008 516 1008 q 687 999 643 1008 q 766 972 731 990 q 831 930 801 955 q 884 875 860 906 l 835 816 q 822 803 829 808 q 803 799 815 799 q 776 812 790 799 q 739 842 762 826 q 678 871 715 858 q 583 885 642 885 q 436 853 504 885 q 318 763 368 822 q 239 621 268 704 q 210 434 210 538 q 230 299 210 359 q 284 198 249 240 q 367 134 319 156 q 472 112 415 112 z "},"Ç":{"ha":866,"x_min":65,"x_max":884,"o":"m 410 -10 q 264 32 328 -3 q 156 124 200 67 q 88 257 111 181 q 65 422 65 333 q 83 585 65 508 q 135 728 101 663 q 217 845 169 793 q 323 933 265 897 q 449 989 381 969 q 590 1008 516 1008 q 687 999 643 1008 q 766 972 731 990 q 831 930 801 955 q 884 875 860 906 l 835 816 q 822 803 829 808 q 803 799 815 799 q 776 812 790 799 q 739 842 762 826 q 678 871 715 858 q 583 885 642 885 q 436 853 504 885 q 318 763 368 822 q 239 621 268 704 q 210 434 210 538 q 230 299 210 359 q 284 198 249 240 q 367 134 319 156 q 472 112 415 112 q 551 119 517 112 q 611 138 585 126 q 656 161 638 149 q 689 185 675 174 q 712 203 702 196 q 730 210 722 210 q 741 208 737 210 q 749 202 746 206 l 799 140 q 663 36 739 74 q 488 -10 586 -3 l 472 -50 q 548 -85 525 -62 q 572 -139 572 -107 q 560 -185 572 -165 q 526 -219 548 -205 q 476 -241 505 -233 q 412 -248 447 -248 q 363 -243 385 -248 q 321 -228 340 -237 l 339 -185 q 345 -176 342 -179 q 357 -172 349 -172 q 366 -175 361 -172 q 376 -180 370 -177 q 391 -184 383 -182 q 411 -187 399 -187 q 451 -174 438 -187 q 465 -144 465 -162 q 441 -112 465 -122 q 372 -96 417 -102 l 410 -10 z "},"D":{"ha":983,"x_min":65,"x_max":935,"o":"m 935 568 q 896 337 935 442 q 786 158 856 233 q 620 41 717 83 q 410 0 524 0 l 65 0 l 187 997 l 533 997 q 700 966 626 997 q 827 877 775 934 q 907 742 879 821 q 935 568 935 663 m 789 565 q 770 697 789 638 q 717 797 752 756 q 633 860 683 838 q 519 882 583 882 l 317 882 l 222 115 l 424 115 q 573 146 506 115 q 688 235 640 177 q 763 376 736 293 q 789 565 789 460 z "},"Ð":{"ha":991,"x_min":8,"x_max":944,"o":"m 434 115 q 582 146 515 115 q 697 235 649 177 q 771 376 744 293 q 797 565 797 460 q 779 697 797 638 q 726 797 760 756 q 641 860 691 838 q 528 882 592 882 l 325 882 l 284 544 l 522 544 l 512 460 l 274 460 l 231 115 l 434 115 m 542 997 q 709 966 635 997 q 835 877 783 934 q 916 742 888 821 q 944 568 944 663 q 904 337 944 442 q 795 158 865 233 q 629 41 725 83 q 420 0 533 0 l 74 0 l 131 460 l 8 460 l 19 544 l 141 544 l 196 997 l 542 997 z "},"E":{"ha":747,"x_min":65,"x_max":758,"o":"m 316 881 l 276 559 l 620 559 l 606 447 l 263 447 l 222 116 l 651 116 l 636 0 l 65 0 l 187 997 l 758 997 l 744 881 l 316 881 z "},"Ę":{"ha":747,"x_min":65,"x_max":758,"o":"m 316 881 l 276 559 l 620 559 l 606 447 l 263 447 l 222 116 l 651 116 l 636 0 l 592 0 q 563 -19 578 -8 q 535 -45 548 -31 q 515 -76 523 -59 q 508 -111 508 -92 q 520 -144 508 -132 q 553 -157 532 -157 q 576 -155 567 -157 q 591 -150 585 -152 q 601 -145 597 -147 q 608 -142 605 -142 q 621 -151 619 -142 l 635 -202 q 582 -228 613 -218 q 516 -237 550 -237 q 431 -213 460 -237 q 402 -149 402 -189 q 431 -67 402 -105 q 508 0 460 -30 l 65 0 l 187 997 l 758 997 l 744 881 l 316 881 z "},"F":{"ha":737,"x_min":65,"x_max":758,"o":"m 316 881 l 274 540 l 639 540 l 624 424 l 260 424 l 208 0 l 65 0 l 187 997 l 758 997 l 744 881 l 316 881 z "},"G":{"ha":944,"x_min":65,"x_max":917,"o":"m 584 483 l 876 483 l 828 97 q 750 49 790 69 q 666 16 710 29 q 572 -5 622 2 q 466 -11 523 -11 q 301 22 375 -11 q 175 113 227 54 q 94 252 122 171 q 65 428 65 333 q 83 590 65 514 q 135 731 101 666 q 217 847 169 795 q 324 934 265 898 q 451 989 383 970 q 597 1008 520 1008 q 703 998 656 1008 q 790 971 751 988 q 860 929 828 953 q 917 877 891 905 l 871 818 q 844 798 860 802 q 811 805 828 794 q 776 829 794 815 q 731 855 757 843 q 670 876 706 867 q 586 885 635 885 q 434 853 503 885 q 316 762 365 821 q 239 619 266 703 q 211 433 211 536 q 231 296 211 357 q 287 192 251 235 q 375 127 324 149 q 490 104 426 104 q 553 108 524 104 q 609 119 583 112 q 659 136 635 126 q 707 158 683 146 l 733 374 l 602 374 q 581 382 588 374 q 575 401 574 390 l 584 483 z "},"H":{"ha":989,"x_min":65,"x_max":944,"o":"m 944 997 l 821 0 l 677 0 l 733 451 l 263 451 l 208 0 l 65 0 l 187 997 l 331 997 l 276 554 l 745 554 l 800 997 l 944 997 z "},"Ħ":{"ha":1003,"x_min":64,"x_max":1032,"o":"m 775 720 l 306 720 l 285 554 l 754 554 l 775 720 m 1022 720 l 919 720 l 830 0 l 686 0 l 742 451 l 272 451 l 217 0 l 74 0 l 162 720 l 64 720 l 74 806 l 172 806 l 196 997 l 340 997 l 316 806 l 785 806 l 809 997 l 953 997 l 929 806 l 1032 806 l 1022 720 z "},"I":{"ha":376,"x_min":65,"x_max":330,"o":"m 208 0 l 65 0 l 186 997 l 330 997 l 208 0 z "},"Į":{"ha":376,"x_min":-6,"x_max":330,"o":"m 185 0 q 155 -19 170 -8 q 128 -45 140 -31 q 108 -76 115 -59 q 100 -111 100 -92 q 112 -144 100 -132 q 146 -157 124 -157 q 168 -155 159 -157 q 183 -150 177 -152 q 193 -145 190 -147 q 201 -142 197 -142 q 213 -151 211 -142 l 228 -202 q 174 -228 206 -218 q 108 -237 142 -237 q 24 -213 53 -237 q -6 -149 -6 -189 q 23 -67 -6 -105 q 101 0 52 -30 l 65 0 l 186 997 l 330 997 l 208 0 l 185 0 z "},"J":{"ha":559,"x_min":-25,"x_max":522,"o":"m 441 335 q 404 188 431 252 q 336 79 378 123 q 238 12 294 35 q 111 -11 181 -11 q 41 -6 74 -11 q -25 8 8 -1 l -15 92 q -6 112 -13 103 q 16 120 1 120 q 32 118 24 120 q 52 114 41 117 q 78 110 64 112 q 112 108 93 108 q 177 120 147 108 q 233 158 208 132 q 274 227 257 185 q 299 331 291 269 l 380 997 l 522 997 l 441 335 z "},"K":{"ha":867,"x_min":65,"x_max":914,"o":"m 275 563 l 319 563 q 359 570 343 563 q 390 592 375 576 l 721 965 q 753 991 736 984 q 792 997 770 997 l 914 997 l 527 569 q 500 541 513 552 q 472 524 486 531 q 526 471 506 510 l 815 0 l 692 0 q 652 8 664 0 q 633 30 641 16 l 386 421 q 362 446 376 439 q 317 453 347 453 l 262 453 l 206 0 l 65 0 l 186 998 l 328 998 l 275 563 z "},"L":{"ha":663,"x_min":65,"x_max":608,"o":"m 608 120 l 593 0 l 65 0 l 187 997 l 330 997 l 222 120 l 608 120 z "},"Ł":{"ha":686,"x_min":3,"x_max":631,"o":"m 631 120 l 616 0 l 88 0 l 134 382 l 3 317 l 15 415 q 35 443 17 435 l 149 502 l 210 997 l 353 997 l 300 572 l 549 701 l 538 606 q 515 574 535 583 l 285 451 l 244 120 l 631 120 z "},"Ľ":{"ha":663,"x_min":65,"x_max":622,"o":"m 601 1026 q 618 1020 614 1026 q 622 1007 622 1014 q 619 991 622 1001 q 608 960 617 981 q 584 907 600 940 q 543 822 569 874 q 523 802 534 806 q 494 797 512 797 l 448 797 l 514 1026 l 601 1026 m 608 120 l 593 0 l 65 0 l 187 997 l 330 997 l 222 120 l 608 120 z "},"M":{"ha":1204,"x_min":65,"x_max":1158,"o":"m 1158 997 l 1035 0 l 911 0 l 999 714 q 1005 747 1001 729 q 1013 784 1008 765 l 635 172 q 580 140 615 140 l 560 140 q 513 172 524 140 l 281 784 q 280 748 281 766 q 277 716 278 731 l 190 0 l 65 0 l 187 997 l 292 997 q 320 993 311 997 q 339 974 329 989 l 572 362 q 581 332 577 347 q 589 301 585 317 q 603 332 596 317 q 620 362 611 347 l 1001 974 q 1013 986 1008 981 q 1024 993 1018 990 q 1036 997 1029 996 q 1052 997 1042 997 l 1158 997 z "},"N":{"ha":989,"x_min":65,"x_max":944,"o":"m 944 997 l 821 0 l 749 0 q 721 6 732 0 q 701 26 710 13 l 281 767 q 277 715 280 737 l 190 0 l 65 0 l 187 997 l 261 997 q 288 993 280 997 q 306 974 297 989 l 726 233 q 728 266 727 251 q 731 295 730 281 l 818 997 l 944 997 z "},"Ŋ":{"ha":989,"x_min":65,"x_max":943,"o":"m 830 74 l 825 35 l 822 8 q 797 -97 815 -49 q 748 -177 778 -144 q 674 -230 717 -211 q 572 -249 631 -249 q 515 -242 540 -249 q 463 -223 490 -236 l 484 -166 q 499 -145 490 -150 q 517 -140 507 -140 q 537 -145 525 -140 q 572 -150 549 -150 q 694 -6 676 -150 l 699 29 l 280 760 q 278 726 279 742 q 275 694 276 709 l 190 0 l 65 0 l 187 997 l 260 997 q 288 993 279 997 q 306 972 297 988 l 728 237 q 730 274 729 256 q 733 308 731 292 l 818 997 l 943 997 l 840 158 l 830 74 z "},"O":{"ha":1038,"x_min":65,"x_max":992,"o":"m 992 569 q 952 336 992 442 q 842 153 913 230 q 675 33 772 76 q 466 -10 579 -10 q 299 23 373 -10 q 173 114 225 56 q 93 252 121 172 q 65 428 65 333 q 83 588 65 512 q 135 728 101 664 q 216 845 168 793 q 322 933 263 897 q 448 989 380 969 q 592 1008 517 1008 q 758 975 684 1008 q 885 884 833 942 q 965 744 937 825 q 992 569 992 664 m 846 565 q 827 699 846 639 q 773 801 808 758 q 688 866 738 843 q 574 889 638 889 q 427 857 494 889 q 313 765 360 824 q 238 620 265 705 q 211 432 211 536 q 230 299 211 358 q 283 197 248 239 q 368 132 318 155 q 481 109 418 109 q 630 141 563 109 q 745 233 697 174 q 819 377 793 292 q 846 565 846 461 z "},"Ø":{"ha":1038,"x_min":29,"x_max":1027,"o":"m 324 158 q 395 122 356 134 q 481 109 435 109 q 630 141 563 109 q 745 233 697 174 q 819 377 793 292 q 846 565 846 461 q 835 671 846 622 q 802 758 824 719 l 324 158 m 747 827 q 670 873 714 857 q 574 889 627 889 q 427 857 494 889 q 313 765 360 824 q 238 620 265 705 q 211 432 211 536 q 265 221 211 303 l 747 827 m 893 874 q 967 738 941 815 q 992 569 992 660 q 952 336 992 442 q 842 153 913 230 q 675 33 772 76 q 466 -10 579 -10 q 344 6 400 -10 q 241 54 288 23 l 170 -35 q 129 -67 151 -58 q 85 -76 106 -76 l 29 -76 l 176 110 q 94 250 122 169 q 65 428 65 331 q 83 588 65 512 q 135 728 101 664 q 216 845 168 793 q 322 933 263 897 q 448 989 380 969 q 592 1008 517 1008 q 723 989 663 1008 q 831 933 783 969 l 889 1005 q 904 1022 897 1015 q 918 1033 911 1028 q 934 1040 925 1038 q 954 1042 942 1042 l 1027 1042 l 893 874 z "},"Œ":{"ha":1399,"x_min":67,"x_max":1411,"o":"m 451 106 q 586 139 524 106 q 691 233 647 172 q 760 381 735 294 q 784 572 784 467 q 768 703 784 644 q 722 805 752 763 q 648 870 692 847 q 548 893 604 893 q 412 859 474 893 q 306 764 350 826 q 237 616 262 703 q 213 425 213 530 q 228 294 213 353 q 275 193 244 235 q 350 128 306 151 q 451 106 394 106 m 971 881 l 931 558 l 1272 558 l 1259 447 l 917 447 l 877 116 l 1303 116 l 1288 0 l 735 0 l 753 147 q 607 32 691 73 q 422 -10 524 -10 q 274 22 340 -10 q 162 111 208 54 q 91 248 116 169 q 67 421 67 327 q 83 582 67 506 q 131 724 100 659 q 204 842 161 790 q 301 932 247 894 q 416 989 354 969 q 547 1008 478 1008 q 722 960 649 1008 q 838 830 795 913 l 858 997 l 1411 997 l 1397 881 l 971 881 z "},"P":{"ha":787,"x_min":65,"x_max":781,"o":"m 405 482 q 506 500 462 482 q 579 549 549 517 q 623 623 608 580 q 638 717 638 666 q 593 840 638 794 q 454 885 547 885 l 315 885 l 265 482 l 405 482 m 468 997 q 608 978 549 997 q 705 923 667 958 q 763 839 744 888 q 781 731 781 790 q 756 585 781 651 q 681 471 731 519 q 558 396 631 423 q 391 369 485 369 l 251 369 l 206 0 l 65 0 l 186 997 l 468 997 z "},"Þ":{"ha":785,"x_min":65,"x_max":760,"o":"m 383 301 q 484 318 440 301 q 557 367 528 336 q 601 442 586 399 q 616 536 616 485 q 571 658 616 614 q 432 703 526 703 l 292 703 l 243 301 l 383 301 m 447 815 q 585 795 526 815 q 683 741 644 776 q 741 657 722 706 q 760 549 760 608 q 734 404 760 470 q 659 289 708 338 q 536 214 609 241 q 369 188 464 188 l 229 188 l 206 0 l 65 0 l 186 997 l 328 997 l 306 815 l 447 815 z "},"Q":{"ha":1038,"x_min":65,"x_max":992,"o":"m 211 432 q 230 299 211 358 q 283 197 248 239 q 368 132 318 155 q 481 109 418 109 q 630 141 563 109 q 745 233 697 174 q 819 377 793 292 q 846 565 846 461 q 827 699 846 639 q 773 801 808 758 q 688 866 738 843 q 574 889 638 889 q 427 857 494 889 q 313 765 360 824 q 238 620 265 705 q 211 432 211 536 m 619 12 q 466 -10 546 -10 q 299 23 373 -10 q 173 114 225 56 q 93 252 121 172 q 65 428 65 333 q 83 588 65 512 q 135 728 101 664 q 216 845 168 793 q 322 933 263 897 q 448 989 380 969 q 592 1008 517 1008 q 758 975 684 1008 q 885 884 833 942 q 965 744 937 825 q 992 569 992 664 q 975 411 992 486 q 925 273 958 337 q 847 158 893 209 q 744 69 801 106 l 944 -203 l 829 -203 q 783 -196 803 -203 q 749 -171 764 -189 l 619 12 z "},"R":{"ha":816,"x_min":65,"x_max":766,"o":"m 391 515 q 492 532 449 515 q 565 578 536 549 q 609 647 594 607 q 624 735 624 688 q 579 847 624 808 q 441 885 533 885 l 315 885 l 269 515 l 391 515 m 453 997 q 594 980 535 997 q 691 932 653 963 q 748 856 729 900 q 766 757 766 811 q 748 645 766 697 q 698 552 731 594 q 618 482 665 511 q 512 437 571 452 q 552 391 537 420 l 758 0 l 631 0 q 579 30 592 0 l 401 380 q 381 405 392 397 q 343 412 369 412 l 257 412 l 206 0 l 65 0 l 186 997 l 453 997 z "},"S":{"ha":708,"x_min":6,"x_max":688,"o":"m 647 836 q 631 820 639 825 q 612 815 623 815 q 586 826 600 815 q 552 852 573 838 q 503 878 532 866 q 432 890 474 890 q 356 876 389 890 q 299 841 322 863 q 265 788 276 818 q 253 722 253 757 q 269 664 253 688 q 313 623 286 640 q 375 592 340 606 q 445 565 409 579 q 516 533 481 551 q 577 490 550 515 q 621 427 604 464 q 638 339 638 391 q 613 204 638 267 q 542 92 588 140 q 431 17 497 44 q 285 -11 366 -11 q 200 -2 240 -11 q 124 25 159 8 q 59 66 88 42 q 6 119 29 90 l 56 188 q 72 201 63 195 q 92 206 81 206 q 111 199 101 206 q 133 181 121 192 q 160 157 145 169 q 196 133 176 144 q 242 115 216 122 q 303 108 269 108 q 385 122 349 108 q 447 162 422 136 q 486 224 473 188 q 500 303 500 260 q 484 365 500 341 q 440 407 467 390 q 379 436 413 424 q 309 462 344 449 q 239 492 273 475 q 177 534 204 508 q 134 598 150 560 q 117 692 117 636 q 140 811 117 753 q 205 912 163 868 q 308 982 247 956 q 445 1008 369 1008 q 586 977 523 1008 q 688 897 649 947 l 647 836 z "},"Ş":{"ha":708,"x_min":6,"x_max":688,"o":"m 647 836 q 631 820 639 825 q 612 815 623 815 q 586 826 600 815 q 552 852 573 838 q 503 878 532 866 q 432 890 474 890 q 356 876 389 890 q 299 841 322 863 q 265 788 276 818 q 253 722 253 757 q 269 664 253 688 q 313 623 286 640 q 375 592 340 606 q 445 565 409 579 q 516 533 481 551 q 577 490 550 515 q 621 427 604 464 q 638 339 638 391 q 616 211 638 272 q 553 104 594 151 q 454 27 513 57 q 322 -9 395 -3 l 307 -50 q 383 -85 360 -62 q 406 -139 406 -107 q 394 -185 406 -165 q 361 -219 383 -205 q 310 -241 340 -233 q 247 -248 281 -248 q 198 -243 220 -248 q 156 -228 175 -237 l 174 -185 q 180 -176 176 -179 q 192 -172 184 -172 q 200 -175 196 -172 q 211 -180 205 -177 q 226 -184 217 -182 q 246 -187 234 -187 q 286 -174 272 -187 q 299 -144 299 -162 q 276 -112 299 -122 q 207 -96 252 -102 l 244 -9 q 108 33 169 -1 q 6 119 47 67 l 56 188 q 72 201 63 195 q 92 206 81 206 q 111 199 101 206 q 133 181 121 192 q 160 157 145 169 q 196 133 176 144 q 242 115 216 122 q 303 108 269 108 q 385 122 349 108 q 447 162 422 136 q 486 224 473 188 q 500 303 500 260 q 484 365 500 341 q 440 407 467 390 q 379 436 413 424 q 309 462 344 449 q 239 492 273 475 q 177 534 204 508 q 134 598 150 560 q 117 692 117 636 q 140 811 117 753 q 205 912 163 868 q 308 982 247 956 q 445 1008 369 1008 q 586 977 523 1008 q 688 897 649 947 l 647 836 z "},"T":{"ha":762,"x_min":76,"x_max":812,"o":"m 797 878 l 508 878 l 400 0 l 258 0 l 365 878 l 76 878 l 90 997 l 812 997 l 797 878 z "},"Ŧ":{"ha":785,"x_min":88,"x_max":824,"o":"m 520 878 l 485 592 l 688 592 l 678 508 l 474 508 l 412 0 l 270 0 l 332 508 l 126 508 l 135 592 l 342 592 l 377 878 l 88 878 l 101 997 l 824 997 l 808 878 l 520 878 z "},"U":{"ha":953,"x_min":91,"x_max":919,"o":"m 439 113 q 538 134 493 113 q 617 191 583 154 q 673 280 651 228 q 703 392 695 331 l 776 997 l 919 997 l 845 392 q 799 232 834 306 q 710 103 765 158 q 582 19 655 49 q 424 -12 510 -12 q 272 19 338 -12 q 166 103 207 49 q 108 232 124 158 q 101 392 91 306 l 175 997 l 317 997 l 243 392 q 245 280 235 331 q 279 192 254 228 q 344 134 304 155 q 439 113 385 113 z "},"Ų":{"ha":953,"x_min":91,"x_max":919,"o":"m 919 997 l 845 392 q 808 251 835 317 q 736 133 780 185 q 636 46 693 81 q 510 -3 578 10 q 480 -23 495 -12 q 453 -48 465 -34 q 433 -79 441 -62 q 426 -114 426 -95 q 438 -147 426 -135 q 472 -160 450 -160 q 494 -157 485 -160 q 509 -152 503 -155 q 519 -148 515 -150 q 526 -145 523 -145 q 539 -154 537 -145 l 553 -205 q 500 -231 531 -221 q 434 -240 468 -240 q 349 -216 378 -240 q 320 -151 320 -192 q 345 -76 320 -112 q 413 -12 370 -41 q 266 22 329 -10 q 163 107 203 53 q 107 234 123 161 q 101 392 91 307 l 175 997 l 317 997 l 243 392 q 245 280 235 331 q 279 192 254 228 q 344 134 304 155 q 439 113 385 113 q 538 134 493 113 q 617 191 583 154 q 673 280 651 228 q 703 392 695 331 l 776 997 l 919 997 z "},"V":{"ha":881,"x_min":74,"x_max":948,"o":"m 948 997 l 453 0 l 324 0 l 74 997 l 188 997 q 217 988 206 997 q 231 964 228 978 l 390 276 q 401 223 396 251 q 410 163 407 194 q 432 223 420 194 q 456 276 444 251 l 781 964 q 801 987 787 976 q 834 997 816 997 l 948 997 z "},"W":{"ha":1331,"x_min":85,"x_max":1383,"o":"m 1383 997 l 975 0 l 846 0 l 717 747 q 713 773 715 759 q 710 802 711 786 q 690 747 699 772 l 376 0 l 249 0 l 85 997 l 197 997 q 227 988 215 997 q 240 964 238 979 l 342 283 q 345 241 344 263 q 349 195 347 219 q 364 242 356 219 q 380 283 372 264 l 666 964 q 685 987 672 976 q 717 997 699 997 l 750 997 q 780 988 769 997 q 794 964 790 978 l 913 283 q 918 242 916 264 q 923 197 921 221 q 949 283 936 244 l 1219 964 q 1238 987 1223 977 q 1272 997 1253 997 l 1383 997 z "},"X":{"ha":853,"x_min":-50,"x_max":887,"o":"m 540 539 l 800 0 l 672 0 q 649 8 657 0 q 636 26 641 17 l 441 453 q 428 431 435 442 l 138 26 q 117 6 128 13 q 92 0 106 0 l -50 0 l 343 533 l 112 997 l 240 997 q 262 993 256 997 q 274 977 269 988 l 446 609 q 453 623 449 616 q 462 637 457 629 l 704 976 q 739 997 719 997 l 887 997 l 540 539 z "},"Y":{"ha":817,"x_min":72,"x_max":886,"o":"m 477 396 l 428 0 l 285 0 l 335 394 l 72 997 l 199 997 q 228 988 217 997 q 244 964 238 979 l 399 579 q 412 538 407 558 q 422 499 417 518 q 441 538 431 518 q 465 579 452 557 l 717 964 q 737 987 724 976 q 768 997 750 997 l 886 997 l 477 396 z "},"Z":{"ha":774,"x_min":-20,"x_max":805,"o":"m 798 952 q 792 933 797 942 q 781 915 788 925 l 187 116 l 687 116 l 672 0 l -20 0 l -15 44 q -8 63 -12 55 q 2 81 -3 72 l 598 881 l 115 881 l 129 997 l 805 997 l 798 952 z "},"a":{"ha":713,"x_min":32,"x_max":659,"o":"m 517 613 q 464 617 490 617 q 348 589 402 617 q 254 511 294 560 q 191 398 214 463 q 167 264 167 334 q 194 143 167 183 q 270 103 220 103 q 334 124 303 103 q 394 182 366 145 q 446 270 422 219 q 488 381 470 321 l 517 613 m 470 176 q 418 100 446 134 q 358 41 390 65 q 291 3 326 17 q 219 -10 256 -10 q 143 7 177 -10 q 84 55 108 23 q 45 133 59 86 q 32 240 32 179 q 48 362 32 302 q 92 475 63 422 q 162 572 122 528 q 253 649 203 617 q 361 698 303 681 q 482 716 419 716 q 572 709 528 716 q 659 683 616 701 l 574 0 l 503 0 q 468 14 477 0 q 459 47 459 27 l 470 176 z "},"ą":{"ha":714,"x_min":33,"x_max":660,"o":"m 518 613 q 465 617 491 617 q 349 589 403 617 q 255 511 294 560 q 191 398 215 463 q 168 264 168 334 q 194 143 168 183 q 271 103 221 103 q 335 124 303 103 q 395 182 367 145 q 447 270 423 219 q 489 381 471 321 l 518 613 m 560 0 q 530 -19 545 -8 q 503 -45 515 -31 q 483 -76 490 -59 q 475 -111 475 -92 q 487 -144 475 -132 q 521 -157 499 -157 q 543 -155 534 -157 q 558 -150 552 -152 q 568 -145 565 -147 q 576 -142 572 -142 q 588 -151 586 -142 l 603 -202 q 549 -228 581 -218 q 483 -237 517 -237 q 399 -213 428 -237 q 369 -149 369 -189 q 400 -65 369 -104 q 482 4 431 -26 q 465 21 469 10 q 460 47 460 33 l 471 176 q 418 100 447 134 q 359 41 390 65 q 292 3 327 17 q 219 -10 257 -10 q 143 7 178 -10 q 84 55 109 23 q 46 133 60 86 q 33 240 33 179 q 48 362 33 302 q 93 475 64 422 q 163 572 122 528 q 253 649 203 617 q 361 698 303 681 q 483 716 419 716 q 573 709 528 716 q 660 683 617 701 l 575 0 l 560 0 z "},"æ":{"ha":1033,"x_min":10,"x_max":976,"o":"m 976 131 q 907 67 941 94 q 837 24 873 41 q 762 -1 801 7 q 677 -10 723 -10 q 550 28 606 -10 q 467 143 495 66 q 413 72 444 101 q 348 25 383 43 q 277 -2 313 6 q 206 -11 240 -11 q 61 31 111 -11 q 10 156 10 73 q 32 250 10 205 q 103 330 53 294 q 235 386 153 365 q 435 412 316 408 l 440 450 q 425 571 450 531 q 340 611 399 611 q 271 600 299 611 q 221 575 242 589 q 183 551 199 562 q 149 540 166 540 q 127 547 135 540 q 113 564 119 553 l 95 606 q 219 689 156 661 q 355 717 282 717 q 472 685 429 717 q 531 597 515 653 q 633 685 573 653 q 768 716 692 716 q 847 703 810 716 q 909 666 883 690 q 950 611 935 642 q 965 543 965 579 q 957 492 965 517 q 931 442 949 466 q 881 399 913 419 q 804 363 850 378 q 694 338 758 347 q 548 327 631 328 l 548 306 q 589 149 548 201 q 703 97 631 97 q 786 111 753 97 q 842 141 819 125 q 882 172 865 158 q 917 185 899 185 q 931 182 924 185 q 942 172 937 178 l 976 131 m 751 619 q 678 605 711 619 q 622 562 646 590 q 581 494 597 534 q 556 406 564 455 q 699 424 642 412 q 789 453 756 436 q 834 492 822 470 q 847 537 847 513 q 823 597 847 574 q 751 619 798 619 m 426 329 q 289 314 344 326 q 200 281 234 301 q 152 234 167 261 q 137 174 137 206 q 162 103 137 126 q 231 81 188 81 q 297 93 266 81 q 353 130 328 105 q 396 193 378 155 q 419 281 413 231 l 426 329 z "},"b":{"ha":738,"x_min":38,"x_max":685,"o":"m 188 157 q 250 109 215 123 q 321 95 285 95 q 386 110 356 95 q 442 150 417 124 q 488 209 468 175 q 522 282 508 243 q 543 362 535 320 q 550 444 550 403 q 522 566 550 525 q 442 608 494 608 q 377 587 410 608 q 313 530 344 567 q 256 444 283 494 q 210 336 229 394 l 188 157 m 235 538 q 290 611 260 578 q 353 668 320 644 q 421 703 386 691 q 493 716 456 716 q 634 651 583 716 q 685 458 685 585 q 673 343 685 400 q 639 233 660 285 q 585 137 617 181 q 516 60 554 92 q 434 9 478 27 q 341 -10 390 -10 q 241 14 285 -10 q 167 78 196 37 l 158 39 q 142 9 152 19 q 110 0 133 0 l 38 0 l 162 1025 l 294 1025 l 235 538 z "},"c":{"ha":631,"x_min":38,"x_max":603,"o":"m 570 126 q 502 60 535 87 q 436 18 469 34 q 368 -3 403 3 q 292 -10 333 -10 q 183 11 231 -10 q 103 70 135 32 q 54 162 71 108 q 38 281 38 215 q 50 392 38 338 q 85 495 62 447 q 140 584 108 543 q 213 654 173 624 q 301 700 253 683 q 402 716 349 716 q 520 691 472 716 q 603 618 567 666 l 561 567 q 549 557 556 561 q 535 553 542 553 q 515 561 525 553 q 491 580 506 569 q 455 598 476 590 q 399 606 433 606 q 312 582 353 606 q 240 513 271 557 q 192 410 210 469 q 174 280 174 350 q 183 204 174 238 q 211 147 193 170 q 257 110 230 123 q 320 97 285 97 q 373 103 350 97 q 414 119 397 110 q 446 139 432 128 q 471 159 460 150 q 492 174 482 168 q 511 181 501 181 q 536 168 525 181 l 570 126 l 570 126 z "},"ç":{"ha":631,"x_min":38,"x_max":603,"o":"m 561 567 q 549 557 556 561 q 535 553 542 553 q 515 561 525 553 q 491 580 506 569 q 455 598 476 590 q 399 606 433 606 q 312 582 353 606 q 240 513 271 557 q 192 410 210 469 q 174 280 174 350 q 183 204 174 238 q 211 147 193 170 q 257 110 230 123 q 320 97 285 97 q 373 103 350 97 q 414 119 397 110 q 446 139 432 128 q 471 159 460 150 q 492 174 482 168 q 511 181 501 181 q 536 168 525 181 l 570 126 q 509 66 538 91 q 450 25 479 41 q 389 1 420 10 q 324 -9 358 -7 l 308 -50 q 384 -85 360 -62 q 407 -139 407 -107 q 395 -185 407 -165 q 362 -219 383 -205 q 311 -241 340 -233 q 247 -248 282 -248 q 198 -243 221 -248 q 156 -228 176 -237 l 174 -185 q 181 -176 177 -179 q 192 -172 185 -172 q 201 -175 197 -172 q 212 -180 206 -177 q 226 -184 218 -182 q 247 -187 235 -187 q 286 -174 273 -187 q 300 -144 300 -162 q 276 -112 300 -122 q 208 -96 253 -102 l 247 -6 q 157 25 196 1 q 91 86 118 49 q 51 172 65 123 q 38 281 38 222 q 50 392 38 338 q 85 495 62 447 q 140 584 108 543 q 213 654 173 624 q 301 700 253 683 q 402 716 349 716 q 520 691 472 716 q 603 618 567 666 l 561 567 z "},"d":{"ha":738,"x_min":36,"x_max":724,"o":"m 532 549 q 471 597 506 583 q 400 611 435 611 q 334 597 365 611 q 278 557 303 582 q 233 498 253 532 q 199 425 213 464 q 177 344 185 386 q 170 263 170 303 q 199 140 170 182 q 279 99 227 99 q 344 119 311 99 q 407 176 377 140 q 464 261 438 212 q 510 369 490 310 l 532 549 m 724 1025 l 597 0 l 526 0 q 491 14 500 0 q 482 47 482 27 l 494 182 q 436 103 467 138 q 372 42 406 67 q 302 4 338 17 q 227 -10 265 -10 q 87 56 138 -10 q 36 249 36 121 q 48 364 36 307 q 82 473 60 422 q 135 569 104 525 q 204 647 166 614 q 286 698 242 679 q 379 716 331 716 q 473 697 431 716 q 544 642 515 677 l 591 1025 l 724 1025 z "},"ď":{"ha":738,"x_min":36,"x_max":908,"o":"m 887 1026 q 904 1020 900 1026 q 908 1007 908 1014 q 905 991 908 1001 q 894 960 903 981 q 870 907 886 940 q 829 822 855 874 q 809 802 820 806 q 780 797 798 797 l 747 797 l 813 1026 l 887 1026 m 532 549 q 471 597 506 583 q 400 611 435 611 q 334 597 365 611 q 278 557 303 582 q 233 498 253 532 q 199 425 213 464 q 177 344 185 386 q 170 263 170 303 q 199 140 170 182 q 279 99 227 99 q 344 119 311 99 q 407 176 377 140 q 464 261 438 212 q 510 369 490 310 l 532 549 m 724 1025 l 597 0 l 526 0 q 491 14 500 0 q 482 47 482 27 l 494 182 q 436 103 467 138 q 372 42 406 67 q 302 4 338 17 q 227 -10 265 -10 q 87 56 138 -10 q 36 249 36 121 q 48 364 36 307 q 82 473 60 422 q 135 569 104 525 q 204 647 166 614 q 286 698 242 679 q 379 716 331 716 q 473 697 431 716 q 544 642 515 677 l 591 1025 l 724 1025 z "},"đ":{"ha":738,"x_min":36,"x_max":796,"o":"m 531 535 q 470 582 504 569 q 400 595 435 595 q 305 566 347 595 q 233 490 263 537 q 186 383 203 442 q 170 263 170 324 q 199 140 170 182 q 279 99 227 99 q 344 119 311 99 q 407 176 377 140 q 464 261 438 212 q 510 369 490 310 l 531 535 m 786 792 l 695 792 l 597 0 l 526 0 q 491 14 500 0 q 482 47 482 27 l 494 182 q 436 103 467 138 q 372 42 406 67 q 302 4 338 17 q 227 -10 265 -10 q 87 56 138 -10 q 36 249 36 121 q 48 363 36 307 q 82 469 60 419 q 135 562 104 519 q 204 635 166 604 q 286 683 242 665 q 379 700 331 700 q 471 681 430 700 q 542 628 513 663 l 563 792 l 460 792 q 423 804 433 792 q 418 841 414 816 l 424 876 l 572 876 l 591 1025 l 724 1025 l 705 876 l 796 876 l 786 792 z "},"ð":{"ha":734,"x_min":36,"x_max":678,"o":"m 317 92 q 396 109 359 92 q 463 162 433 126 q 514 256 492 199 q 546 393 535 313 q 527 449 540 422 q 494 497 514 476 q 445 530 474 518 q 379 542 417 542 q 290 522 329 542 q 223 467 250 502 q 181 385 195 432 q 166 284 166 338 q 177 203 166 239 q 209 143 189 167 q 257 105 229 118 q 317 92 284 92 m 559 841 q 646 699 614 782 q 678 503 678 616 q 653 293 678 388 q 580 131 628 199 q 462 27 532 64 q 301 -10 392 -10 q 194 10 243 -10 q 111 68 146 31 q 56 158 76 105 q 36 277 36 211 q 60 419 36 352 q 128 535 85 485 q 233 615 172 585 q 366 644 293 644 q 486 614 433 644 q 572 524 539 584 q 545 678 571 613 q 468 790 519 743 l 333 695 l 308 739 q 305 758 303 749 q 316 774 308 768 l 404 836 q 277 886 350 866 q 250 908 255 894 q 256 942 246 922 l 275 984 q 395 951 338 973 q 501 892 452 928 l 623 976 l 645 933 q 649 913 651 924 q 635 894 648 902 l 559 841 z "},"e":{"ha":667,"x_min":38,"x_max":617,"o":"m 399 619 q 322 602 357 619 q 260 555 288 585 q 213 484 232 524 q 182 395 193 443 q 345 424 284 408 q 440 459 407 440 q 484 500 474 478 q 495 546 495 522 q 490 570 495 558 q 473 594 485 583 q 443 612 462 605 q 399 619 425 619 m 600 131 q 530 67 564 94 q 460 24 496 41 q 385 -2 424 6 q 301 -10 347 -10 q 191 11 240 -10 q 108 69 142 31 q 56 159 74 106 q 38 278 38 213 q 49 387 38 333 q 83 489 60 441 q 137 579 105 538 q 210 651 169 621 q 300 698 251 681 q 406 715 349 715 q 500 700 460 715 q 566 661 540 685 q 604 608 592 637 q 617 551 617 578 q 598 466 617 505 q 530 397 579 428 q 393 343 480 366 q 170 306 306 320 q 169 294 169 300 q 169 281 169 288 q 209 144 169 190 q 327 97 248 97 q 385 104 360 97 q 431 120 411 110 q 466 141 451 130 q 494 163 481 153 q 518 179 507 172 q 541 185 529 185 q 555 182 549 185 q 566 172 560 178 l 600 131 z "},"ę":{"ha":667,"x_min":38,"x_max":617,"o":"m 399 619 q 322 602 357 619 q 260 555 288 585 q 213 484 232 524 q 182 395 193 443 q 345 424 284 408 q 440 459 407 440 q 484 500 474 478 q 495 546 495 522 q 490 570 495 558 q 473 594 485 583 q 443 612 462 605 q 399 619 425 619 m 437 -202 q 383 -228 415 -218 q 317 -237 351 -237 q 233 -213 262 -237 q 203 -149 203 -189 q 228 -74 203 -109 q 294 -10 253 -39 q 187 12 235 -9 q 106 70 140 33 q 55 160 73 108 q 38 278 38 213 q 49 387 38 333 q 83 489 60 441 q 137 579 105 538 q 210 651 169 621 q 300 698 251 681 q 406 715 349 715 q 500 700 460 715 q 566 661 540 685 q 604 608 592 637 q 617 551 617 578 q 598 466 617 505 q 530 397 579 428 q 393 343 480 366 q 170 306 306 320 q 169 294 169 300 q 169 281 169 288 q 209 144 169 190 q 327 97 248 97 q 385 104 360 97 q 431 120 411 110 q 466 141 451 130 q 494 163 481 153 q 518 179 507 172 q 541 185 529 185 q 555 182 549 185 q 566 172 560 178 l 600 131 q 499 45 548 77 q 393 0 449 13 l 394 0 q 364 -19 379 -8 q 337 -45 349 -31 q 317 -76 324 -59 q 309 -111 309 -92 q 321 -144 309 -132 q 355 -157 333 -157 q 377 -155 368 -157 q 392 -150 386 -152 q 402 -145 399 -147 q 410 -142 406 -142 q 422 -151 420 -142 l 437 -202 z "},"f":{"ha":449,"x_min":55,"x_max":517,"o":"m 283 596 l 214 24 l 181 -115 q 156 -158 172 -143 q 111 -172 140 -172 l 58 -172 l 150 594 l 85 604 q 63 615 71 608 q 57 639 55 623 l 63 694 l 163 694 l 170 758 q 201 866 178 819 q 259 946 224 913 q 340 996 294 979 q 438 1013 385 1013 q 517 999 481 1013 l 505 928 q 485 913 501 914 q 447 913 469 913 q 393 904 417 913 q 349 877 368 896 q 316 828 329 858 q 298 754 303 798 l 291 694 l 463 694 l 450 596 l 283 596 z "},"ﬀ":{"ha":863,"x_min":55,"x_max":924,"o":"m 697 694 l 878 694 l 866 599 l 690 599 l 620 24 l 588 -115 q 563 -158 578 -143 q 517 -172 547 -172 l 464 -172 l 556 599 l 285 599 l 215 24 l 182 -115 q 157 -158 173 -143 q 112 -172 141 -172 l 58 -172 l 152 597 l 87 607 q 63 617 72 610 q 57 640 55 625 l 63 694 l 164 694 l 171 747 q 201 855 178 808 q 258 935 224 902 q 337 985 292 968 q 434 1002 382 1002 q 513 988 477 1002 l 501 917 q 481 902 497 903 q 442 901 465 901 q 390 894 414 901 q 348 870 366 887 q 317 824 329 853 q 299 751 304 795 l 291 694 l 567 694 l 576 767 q 607 874 584 827 q 666 955 631 922 q 746 1005 701 988 q 844 1022 792 1022 q 924 1008 888 1022 l 911 937 q 892 922 908 923 q 853 921 876 921 q 799 913 824 921 q 756 885 774 904 q 724 836 737 867 q 706 763 711 806 l 697 694 z "},"ﬁ":{"ha":751,"x_min":56,"x_max":689,"o":"m 689 694 l 604 0 l 471 0 l 544 596 l 283 596 l 214 24 l 181 -117 q 156 -159 172 -144 q 110 -174 140 -174 l 57 -174 l 151 594 l 87 603 q 64 614 72 607 q 57 637 56 622 l 63 694 l 164 694 l 168 728 q 201 847 176 793 q 270 940 227 901 q 374 1001 314 979 q 511 1022 434 1022 q 538 1021 524 1022 q 566 1018 552 1020 q 592 1014 579 1017 q 613 1008 604 1012 l 600 940 q 580 925 597 926 q 537 925 563 925 q 435 913 478 925 q 363 876 392 901 q 318 814 334 851 q 295 726 301 777 l 292 694 l 689 694 z "},"ﬃ":{"ha":1156,"x_min":55,"x_max":1094,"o":"m 1083 599 l 1010 0 l 878 0 l 952 599 l 690 599 l 620 24 l 587 -117 q 563 -159 578 -144 q 517 -174 547 -174 l 463 -174 l 558 599 l 285 599 l 215 24 l 182 -115 q 157 -158 173 -143 q 112 -172 141 -172 l 58 -172 l 152 597 l 87 607 q 64 617 72 610 q 57 640 55 625 l 63 694 l 164 694 l 171 747 q 201 855 178 808 q 258 935 224 902 q 337 985 292 968 q 434 1002 382 1002 q 513 988 477 1002 l 501 917 q 481 902 497 903 q 442 901 465 901 q 390 894 414 901 q 348 870 366 887 q 317 824 329 853 q 299 751 304 795 l 291 694 l 570 694 l 574 728 q 608 847 582 793 q 677 940 633 901 q 780 1001 720 979 q 917 1022 840 1022 q 944 1021 930 1022 q 972 1018 958 1020 q 998 1014 985 1017 q 1019 1008 1010 1012 l 1006 940 q 986 925 1003 926 q 943 925 969 925 q 841 913 884 925 q 769 876 799 901 q 724 814 740 851 q 701 726 708 777 l 698 694 l 1094 694 l 1083 599 l 1083 599 z "},"ﬂ":{"ha":770,"x_min":55,"x_max":750,"o":"m 284 596 l 214 24 l 181 -117 q 156 -159 172 -144 q 110 -174 140 -174 l 57 -174 l 151 594 l 87 603 q 63 614 72 607 q 57 637 55 622 l 63 694 l 163 694 l 168 730 q 198 840 175 788 q 259 931 221 892 q 351 993 297 970 q 472 1016 404 1016 q 577 1011 527 1016 q 675 1007 626 1007 l 750 1007 l 626 0 l 494 0 l 605 908 q 542 915 574 912 q 481 918 510 918 q 354 869 403 918 q 296 730 306 821 l 292 694 l 453 694 l 442 596 l 284 596 z "},"ﬄ":{"ha":1175,"x_min":55,"x_max":1155,"o":"m 289 693 l 568 693 l 573 730 q 603 840 580 788 q 665 931 626 892 q 756 993 703 970 q 877 1016 809 1016 q 974 1012 928 1016 q 1065 1007 1020 1008 l 1155 1007 l 1031 0 l 900 0 l 1010 908 q 947 915 979 912 q 886 918 915 918 q 759 869 808 918 q 701 730 710 821 l 697 693 l 878 693 l 866 598 l 690 598 l 619 24 l 586 -117 q 561 -159 577 -144 q 516 -174 545 -174 l 463 -174 l 557 598 l 283 598 l 213 24 l 180 -115 q 155 -158 171 -143 q 110 -172 139 -172 l 56 -172 l 150 597 l 87 606 q 63 616 72 608 q 57 639 55 624 l 63 693 l 162 693 l 169 747 q 199 855 176 808 q 256 935 222 902 q 335 985 290 968 q 432 1002 380 1002 q 511 988 475 1002 l 499 917 q 479 902 495 903 q 440 901 463 901 q 388 894 412 901 q 345 870 364 887 q 315 824 327 853 q 297 751 302 795 l 289 693 z "},"g":{"ha":678,"x_min":-40,"x_max":688,"o":"m 440 -13 q 438 17 440 3 q 431 42 435 31 q 277 54 342 58 q 170 35 213 51 q 109 -6 128 19 q 89 -59 89 -31 q 128 -132 89 -107 q 244 -157 168 -157 q 324 -145 288 -157 q 386 -115 360 -134 q 426 -69 412 -95 q 440 -13 440 -42 m 308 322 q 372 338 344 322 q 418 379 399 353 q 447 437 437 405 q 457 503 456 469 q 427 592 457 562 q 346 623 398 623 q 283 608 310 623 q 237 568 256 593 q 208 511 218 544 q 199 445 199 479 q 227 353 199 385 q 308 322 256 322 m 688 681 l 682 635 q 653 599 678 608 l 569 583 q 578 548 575 567 q 581 508 581 529 q 572 447 580 474 q 553 397 565 419 q 528 353 542 374 q 504 312 515 333 q 485 270 492 292 q 477 222 477 248 q 491 170 477 194 q 520 120 504 146 q 550 66 537 95 q 564 -3 564 37 q 540 -98 563 -53 q 475 -177 517 -143 q 370 -232 432 -212 q 232 -252 309 -252 q 120 -239 170 -252 q 34 -203 69 -226 q -21 -147 -1 -180 q -40 -76 -40 -115 q -21 4 -40 -31 q 31 64 -2 39 q 106 104 63 88 q 197 127 149 119 q 295 134 245 134 q 391 126 344 133 q 382 151 385 138 q 379 181 379 165 q 385 225 379 201 q 406 275 392 248 q 347 247 379 257 q 271 238 314 238 q 195 251 231 238 q 133 290 160 264 q 91 355 106 316 q 75 446 75 394 q 94 545 75 497 q 149 632 113 594 q 238 693 185 669 q 361 716 292 716 q 433 707 399 716 q 494 681 467 699 l 688 681 z "},"h":{"ha":740,"x_min":38,"x_max":667,"o":"m 241 559 q 360 676 295 637 q 494 716 426 716 q 573 698 539 716 q 629 647 608 681 q 659 563 651 613 q 659 449 667 513 l 606 0 l 471 0 l 524 449 q 514 567 533 529 q 443 604 495 604 q 381 588 413 604 q 319 541 349 571 q 263 467 289 510 q 218 371 237 424 l 173 0 l 38 0 l 162 1025 l 297 1025 l 241 559 z "},"ĥ":{"ha":740,"x_min":17,"x_max":667,"o":"m 151 1083 q 134 1076 144 1079 q 116 1074 124 1074 l 17 1074 l 188 1221 l 317 1221 l 453 1074 l 353 1074 q 336 1077 345 1074 q 320 1083 326 1080 l 252 1146 q 244 1153 249 1148 q 240 1149 242 1151 q 235 1146 238 1147 l 151 1083 m 241 559 q 360 676 295 637 q 494 716 426 716 q 573 698 539 716 q 629 647 608 681 q 659 563 651 613 q 659 449 667 513 l 606 0 l 471 0 l 524 449 q 514 567 533 529 q 443 604 495 604 q 381 588 413 604 q 319 541 349 571 q 263 467 289 510 q 218 371 237 424 l 173 0 l 38 0 l 162 1025 l 297 1025 l 241 559 z "},"ħ":{"ha":740,"x_min":28,"x_max":665,"o":"m 239 542 q 358 660 293 620 q 492 699 424 699 q 572 682 538 699 q 628 630 606 664 q 657 546 649 596 q 658 433 665 497 l 606 0 l 471 0 l 522 433 q 513 550 532 513 q 442 588 494 588 q 379 571 411 588 q 317 524 347 554 q 261 450 287 493 q 216 353 235 407 l 173 0 l 38 0 l 133 792 l 28 792 l 40 878 l 144 878 l 162 1025 l 297 1025 l 279 878 l 451 878 l 444 828 q 430 801 441 811 q 399 792 418 792 l 269 792 l 239 542 z "},"i":{"ha":325,"x_min":44,"x_max":309,"o":"m 263 706 l 178 0 l 44 0 l 129 706 l 263 706 m 309 924 q 301 888 309 905 q 280 858 293 871 q 251 838 267 845 q 217 831 234 831 q 183 838 199 831 q 155 858 167 845 q 136 888 143 871 q 128 924 128 905 q 136 959 128 942 q 156 989 143 976 q 184 1010 168 1002 q 218 1017 201 1017 q 252 1010 235 1017 q 281 990 269 1003 q 301 960 294 977 q 309 924 309 943 z "},"į":{"ha":325,"x_min":-32,"x_max":309,"o":"m 158 0 q 129 -19 144 -8 q 101 -45 114 -31 q 81 -76 89 -59 q 74 -111 74 -92 q 86 -144 74 -132 q 119 -157 98 -157 q 142 -155 133 -157 q 157 -150 151 -152 q 167 -145 163 -147 q 174 -142 171 -142 q 187 -151 185 -142 l 201 -202 q 148 -228 179 -218 q 82 -237 116 -237 q -3 -213 26 -237 q -32 -149 -32 -189 q -3 -67 -32 -105 q 74 0 26 -30 l 44 0 l 129 706 l 263 706 l 178 0 l 158 0 m 218 1017 q 252 1010 235 1017 q 281 990 269 1003 q 301 960 294 977 q 309 924 309 943 q 301 888 309 905 q 280 858 293 871 q 251 838 267 845 q 217 831 234 831 q 183 838 199 831 q 155 858 167 845 q 136 888 143 871 q 128 924 128 905 q 136 959 128 942 q 156 989 143 976 q 184 1010 168 1002 q 218 1017 201 1017 z "},"ı":{"ha":324,"x_min":44,"x_max":263,"o":"m 263 706 l 178 0 l 44 0 l 129 706 l 263 706 z "},"j":{"ha":324,"x_min":-124,"x_max":305,"o":"m 263 706 l 171 -44 q 149 -126 165 -88 q 106 -192 133 -164 q 41 -236 79 -220 q -46 -252 3 -252 q -89 -249 -71 -252 q -124 -239 -106 -245 l -110 -165 q -105 -155 -108 -158 q -97 -151 -102 -152 q -84 -149 -92 -149 q -64 -149 -76 -149 q 8 -125 -15 -149 q 38 -44 31 -100 l 130 706 l 263 706 m 305 924 q 297 888 305 905 q 277 858 290 871 q 247 838 264 845 q 213 831 231 831 q 180 838 196 831 q 151 858 164 845 q 132 888 139 871 q 124 924 124 905 q 132 959 124 942 q 152 989 140 976 q 181 1010 165 1002 q 214 1017 197 1017 q 248 1010 231 1017 q 277 990 265 1003 q 297 960 290 977 q 305 924 305 943 z "},"ȷ":{"ha":324,"x_min":-124,"x_max":263,"o":"m 263 706 l 171 -44 q 149 -126 165 -88 q 106 -192 133 -164 q 41 -236 79 -220 q -46 -252 3 -252 q -89 -249 -71 -252 q -124 -239 -106 -245 l -110 -165 q -105 -155 -108 -158 q -97 -151 -102 -152 q -84 -149 -92 -149 q -64 -149 -76 -149 q 8 -125 -15 -149 q 38 -44 31 -100 l 130 706 l 263 706 z "},"k":{"ha":667,"x_min":37,"x_max":680,"o":"m 296 1025 l 222 426 l 242 426 q 267 430 258 426 q 287 447 276 435 l 509 679 q 531 699 519 692 q 560 706 542 706 l 680 706 l 417 433 q 373 394 396 408 q 393 373 385 385 q 408 347 401 361 l 610 0 l 493 0 q 466 6 477 0 q 449 26 456 11 l 280 309 q 263 330 272 325 q 235 334 254 334 l 211 334 l 170 0 l 37 0 l 162 1025 l 296 1025 z "},"ĸ":{"ha":667,"x_min":37,"x_max":679,"o":"m 258 706 l 223 426 l 243 426 q 265 430 256 426 q 287 447 275 434 l 509 679 q 531 699 519 692 q 560 706 542 706 l 679 706 l 419 433 q 374 393 398 407 q 393 372 385 384 q 408 347 401 360 l 610 0 l 494 0 q 467 6 478 0 q 450 26 456 11 l 281 309 q 263 330 272 325 q 235 334 254 334 l 211 334 l 170 0 l 37 0 l 124 706 l 258 706 z "},"ł":{"ha":406,"x_min":33,"x_max":411,"o":"m 411 681 l 411 603 q 391 571 411 578 l 288 525 l 224 0 l 91 0 l 149 474 l 33 426 l 33 506 q 52 535 33 526 l 162 583 l 215 1025 l 349 1025 l 301 635 l 411 681 z "},"ľ":{"ha":317,"x_min":41,"x_max":492,"o":"m 472 1026 q 489 1020 485 1026 q 492 1007 492 1014 q 490 991 492 1001 q 479 960 488 981 q 456 907 471 940 q 415 822 440 874 q 394 802 405 806 q 365 797 383 797 l 331 797 l 397 1026 l 472 1026 m 41 0 l 165 1025 l 299 1025 l 174 0 l 41 0 z "},"m":{"ha":1095,"x_min":38,"x_max":1031,"o":"m 38 0 l 123 707 l 191 707 q 225 696 213 707 q 237 661 237 685 l 228 548 q 340 674 279 631 q 467 716 400 716 q 572 669 537 716 q 608 532 607 622 q 725 671 660 626 q 862 716 789 716 q 992 647 953 716 q 1015 449 1031 578 l 962 0 l 828 0 l 881 449 q 876 566 891 528 q 813 603 862 603 q 756 589 784 603 q 701 545 727 574 q 651 475 674 517 q 611 379 628 433 l 566 0 l 433 0 l 485 449 q 490 518 490 489 q 482 566 490 547 q 460 594 475 585 q 421 603 445 603 q 359 587 389 603 q 304 540 330 571 q 255 466 278 510 q 215 368 233 423 l 170 0 l 38 0 z "},"n":{"ha":740,"x_min":38,"x_max":668,"o":"m 227 537 q 353 671 283 626 q 496 716 422 716 q 575 698 540 716 q 631 647 609 681 q 660 563 652 613 q 660 449 668 513 l 607 0 l 472 0 l 525 449 q 516 566 535 529 q 445 603 497 603 q 380 586 413 603 q 316 536 347 568 q 258 458 285 503 q 213 356 231 412 l 174 0 l 38 0 l 122 707 l 190 707 q 224 696 213 707 q 236 661 236 685 l 227 537 z "},"ŋ":{"ha":740,"x_min":38,"x_max":668,"o":"m 227 537 q 353 671 283 626 q 496 716 422 716 q 575 698 540 716 q 631 647 609 681 q 660 563 652 613 q 660 449 668 513 l 615 58 l 608 4 q 582 -101 601 -54 q 533 -183 564 -149 q 458 -235 502 -217 q 355 -253 414 -253 q 326 -253 339 -253 q 302 -250 314 -252 q 279 -245 290 -248 q 253 -238 267 -242 l 265 -174 q 275 -150 269 -157 q 298 -144 281 -144 q 318 -147 306 -144 q 353 -151 330 -151 q 433 -117 403 -151 q 471 -11 462 -84 l 477 44 l 525 449 q 516 566 535 529 q 445 603 497 603 q 380 586 413 603 q 316 536 347 568 q 258 458 285 503 q 213 356 231 412 l 174 0 l 38 0 l 122 707 l 190 707 q 224 696 213 707 q 236 661 236 685 l 227 537 z "},"o":{"ha":722,"x_min":39,"x_max":667,"o":"m 316 96 q 405 123 365 96 q 473 194 444 149 q 516 299 501 240 q 531 422 531 358 q 495 564 531 517 q 390 610 459 610 q 301 584 340 610 q 233 512 261 557 q 190 408 205 467 q 174 285 174 349 q 210 143 174 191 q 316 96 247 96 m 303 -10 q 197 10 246 -10 q 114 67 149 30 q 59 159 78 105 q 39 284 39 214 q 67 452 39 374 q 144 590 95 531 q 259 682 193 649 q 402 716 326 716 q 508 696 460 716 q 592 639 557 676 q 647 547 627 601 q 667 423 667 492 q 639 255 667 334 q 561 117 610 176 q 446 24 513 58 q 303 -10 380 -10 z "},"ø":{"ha":722,"x_min":2,"x_max":701,"o":"m 230 115 q 315 88 266 88 q 406 113 365 88 q 476 184 447 139 q 523 290 506 229 q 539 422 539 351 q 525 517 539 476 l 230 115 m 476 591 q 390 619 440 619 q 299 593 340 619 q 228 523 258 568 q 182 417 199 478 q 166 285 166 356 q 181 188 166 228 l 476 591 m 611 617 q 652 532 638 580 q 667 423 667 483 q 654 309 667 364 q 618 205 641 253 q 561 117 594 157 q 488 50 528 78 q 401 6 447 22 q 303 -10 354 -10 q 156 31 218 -10 l 135 3 q 97 -29 119 -19 q 53 -38 75 -38 l 2 -38 l 95 89 q 53 174 68 126 q 38 284 38 223 q 51 399 38 344 q 87 503 64 455 q 144 590 110 551 q 217 658 177 630 q 304 701 258 686 q 401 717 351 717 q 550 675 486 717 l 569 701 q 583 719 577 712 q 597 731 590 726 q 612 738 603 735 q 633 740 620 740 l 701 740 l 611 617 z "},"œ":{"ha":1117,"x_min":37,"x_max":1058,"o":"m 298 93 q 390 117 350 93 q 457 183 429 140 q 500 285 484 226 q 521 417 516 344 q 518 498 524 462 q 496 560 512 535 q 456 600 481 586 q 396 614 431 614 q 302 588 344 614 q 230 515 260 562 q 185 401 201 467 q 169 252 169 334 q 176 192 169 221 q 198 142 183 164 q 238 106 213 119 q 298 93 263 93 m 838 621 q 765 605 799 621 q 705 560 731 590 q 659 489 678 531 q 632 392 640 447 q 789 422 728 405 q 885 458 850 438 q 932 498 919 477 q 945 542 945 519 q 939 572 945 557 q 919 597 933 586 q 886 614 906 608 q 838 621 866 621 m 626 306 q 667 149 626 201 q 781 97 708 97 q 839 104 814 97 q 884 120 865 110 q 919 141 904 130 q 948 163 935 153 q 972 179 960 172 q 994 185 983 185 q 1008 182 1002 185 q 1020 172 1015 178 l 1053 131 q 984 67 1018 94 q 914 24 950 41 q 839 -1 878 7 q 755 -10 800 -10 q 628 28 683 -10 q 544 143 573 66 q 425 30 496 70 q 265 -10 354 -10 q 166 11 208 -10 q 94 67 123 32 q 51 148 65 101 q 37 244 37 194 q 67 447 37 359 q 148 595 97 535 q 267 686 199 655 q 408 717 334 717 q 531 683 481 717 q 606 589 581 649 q 714 683 650 649 q 859 717 777 717 q 942 704 905 717 q 1005 669 978 692 q 1044 616 1031 647 q 1058 547 1058 585 q 1040 466 1058 503 q 972 397 1021 428 q 840 344 924 367 q 626 308 756 321 l 626 306 z "},"p":{"ha":738,"x_min":8,"x_max":685,"o":"m 189 158 q 250 109 215 124 q 321 95 285 95 q 386 110 356 95 q 443 150 417 124 q 488 209 468 175 q 522 282 508 243 q 543 362 536 320 q 551 444 551 403 q 522 566 551 525 q 442 608 494 608 q 377 587 410 608 q 314 531 344 567 q 257 446 283 495 q 211 338 231 397 l 189 158 m 227 525 q 284 604 253 569 q 348 664 315 639 q 419 702 382 689 q 494 716 456 716 q 634 651 583 716 q 685 458 685 585 q 673 343 685 400 q 639 233 660 285 q 585 137 617 181 q 516 60 554 92 q 434 9 478 27 q 341 -10 390 -10 q 249 10 290 -10 q 177 65 207 30 l 140 -237 l 8 -237 l 123 707 l 191 707 q 225 696 213 707 q 237 661 237 685 l 227 525 z "},"þ":{"ha":738,"x_min":8,"x_max":685,"o":"m 189 158 q 250 109 215 124 q 321 95 285 95 q 386 110 356 95 q 443 150 417 124 q 488 209 468 175 q 522 282 508 243 q 543 362 536 320 q 551 444 551 403 q 522 566 551 525 q 442 608 494 608 q 377 587 410 608 q 314 531 344 567 q 257 446 283 495 q 211 338 231 397 l 189 158 m 236 539 q 292 612 262 579 q 354 668 322 645 q 422 703 387 691 q 494 716 457 716 q 634 651 583 716 q 685 458 685 585 q 673 343 685 400 q 639 233 660 285 q 585 137 617 181 q 516 60 554 92 q 434 9 478 27 q 341 -10 390 -10 q 248 10 290 -10 q 177 65 206 30 l 146 -189 q 129 -222 144 -208 q 92 -237 115 -237 l 8 -237 l 162 1025 l 296 1025 l 236 539 z "},"q":{"ha":714,"x_min":32,"x_max":659,"o":"m 517 613 q 464 617 490 617 q 348 589 402 617 q 255 511 294 560 q 191 398 215 463 q 168 264 168 334 q 194 143 168 183 q 271 103 221 103 q 334 124 303 103 q 393 181 365 144 q 445 267 422 217 q 488 376 469 317 l 517 613 m 460 159 q 351 36 412 81 q 219 -10 290 -10 q 143 7 177 -10 q 84 55 108 23 q 45 133 59 86 q 32 240 32 179 q 48 362 32 302 q 93 475 64 422 q 163 572 122 528 q 253 649 203 617 q 361 698 303 681 q 483 716 419 716 q 573 709 528 716 q 659 683 617 701 l 545 -237 l 459 -237 q 436 -232 445 -237 q 423 -219 428 -227 q 417 -201 418 -211 q 417 -181 415 -192 l 460 159 z "},"r":{"ha":479,"x_min":38,"x_max":499,"o":"m 226 515 q 286 615 254 573 q 353 681 318 657 q 425 710 388 705 q 499 699 462 715 l 475 568 q 318 544 385 604 q 209 320 251 483 l 170 0 l 38 0 l 123 707 l 191 707 q 225 696 213 707 q 237 661 237 685 l 226 515 z "},"s":{"ha":558,"x_min":-3,"x_max":531,"o":"m 497 588 q 484 575 490 578 q 469 571 478 571 q 448 578 459 571 q 420 595 436 586 q 381 612 403 604 q 325 619 358 619 q 270 611 294 619 q 228 589 246 603 q 201 555 210 574 q 192 514 192 535 q 204 474 192 490 q 237 446 217 458 q 283 424 257 434 q 336 404 309 415 q 389 380 363 393 q 435 348 415 367 q 468 301 456 328 q 481 237 481 274 q 461 143 481 188 q 405 64 442 98 q 317 9 369 29 q 202 -11 266 -11 q 82 13 135 -11 q -3 75 29 38 l 30 127 q 65 147 43 147 q 89 138 77 147 q 117 116 100 128 q 158 95 133 105 q 220 85 182 85 q 279 95 253 85 q 323 121 305 105 q 350 159 341 138 q 360 205 360 181 q 347 248 360 231 q 315 278 335 266 q 268 300 294 290 q 216 319 242 309 q 163 341 189 329 q 117 372 137 353 q 84 418 97 391 q 72 483 72 444 q 90 570 72 528 q 141 644 108 612 q 223 697 175 677 q 333 716 272 716 q 447 695 398 716 q 531 637 496 674 l 497 588 z "},"ş":{"ha":558,"x_min":-3,"x_max":531,"o":"m 30 127 q 65 147 43 147 q 89 138 77 147 q 117 116 100 128 q 158 95 133 105 q 220 85 182 85 q 279 95 253 85 q 323 121 305 105 q 350 159 341 138 q 360 205 360 181 q 347 248 360 231 q 315 278 335 266 q 268 300 294 290 q 216 319 242 309 q 163 341 189 329 q 117 372 137 353 q 84 418 97 391 q 72 483 72 444 q 90 570 72 528 q 141 644 108 612 q 223 697 175 677 q 333 716 272 716 q 447 695 398 716 q 531 637 496 674 l 497 588 q 484 575 490 578 q 469 571 478 571 q 448 578 459 571 q 420 595 436 586 q 381 612 403 604 q 325 619 358 619 q 270 611 294 619 q 228 589 246 603 q 201 555 210 574 q 192 514 192 535 q 204 474 192 490 q 237 446 217 458 q 283 424 257 434 q 336 404 309 415 q 389 380 363 393 q 435 348 415 367 q 468 301 456 328 q 481 237 481 274 q 464 150 481 192 q 416 75 447 108 q 341 19 385 42 q 242 -9 297 -3 l 226 -50 q 302 -85 279 -62 q 326 -139 326 -107 q 314 -185 326 -165 q 281 -219 302 -205 q 230 -241 259 -233 q 166 -248 201 -248 q 117 -243 140 -248 q 75 -228 94 -237 l 93 -185 q 100 -176 96 -179 q 111 -172 103 -172 q 120 -175 115 -172 q 131 -180 124 -177 q 145 -184 137 -182 q 165 -187 153 -187 q 205 -174 192 -187 q 219 -144 219 -162 q 195 -112 219 -122 q 126 -96 172 -102 l 164 -9 q 67 20 110 -2 q -3 75 24 42 l 30 127 z "},"ß":{"ha":814,"x_min":51,"x_max":767,"o":"m 172 692 q 222 814 189 756 q 302 916 256 872 q 406 986 349 960 q 529 1012 463 1012 q 638 992 593 1012 q 712 943 683 973 q 753 878 740 914 q 767 810 767 842 q 751 730 767 763 q 711 672 735 697 q 660 630 688 648 q 608 594 632 611 q 569 558 585 577 q 553 514 553 539 q 567 474 553 490 q 604 444 582 458 q 652 414 626 429 q 699 377 677 399 q 736 325 722 356 q 751 249 751 294 q 729 139 751 187 q 669 57 707 90 q 583 6 632 24 q 478 -11 533 -11 q 368 13 417 -11 q 285 75 319 38 l 322 125 q 337 140 328 135 q 358 144 346 144 q 383 135 371 144 q 411 114 395 125 q 448 92 426 102 q 501 83 469 83 q 551 93 528 83 q 590 120 574 103 q 616 162 606 138 q 625 213 625 186 q 609 266 625 245 q 570 304 594 288 q 519 334 547 320 q 467 367 491 349 q 428 410 444 385 q 413 475 413 436 q 430 550 413 519 q 472 605 447 581 q 526 649 497 629 q 581 691 556 669 q 623 740 606 713 q 640 805 640 767 q 633 844 640 824 q 611 880 626 864 q 571 906 596 896 q 512 915 547 915 q 432 892 469 915 q 367 828 395 868 q 319 736 338 789 q 293 626 300 684 l 219 24 l 186 -115 q 161 -158 178 -143 q 116 -172 145 -172 l 63 -172 l 156 595 l 83 605 q 59 616 67 608 q 53 638 51 624 l 59 692 l 172 692 z "},"ſ":{"ha":382,"x_min":51,"x_max":518,"o":"m 176 758 q 205 866 183 819 q 261 945 227 913 q 340 995 295 978 q 438 1012 385 1012 q 480 1008 460 1012 q 518 998 500 1004 l 506 930 q 500 920 505 923 q 487 916 494 917 q 469 915 479 915 q 449 915 460 915 q 396 907 419 915 q 355 879 372 898 q 325 829 337 860 q 308 754 313 799 l 219 24 l 186 -115 q 161 -158 178 -143 q 116 -172 145 -172 l 63 -172 l 156 595 l 83 605 q 59 616 67 608 q 53 638 51 624 l 59 692 l 167 692 l 176 758 z "},"t":{"ha":497,"x_min":49,"x_max":474,"o":"m 94 136 q 94 147 94 140 q 95 166 94 153 q 99 199 97 178 q 106 253 101 220 l 148 596 l 72 596 q 55 603 62 596 q 51 625 49 610 l 57 680 l 165 696 l 219 906 q 230 925 222 918 q 250 931 238 931 l 322 931 l 292 694 l 474 694 l 463 596 l 281 596 l 239 260 q 233 214 235 231 q 230 186 231 197 q 229 172 229 176 q 228 166 228 168 q 244 117 228 133 q 287 100 260 100 q 317 105 304 100 q 340 116 330 110 q 356 126 349 122 q 368 131 363 131 q 378 128 374 131 q 385 118 381 125 l 413 53 q 334 6 378 22 q 246 -11 290 -11 q 136 27 176 -11 q 94 136 96 65 z "},"ť":{"ha":496,"x_min":49,"x_max":547,"o":"m 526 1026 q 543 1020 540 1026 q 547 1007 547 1014 q 545 991 547 1001 q 534 960 542 981 q 510 907 526 940 q 469 822 495 874 q 449 802 460 806 q 419 797 438 797 l 386 797 l 452 1026 l 526 1026 m 94 136 q 94 147 94 140 q 95 166 94 153 q 99 199 97 178 q 106 253 101 220 l 148 596 l 72 596 q 55 603 62 596 q 51 625 49 610 l 57 680 l 165 696 l 219 906 q 230 925 222 918 q 250 931 238 931 l 322 931 l 292 694 l 474 694 l 463 596 l 281 596 l 239 260 q 233 214 235 231 q 230 186 231 197 q 229 172 229 176 q 228 166 228 168 q 244 117 228 133 q 287 100 260 100 q 317 105 304 100 q 340 116 330 110 q 356 126 349 122 q 368 131 363 131 q 378 128 374 131 q 385 118 381 125 l 413 53 q 334 6 378 22 q 246 -11 290 -11 q 136 27 176 -11 q 94 136 96 65 z "},"ŧ":{"ha":503,"x_min":23,"x_max":479,"o":"m 100 136 q 100 147 100 140 q 101 166 100 153 q 105 199 102 178 q 111 253 107 220 l 128 395 l 50 395 q 31 403 38 395 q 25 426 23 411 l 32 481 l 139 481 l 153 596 l 78 596 q 61 603 67 596 q 56 625 54 610 l 63 680 l 170 696 l 224 906 q 236 925 228 918 q 256 931 244 931 l 328 931 l 298 694 l 479 694 l 468 596 l 286 596 l 272 481 l 448 481 l 437 395 l 261 395 l 244 260 q 239 214 241 231 q 236 186 237 197 q 234 172 235 176 q 234 166 234 168 q 250 117 234 133 q 292 100 266 100 q 323 105 310 100 q 345 116 335 110 q 361 126 355 122 q 374 131 368 131 q 383 128 380 131 q 390 118 387 125 l 419 53 q 340 6 383 22 q 251 -11 296 -11 q 142 27 182 -11 q 100 136 101 65 z "},"u":{"ha":740,"x_min":55,"x_max":685,"o":"m 685 706 l 599 0 l 532 0 q 483 49 483 0 l 491 164 q 368 34 436 78 q 227 -10 299 -10 q 148 8 183 -10 q 92 60 114 26 q 63 143 71 94 q 63 257 55 193 l 116 706 l 251 706 l 198 257 q 207 140 188 178 q 278 103 226 103 q 342 120 309 103 q 405 168 374 137 q 461 244 435 199 q 506 342 488 288 l 549 706 l 685 706 z "},"ų":{"ha":740,"x_min":55,"x_max":685,"o":"m 581 0 q 552 -19 567 -8 q 524 -45 537 -31 q 504 -76 512 -59 q 497 -111 497 -92 q 509 -144 497 -132 q 542 -157 521 -157 q 565 -155 556 -157 q 580 -150 574 -152 q 590 -145 586 -147 q 597 -142 594 -142 q 610 -151 608 -142 l 624 -202 q 570 -228 602 -218 q 505 -237 539 -237 q 420 -213 449 -237 q 391 -149 391 -189 q 422 -64 391 -103 q 506 5 453 -25 q 483 49 483 16 l 491 164 q 368 34 436 78 q 227 -10 299 -10 q 148 8 183 -10 q 92 60 114 26 q 63 143 71 94 q 63 257 55 193 l 116 706 l 251 706 l 198 257 q 207 140 188 178 q 278 103 226 103 q 342 120 309 103 q 405 168 374 137 q 461 244 435 199 q 506 342 488 288 l 549 706 l 685 706 l 599 0 l 581 0 z "},"v":{"ha":669,"x_min":47,"x_max":693,"o":"m 693 706 l 341 0 l 227 0 l 47 706 l 157 706 q 181 698 172 706 q 192 678 190 690 l 290 245 q 297 189 294 216 q 301 133 300 161 q 320 189 310 161 q 342 245 330 216 l 548 678 q 564 698 553 690 q 588 706 574 706 l 693 706 z "},"w":{"ha":1009,"x_min":52,"x_max":1024,"o":"m 1024 706 l 728 0 l 625 0 q 603 26 606 0 l 522 485 q 519 509 520 497 q 517 532 518 520 q 509 508 513 520 q 499 484 504 496 l 305 26 q 274 0 294 0 l 175 0 l 52 706 l 153 706 q 177 698 168 706 q 189 678 187 690 l 248 245 q 251 194 250 219 q 253 146 252 170 q 272 194 262 170 q 291 245 281 219 l 474 681 q 489 700 478 693 q 512 708 499 708 l 569 708 q 591 700 583 708 q 601 681 600 693 l 676 245 q 682 194 679 219 q 688 145 685 169 q 702 194 694 169 q 719 245 710 219 l 887 678 q 901 698 891 690 q 925 706 912 706 l 1024 706 z "},"x":{"ha":653,"x_min":-47,"x_max":659,"o":"m 408 380 l 594 0 l 472 0 q 449 7 458 0 q 436 26 441 15 l 310 301 q 302 285 306 292 q 294 272 299 278 l 111 26 q 94 8 103 16 q 72 0 85 0 l -47 0 l 238 381 l 69 706 l 191 706 q 212 701 206 706 q 224 688 219 697 l 336 453 q 344 468 340 460 q 354 484 349 476 l 505 685 q 536 706 517 706 l 659 706 l 408 380 z "},"y":{"ha":670,"x_min":48,"x_max":696,"o":"m 696 706 l 222 -206 q 176 -237 206 -237 l 76 -237 l 230 45 l 48 706 l 160 706 q 184 698 176 706 q 195 678 192 690 l 302 255 q 308 225 306 240 q 312 194 310 210 q 325 225 318 210 q 339 256 331 240 l 549 679 q 566 698 555 691 q 588 706 576 706 l 696 706 z "},"z":{"ha":592,"x_min":-14,"x_max":584,"o":"m 584 706 l 577 649 q 569 620 576 634 q 554 597 563 607 l 161 106 l 499 106 l 488 0 l -14 0 l -7 57 q 0 80 -6 67 q 16 106 6 94 l 412 599 l 79 599 l 92 706 l 584 706 z "},"ª":{"ha":476,"x_min":93,"x_max":449,"o":"m 342 764 q 269 756 299 763 q 220 740 239 750 q 194 716 202 730 q 185 686 185 703 q 199 654 185 664 q 234 644 212 644 q 287 657 264 644 q 334 692 310 669 l 342 764 m 145 942 q 226 993 183 977 q 316 1009 268 1009 q 376 996 350 1009 q 419 961 402 983 q 442 910 435 939 q 445 849 449 881 l 413 583 l 369 583 q 349 588 355 583 q 339 604 344 592 l 335 636 q 302 611 318 622 q 270 593 286 600 q 235 582 253 585 q 196 578 217 578 q 122 602 150 578 q 93 674 93 626 q 106 727 93 701 q 148 774 118 753 q 226 809 177 795 q 349 824 276 822 l 352 849 q 343 909 356 886 q 295 931 331 931 q 256 925 272 931 q 227 913 240 919 q 205 900 215 906 q 184 894 195 894 q 168 899 174 894 q 158 911 162 905 l 145 942 z "},"º":{"ha":521,"x_min":101,"x_max":508,"o":"m 332 1008 q 406 995 373 1008 q 461 958 438 982 q 496 900 484 934 q 508 824 508 866 q 491 721 508 767 q 444 643 474 675 q 372 593 414 610 q 280 575 330 575 q 205 588 238 575 q 149 625 172 601 q 113 684 126 649 q 101 760 101 718 q 118 863 101 817 q 166 941 135 909 q 239 991 197 974 q 332 1008 281 1008 m 290 653 q 378 699 349 653 q 407 824 407 745 q 386 902 407 874 q 323 930 365 930 q 267 917 290 930 q 230 882 244 905 q 210 828 216 860 q 203 758 203 797 q 225 681 203 708 q 290 653 246 653 z "},"ⁿ":{"ha":417,"x_min":78,"x_max":426,"o":"m 195 947 q 250 987 222 972 q 319 1003 279 1003 q 370 992 349 1003 q 404 964 391 982 q 422 920 417 945 q 423 865 426 895 l 395 636 l 303 636 l 331 865 q 323 913 335 897 q 281 929 310 929 q 240 920 260 929 q 202 894 220 910 l 170 636 l 78 636 l 122 997 l 171 997 q 193 978 188 997 l 195 947 z "},"`":{"ha":511,"x_min":189,"x_max":431,"o":"m 307 1008 q 339 1000 329 1008 q 356 976 349 992 l 431 808 l 360 808 q 338 813 347 808 q 320 829 328 817 l 189 1008 l 307 1008 z "},"´":{"ha":511,"x_min":273,"x_max":564,"o":"m 564 1008 l 392 829 q 372 813 381 817 q 348 808 362 808 l 273 808 l 385 976 q 408 1000 396 992 q 442 1008 420 1008 l 564 1008 z "},"ˆ":{"ha":511,"x_min":145,"x_max":549,"o":"m 549 812 l 465 812 q 450 815 458 812 q 436 826 443 817 l 372 913 q 367 919 369 916 q 362 927 365 923 q 349 913 356 919 l 263 826 q 232 812 249 812 l 145 812 l 310 997 l 426 997 l 549 812 z "},"ˇ":{"ha":511,"x_min":166,"x_max":569,"o":"m 569 997 l 405 812 l 289 812 l 166 997 l 253 997 q 267 994 260 997 q 278 987 274 991 l 347 897 q 356 882 353 889 q 363 890 360 886 q 369 897 366 893 l 458 987 q 471 994 463 990 q 486 997 478 997 l 569 997 z "},"̕":{"ha":0,"x_min":282,"x_max":460,"o":"m 439 1026 q 456 1020 452 1026 q 460 1008 460 1015 q 458 991 460 1001 q 447 961 456 981 q 423 909 439 942 q 381 822 408 876 q 360 801 372 806 q 330 796 348 796 l 282 796 l 349 1026 l 439 1026 z "},"˜":{"ha":511,"x_min":160,"x_max":559,"o":"m 430 926 q 466 940 452 926 q 483 985 479 954 l 559 985 q 543 922 555 950 q 514 873 531 893 q 473 841 496 852 q 424 830 450 830 q 383 840 401 830 q 348 861 365 849 q 318 883 332 873 q 290 892 303 892 q 238 833 246 892 l 160 833 q 176 896 165 867 q 206 945 188 925 q 247 977 224 965 q 297 988 270 988 q 338 978 319 988 q 372 957 356 969 q 402 936 388 946 q 430 926 416 926 z "},"¯":{"ha":511,"x_min":166,"x_max":547,"o":"m 176 940 l 547 940 l 537 852 l 166 852 l 176 940 z "},"˘":{"ha":511,"x_min":184,"x_max":547,"o":"m 347 808 q 264 823 297 808 q 213 864 231 838 q 189 924 194 890 q 188 997 184 958 l 276 997 q 276 956 274 975 q 287 924 278 938 q 313 903 296 910 q 356 896 330 896 q 401 903 383 896 q 432 924 419 910 q 450 956 444 938 q 460 997 457 975 l 547 997 q 530 924 543 958 q 493 864 517 890 q 433 823 469 838 q 347 808 397 808 z "},"˚":{"ha":511,"x_min":224,"x_max":494,"o":"m 227 915 q 244 969 231 945 q 277 1011 257 994 q 322 1039 297 1029 q 373 1049 347 1049 q 423 1039 400 1049 q 462 1011 446 1029 q 486 969 478 994 q 491 915 494 945 q 474 862 488 886 q 440 820 460 838 q 395 794 420 803 q 343 784 370 784 q 294 794 317 784 q 256 820 272 803 q 232 862 240 838 q 227 915 224 886 m 297 915 q 308 867 293 885 q 352 848 322 848 q 399 867 380 848 q 422 915 418 885 q 410 965 425 946 q 367 983 394 983 q 319 965 338 983 q 297 915 300 946 z "},"˝":{"ha":511,"x_min":204,"x_max":655,"o":"m 449 1008 l 301 829 q 281 813 292 817 q 256 808 271 808 l 204 808 l 310 976 q 332 1000 320 992 q 366 1008 344 1008 l 449 1008 m 655 1008 l 478 829 q 457 813 467 817 q 433 808 447 808 l 374 808 l 507 976 q 530 1000 519 992 q 564 1008 542 1008 l 655 1008 z "},"˙":{"ha":511,"x_min":272,"x_max":452,"o":"m 452 924 q 444 888 452 905 q 423 858 436 871 q 394 838 410 845 q 360 831 377 831 q 326 838 342 831 q 298 858 310 845 q 279 888 286 871 q 272 924 272 905 q 279 959 272 942 q 299 989 286 976 q 327 1010 311 1002 q 360 1017 343 1017 q 394 1010 378 1017 q 424 990 411 1003 q 444 960 437 977 q 452 924 452 943 z "},"¸":{"ha":511,"x_min":123,"x_max":374,"o":"m 274 -50 q 350 -85 327 -62 q 374 -139 374 -107 q 362 -185 374 -165 q 328 -219 350 -205 q 278 -241 307 -233 q 214 -248 249 -248 q 165 -243 188 -248 q 123 -228 142 -237 l 141 -185 q 148 -176 144 -179 q 159 -172 151 -172 q 168 -175 163 -172 q 178 -180 172 -177 q 193 -184 185 -182 q 213 -187 201 -187 q 253 -174 240 -187 q 267 -144 267 -162 q 243 -112 267 -122 q 174 -96 219 -102 l 224 19 l 301 19 l 274 -50 z "},"˛":{"ha":511,"x_min":123,"x_max":356,"o":"m 329 -142 q 342 -151 340 -142 l 356 -202 q 302 -228 334 -218 q 237 -237 271 -237 q 152 -213 181 -237 q 123 -149 123 -189 q 156 -62 123 -102 q 244 9 190 -22 l 313 0 q 284 -19 299 -8 q 256 -45 269 -31 q 236 -76 244 -59 q 228 -111 228 -92 q 241 -144 228 -132 q 274 -157 253 -157 q 297 -155 288 -157 q 312 -150 306 -152 q 322 -145 318 -147 q 329 -142 326 -142 z "},"Γ":{"ha":714,"x_min":64,"x_max":757,"o":"m 744 885 l 315 885 l 207 0 l 64 0 l 186 997 l 757 997 l 744 885 z "},"Δ":{"ha":896,"x_min":-50,"x_max":842,"o":"m 152 115 l 669 115 l 517 765 q 508 802 513 781 q 501 848 504 824 q 465 764 481 797 l 152 115 m 842 0 l -50 0 l 454 997 l 583 997 l 842 0 z "},"Θ":{"ha":1038,"x_min":65,"x_max":992,"o":"m 358 562 l 710 562 l 696 446 l 344 446 l 358 562 m 992 569 q 952 336 992 442 q 842 153 913 230 q 675 33 772 76 q 466 -10 579 -10 q 299 23 373 -10 q 173 114 225 56 q 93 252 121 172 q 65 428 65 333 q 83 588 65 512 q 135 728 101 664 q 216 845 168 793 q 322 933 263 897 q 448 989 380 969 q 592 1008 517 1008 q 758 975 684 1008 q 885 884 833 942 q 965 744 937 825 q 992 569 992 664 m 846 565 q 827 699 846 639 q 773 801 808 758 q 688 866 738 843 q 574 889 638 889 q 427 857 494 889 q 313 765 360 824 q 238 620 265 705 q 211 432 211 536 q 230 299 211 358 q 283 197 248 239 q 368 132 318 155 q 481 109 418 109 q 630 141 563 109 q 745 233 697 174 q 819 377 793 292 q 846 565 846 461 z "},"Λ":{"ha":882,"x_min":-49,"x_max":826,"o":"m 826 0 l 711 0 q 682 9 692 0 q 667 33 671 19 l 510 722 q 498 774 503 746 q 489 834 492 803 q 467 774 478 803 q 444 722 456 746 l 117 33 q 98 10 112 21 q 66 0 84 0 l -49 0 l 447 997 l 576 997 l 826 0 z "},"Ξ":{"ha":801,"x_min":4,"x_max":818,"o":"m 818 997 l 803 877 l 112 877 l 126 997 l 818 997 m 710 120 l 696 0 l 4 0 l 18 120 l 710 120 m 232 565 l 605 565 l 589 442 l 217 442 l 232 565 z "},"Π":{"ha":988,"x_min":64,"x_max":942,"o":"m 820 0 l 677 0 l 785 885 l 315 885 l 207 0 l 64 0 l 186 997 l 942 997 l 820 0 z "},"Σ":{"ha":783,"x_min":-11,"x_max":803,"o":"m 358 885 q 299 887 324 885 q 248 895 273 890 q 332 814 303 862 l 469 579 q 492 537 486 551 q 497 511 499 523 q 494 496 497 503 q 486 480 491 488 q 472 460 481 471 q 451 435 464 449 l 226 166 q 191 130 208 144 q 156 105 174 116 q 204 110 182 108 q 246 112 226 112 l 694 112 l 681 0 l -11 0 l -4 53 q 7 85 -3 69 q 28 113 17 101 l 376 497 l 116 894 q 106 913 110 903 q 103 935 102 924 l 111 997 l 803 997 l 789 885 l 358 885 z "},"Φ":{"ha":1078,"x_min":50,"x_max":1048,"o":"m 575 166 q 709 197 648 167 q 815 279 771 228 q 885 399 860 331 q 910 544 910 467 q 893 656 910 603 q 843 748 876 708 q 764 811 811 788 q 657 835 717 834 l 575 166 m 522 835 q 388 804 449 834 q 282 722 326 774 q 213 603 238 671 q 188 458 188 535 q 205 346 188 399 q 255 254 222 294 q 334 190 287 214 q 440 166 381 167 l 522 835 m 671 947 q 831 914 760 946 q 949 828 901 882 q 1023 703 997 774 q 1048 551 1048 631 q 1032 420 1048 483 q 986 302 1016 357 q 913 202 956 247 q 816 124 870 156 q 698 74 762 92 q 562 55 634 56 l 545 -79 l 410 -79 l 427 55 q 267 88 338 56 q 149 174 197 119 q 75 300 101 228 q 50 451 50 372 q 86 643 50 553 q 186 800 122 733 q 340 907 251 867 q 536 947 429 946 l 552 1076 l 687 1076 l 671 947 z "},"Ψ":{"ha":1056,"x_min":78,"x_max":1063,"o":"m 1063 997 l 1019 641 q 974 481 1008 553 q 884 358 940 409 q 751 276 828 306 q 576 242 674 247 l 546 0 l 403 0 l 433 242 q 267 277 337 247 q 154 358 197 307 q 94 481 110 410 q 89 641 78 553 l 133 997 l 228 997 q 261 983 251 997 q 269 947 272 968 l 232 641 q 231 525 224 576 q 265 439 239 474 q 335 383 290 403 q 447 358 380 363 l 525 997 l 668 997 l 590 358 q 708 383 658 363 q 793 438 758 403 q 847 525 827 474 q 876 641 867 576 l 914 947 q 930 983 916 968 q 967 997 944 997 l 1063 997 z "},"Ω":{"ha":984,"x_min":22,"x_max":942,"o":"m 619 120 l 880 120 l 872 46 q 854 13 869 26 q 817 0 839 0 l 494 0 l 533 311 q 636 347 588 322 q 720 413 685 372 q 776 510 756 453 q 796 644 796 567 q 778 750 796 703 q 728 828 760 797 q 651 876 697 860 q 551 892 606 892 q 424 870 482 892 q 323 805 365 848 q 257 698 281 761 q 233 553 233 635 q 248 460 233 501 q 287 389 262 419 q 348 340 313 359 q 426 311 383 320 l 389 0 l 66 0 q 33 13 44 0 q 24 46 22 26 l 32 120 l 293 120 l 308 238 q 215 283 256 253 q 145 353 174 313 q 103 444 117 394 q 88 552 88 494 q 105 678 88 619 q 152 788 122 738 q 226 880 183 839 q 322 949 269 920 q 436 992 375 977 q 565 1008 497 1008 q 720 981 650 1008 q 839 907 790 954 q 916 793 889 859 q 942 650 942 728 q 920 505 942 573 q 858 384 899 438 q 761 293 818 331 q 633 237 704 255 l 619 120 z "},"α":{"ha":774,"x_min":35,"x_max":751,"o":"m 276 99 q 338 115 308 99 q 396 161 368 131 q 450 233 424 190 q 500 327 476 275 q 507 433 506 382 q 500 524 509 484 q 468 587 491 563 q 402 611 446 611 q 313 584 355 611 q 239 509 271 556 q 189 400 208 463 q 170 268 170 338 q 197 141 170 184 q 276 99 224 99 m 751 706 q 677 484 719 588 q 585 294 635 381 q 585 224 583 256 q 593 168 586 192 q 616 130 601 144 q 658 117 631 117 l 704 117 l 690 41 q 685 25 689 33 q 672 10 681 17 q 648 -1 663 3 q 612 -6 633 -6 q 563 6 583 -6 q 530 39 542 17 q 511 94 517 61 q 502 170 504 126 q 363 38 435 85 q 217 -10 291 -10 q 143 6 176 -10 q 86 53 110 22 q 49 133 62 85 q 35 247 35 181 q 63 425 35 340 q 139 575 91 510 q 250 678 187 640 q 386 717 314 717 q 463 702 431 717 q 517 662 494 688 q 552 602 539 636 q 572 528 566 567 q 578 549 576 538 q 585 572 581 560 q 606 642 597 615 q 623 683 615 669 q 640 702 631 697 q 659 706 648 706 l 751 706 z "},"β":{"ha":726,"x_min":8,"x_max":662,"o":"m 188 158 q 248 111 210 127 q 327 96 285 96 q 415 114 377 96 q 479 165 453 133 q 518 239 505 197 q 531 331 531 282 q 518 406 531 374 q 482 457 505 437 q 428 486 459 476 q 362 495 397 495 l 323 495 l 335 599 l 359 599 q 430 610 397 599 q 486 645 463 622 q 523 703 510 668 q 536 785 536 738 q 505 878 536 845 q 419 910 474 910 q 354 895 383 910 q 305 847 326 880 q 269 760 283 813 q 245 631 254 706 l 194 215 l 188 158 m 115 635 q 149 793 126 724 q 211 910 173 863 q 302 982 249 958 q 427 1007 356 1007 q 527 990 484 1007 q 601 945 571 974 q 646 878 631 917 q 661 795 661 840 q 616 641 661 703 q 492 551 572 578 q 618 472 574 530 q 662 331 662 415 q 639 198 662 260 q 576 89 617 135 q 478 17 535 43 q 351 -10 421 -10 q 256 10 302 -10 q 176 69 209 29 l 163 -40 l 130 -180 q 105 -222 122 -207 q 60 -237 89 -237 l 8 -237 l 63 219 l 115 635 z "},"γ":{"ha":707,"x_min":50,"x_max":723,"o":"m 723 706 q 657 534 695 619 q 575 368 619 449 q 480 210 530 287 q 378 65 430 134 l 341 -237 l 210 -237 l 247 61 q 229 280 240 179 q 198 455 218 381 q 147 571 178 529 q 70 613 116 613 l 50 613 l 56 660 q 61 681 58 672 q 72 696 65 690 q 93 706 80 703 q 127 710 106 710 q 229 674 188 710 q 296 569 270 638 q 334 401 322 501 q 347 174 347 301 q 414 286 383 227 q 472 408 445 346 q 522 535 499 471 q 564 661 545 599 q 583 696 571 686 q 613 706 595 706 l 723 706 z "},"δ":{"ha":716,"x_min":35,"x_max":658,"o":"m 318 92 q 398 109 360 92 q 463 160 435 127 q 507 241 491 194 q 523 348 523 289 q 511 428 523 392 q 481 494 500 465 q 436 549 462 524 q 384 594 411 573 q 303 553 342 578 q 234 490 264 528 q 187 401 205 453 q 169 283 169 350 q 178 209 169 244 q 206 149 188 175 q 252 107 224 122 q 318 92 280 92 m 638 898 q 625 874 633 880 q 600 869 617 869 q 571 874 590 869 q 527 886 552 879 q 472 898 501 892 q 413 903 442 903 q 367 897 386 903 q 335 882 347 892 q 316 859 322 872 q 310 832 310 847 q 325 791 310 810 q 364 752 340 772 q 419 711 388 732 q 482 665 450 690 q 545 610 515 640 q 600 542 576 580 q 639 458 624 504 q 654 353 654 411 q 629 207 654 274 q 559 93 604 141 q 449 18 513 44 q 308 -9 385 -9 q 191 13 242 -9 q 106 73 140 35 q 53 164 71 112 q 35 276 35 216 q 327 637 35 552 q 274 677 299 657 q 229 721 249 698 q 198 770 210 744 q 187 830 187 797 q 202 901 187 868 q 249 957 218 933 q 324 994 279 981 q 427 1007 369 1007 q 483 1005 453 1007 q 544 998 513 1002 q 604 989 574 994 q 658 977 633 983 l 638 898 z "},"ε":{"ha":588,"x_min":26,"x_max":565,"o":"m 516 100 q 458 50 489 71 q 393 17 426 30 q 327 -3 360 3 q 264 -9 294 -9 q 170 5 214 -9 q 95 43 127 18 q 44 104 63 68 q 26 183 26 140 q 68 299 26 249 q 196 371 110 349 q 141 398 163 381 q 105 433 119 414 q 86 474 92 452 q 80 516 80 495 q 98 590 80 554 q 151 655 116 626 q 237 700 186 683 q 352 717 288 717 q 478 693 424 717 q 565 632 533 669 l 531 584 q 514 568 522 572 q 498 565 507 565 q 478 573 489 565 q 451 591 467 581 q 410 609 434 601 q 350 617 386 617 q 288 608 315 617 q 243 584 261 599 q 215 549 224 569 q 206 507 206 529 q 240 440 206 467 q 337 413 274 413 l 442 413 l 431 324 l 326 324 q 201 290 241 324 q 160 199 160 256 q 193 122 160 152 q 284 92 225 92 q 352 102 324 92 q 400 126 381 113 q 434 150 420 139 q 461 160 449 160 q 484 148 477 160 l 516 100 z "},"ζ":{"ha":506,"x_min":35,"x_max":588,"o":"m 588 953 q 586 931 588 942 q 574 908 583 921 q 549 878 565 895 q 505 835 532 860 q 432 768 471 804 q 356 691 394 732 q 284 606 318 651 q 223 513 249 562 q 181 413 197 465 q 165 306 165 361 q 175 243 165 269 q 203 196 185 216 q 249 162 222 176 q 310 135 276 147 q 392 99 360 118 q 443 58 424 79 q 469 16 462 38 q 476 -29 476 -6 q 456 -129 476 -81 q 398 -229 435 -177 l 301 -189 q 318 -162 310 -176 q 334 -132 327 -148 q 346 -101 342 -117 q 351 -69 351 -85 q 346 -45 351 -58 q 328 -21 341 -33 q 292 4 315 -8 q 232 28 269 16 q 148 66 185 44 q 87 116 112 88 q 49 183 62 145 q 35 269 35 220 q 67 438 35 358 q 155 594 99 517 q 287 748 211 672 q 451 906 363 825 q 360 894 409 899 q 250 889 310 889 l 197 889 q 157 903 168 889 q 149 933 147 917 l 156 997 l 583 997 l 588 953 z "},"η":{"ha":754,"x_min":35,"x_max":683,"o":"m 41 665 q 60 698 44 685 q 115 712 77 712 q 173 702 147 712 q 218 674 199 693 q 245 625 236 655 q 253 553 255 594 q 374 675 307 634 q 510 716 440 716 q 589 698 555 716 q 645 647 624 681 q 675 563 667 613 q 675 449 683 513 l 591 -237 l 460 -237 l 544 449 l 544 449 q 534 566 554 529 q 460 603 514 603 q 403 590 433 603 q 347 551 374 576 q 293 491 319 526 q 249 410 268 455 l 199 0 l 69 0 l 131 512 q 121 589 138 565 q 64 614 103 614 l 35 614 l 41 665 z "},"θ":{"ha":779,"x_min":73,"x_max":722,"o":"m 201 461 q 199 370 199 417 q 237 164 199 235 q 351 94 276 94 q 440 118 400 94 q 509 190 479 143 q 558 305 539 237 q 588 461 578 374 l 201 461 m 594 553 q 595 590 595 571 q 596 628 596 608 q 558 835 596 765 q 449 906 521 906 q 359 882 399 906 q 289 813 319 858 q 239 702 259 768 q 208 553 219 637 l 594 553 m 457 1008 q 567 981 518 1008 q 650 905 616 955 q 703 781 685 854 q 722 615 722 708 q 694 349 722 465 q 617 153 667 233 q 497 32 567 74 q 342 -10 427 -10 q 229 17 279 -10 q 144 94 179 43 q 91 218 110 144 q 73 385 73 291 q 101 649 73 533 q 179 845 128 765 q 300 966 229 925 q 457 1008 371 1008 z "},"ι":{"ha":348,"x_min":50,"x_max":313,"o":"m 119 706 l 250 706 l 187 195 q 197 117 181 143 q 258 90 214 90 l 313 90 l 308 49 q 295 25 306 35 q 270 7 285 14 q 235 -5 254 -1 q 194 -8 215 -8 q 125 6 154 -8 q 79 46 97 20 q 56 108 62 72 q 56 188 50 144 l 119 706 z "},"λ":{"ha":698,"x_min":-26,"x_max":658,"o":"m 658 91 l 651 38 q 630 1 647 10 q 582 -8 613 -8 q 523 -1 549 -8 q 476 24 497 5 q 441 76 456 42 q 417 166 426 110 l 363 402 q 354 463 356 438 q 352 510 352 489 q 335 465 344 488 q 315 415 326 441 l 128 26 q 113 7 124 15 q 83 0 102 0 l -26 0 l 306 644 l 267 834 q 257 868 263 854 q 240 891 251 883 q 214 904 230 900 q 174 908 198 908 l 133 908 l 139 957 q 144 976 140 967 q 159 992 149 985 q 184 1002 169 999 q 224 1006 200 1006 q 276 1001 251 1006 q 323 981 301 995 q 360 944 344 967 q 383 885 376 920 l 539 166 q 565 109 547 126 q 620 91 583 91 l 658 91 z "},"μ":{"ha":774,"x_min":11,"x_max":731,"o":"m 731 94 l 724 40 q 697 8 722 22 q 631 -7 672 -7 q 580 1 603 -7 q 537 27 556 10 q 507 70 519 44 q 492 131 495 96 q 398 39 449 72 q 288 6 347 6 q 164 57 206 6 q 163 2 165 30 q 158 -50 161 -26 l 135 -237 l 68 -237 q 25 -222 39 -237 q 15 -178 11 -207 l 124 706 l 260 706 l 205 259 q 227 156 201 194 q 310 117 253 117 q 409 151 365 117 q 486 243 453 184 l 543 706 l 679 706 l 616 196 q 630 119 610 144 q 689 94 650 94 l 731 94 z "},"ν":{"ha":665,"x_min":47,"x_max":681,"o":"m 681 706 q 609 514 650 608 q 520 330 569 419 q 418 157 472 240 q 304 0 363 74 l 223 0 l 47 706 l 154 706 q 178 698 169 706 q 190 678 188 690 l 285 238 q 293 190 290 213 q 299 144 297 167 q 369 260 337 198 q 429 389 401 322 q 481 525 457 456 q 526 665 505 595 q 543 696 531 687 q 569 706 556 706 l 681 706 z "},"ξ":{"ha":509,"x_min":33,"x_max":572,"o":"m 565 942 q 545 905 563 918 q 508 891 527 891 l 450 891 q 366 876 404 891 q 301 834 328 860 q 259 773 274 808 q 244 698 244 738 q 285 611 244 642 q 404 579 326 579 l 463 579 l 451 476 l 362 476 q 274 461 311 476 q 213 422 237 447 q 177 362 189 397 q 166 288 166 328 q 177 232 166 256 q 210 188 188 208 q 264 152 231 169 q 339 117 296 135 q 396 88 373 103 q 433 55 419 73 q 453 18 447 38 q 460 -24 460 -2 q 439 -126 460 -77 q 380 -229 419 -176 l 283 -188 q 300 -161 292 -176 q 316 -132 309 -147 q 328 -100 324 -117 q 333 -67 333 -84 q 317 -22 333 -42 q 254 14 301 -1 q 165 53 206 31 q 95 106 124 75 q 50 175 66 136 q 33 265 33 215 q 44 343 33 303 q 78 420 55 383 q 140 486 102 456 q 233 533 178 516 q 148 593 174 554 q 122 683 122 631 q 136 756 122 723 q 175 816 151 790 q 231 863 199 842 q 299 897 263 883 q 278 897 289 897 q 256 897 268 897 l 171 897 q 131 910 141 897 q 123 948 120 924 l 129 997 l 572 997 l 565 942 z "},"π":{"ha":801,"x_min":5,"x_max":794,"o":"m 787 635 q 772 605 785 617 q 738 592 759 592 l 647 592 q 635 526 641 558 q 624 456 628 494 q 616 369 619 418 q 613 251 613 319 q 617 171 613 201 q 629 124 621 141 q 649 102 638 108 q 676 96 661 96 l 703 96 l 696 42 q 667 7 693 19 q 604 -5 640 -5 q 504 40 537 -5 q 471 172 471 84 q 477 257 471 215 q 494 348 484 299 q 517 457 505 397 q 542 592 530 516 l 323 592 q 288 382 306 473 q 249 225 269 291 q 207 114 228 158 q 161 43 185 69 q 112 6 138 17 q 58 -6 86 -6 q 40 -4 49 -6 q 22 0 30 -3 q 10 9 15 3 q 6 21 5 14 l 17 114 l 30 114 q 72 140 50 114 q 117 222 94 165 q 163 370 140 278 q 205 592 185 461 l 69 592 l 76 650 q 81 667 76 658 q 93 683 86 676 q 111 695 101 690 q 133 700 121 700 l 794 700 l 787 635 z "},"ρ":{"ha":729,"x_min":-2,"x_max":672,"o":"m 181 184 q 247 114 208 136 q 324 92 286 92 q 409 114 370 92 q 477 179 449 137 q 521 282 505 221 q 537 419 537 342 q 527 505 537 469 q 498 566 517 542 q 454 601 480 590 q 397 613 428 613 q 331 599 363 613 q 274 556 300 585 q 231 484 249 528 q 206 381 213 440 l 181 184 m 74 376 q 111 523 84 459 q 182 630 139 587 q 282 695 225 673 q 409 717 340 717 q 514 696 466 717 q 597 636 562 676 q 652 541 632 597 q 672 414 672 485 q 647 249 672 326 q 577 114 622 172 q 472 24 533 57 q 340 -10 411 -10 q 244 14 288 -10 q 168 76 200 37 l 129 -237 l -2 -237 l 74 376 z "},"σ":{"ha":779,"x_min":39,"x_max":809,"o":"m 437 601 q 318 579 367 601 q 236 517 268 558 q 189 419 204 477 q 174 287 174 360 q 213 143 174 194 q 327 92 251 92 q 421 115 381 92 q 489 180 462 138 q 530 284 516 223 q 544 423 544 345 q 539 482 544 453 q 524 534 534 510 q 500 575 515 558 q 465 601 485 592 l 437 601 m 809 703 l 801 646 q 786 614 799 627 q 745 601 773 601 l 586 601 q 651 515 627 567 q 676 396 676 463 q 649 234 676 308 q 575 106 623 160 q 461 21 528 51 q 315 -10 395 -10 q 200 11 251 -10 q 114 71 149 32 q 58 165 78 110 q 39 290 39 220 q 68 458 39 382 q 151 589 97 534 q 282 673 206 643 q 452 703 358 703 l 809 703 z "},"ς":{"ha":603,"x_min":43,"x_max":606,"o":"m 566 576 q 553 564 559 568 q 536 559 547 559 q 515 568 526 559 q 489 587 504 576 q 451 606 473 597 q 394 615 428 615 q 306 593 345 615 q 238 535 266 572 q 194 447 210 498 q 179 338 179 397 q 193 253 179 287 q 232 196 207 219 q 293 156 258 172 q 372 122 328 139 q 435 92 410 108 q 476 59 460 76 q 497 20 491 41 q 503 -24 503 0 q 483 -127 503 -78 q 424 -229 463 -176 l 327 -189 q 344 -162 335 -176 q 360 -131 353 -147 q 372 -99 367 -115 q 376 -65 376 -82 q 373 -42 376 -53 q 361 -22 370 -31 q 335 -2 351 -12 q 292 17 318 7 q 197 58 242 35 q 117 116 151 81 q 63 201 83 151 q 43 324 43 251 q 67 479 43 407 q 137 603 92 551 q 248 686 183 656 q 397 717 314 717 q 518 692 467 717 q 606 624 569 667 l 566 576 z "},"τ":{"ha":603,"x_min":35,"x_max":616,"o":"m 610 647 q 594 612 607 624 q 558 599 581 599 l 363 599 l 314 198 q 324 119 308 146 q 384 93 340 93 l 440 93 l 435 52 q 423 27 433 38 q 397 9 413 17 q 361 -2 381 2 q 321 -6 342 -6 q 252 9 281 -6 q 206 49 224 23 q 183 111 189 75 q 182 191 176 147 l 232 599 l 35 599 l 42 656 q 57 686 44 674 q 92 699 70 699 l 616 699 l 610 647 z "},"υ":{"ha":715,"x_min":54,"x_max":651,"o":"m 647 706 q 648 663 648 686 q 649 615 649 639 q 650 570 650 592 q 651 533 651 549 q 636 352 651 432 q 597 213 622 273 q 538 109 572 152 q 464 40 503 67 q 380 1 424 13 q 292 -11 336 -11 q 183 7 230 -11 q 107 60 137 26 q 66 144 78 95 q 62 256 54 194 l 117 706 l 248 706 l 193 256 q 194 187 188 217 q 217 136 201 157 q 258 104 233 115 q 314 93 283 93 q 385 111 349 93 q 451 173 422 129 q 500 288 481 216 q 519 469 519 360 q 519 513 519 489 q 517 563 518 538 q 516 614 517 588 q 515 661 515 639 q 530 695 516 685 q 556 706 543 706 l 647 706 z "},"φ":{"ha":967,"x_min":40,"x_max":913,"o":"m 501 89 q 620 116 568 90 q 708 187 672 142 q 763 292 744 232 q 781 422 781 352 q 773 501 781 465 q 749 564 765 538 q 709 604 733 590 q 656 618 686 618 q 586 588 615 618 q 551 491 558 557 l 501 89 m 427 491 q 503 661 441 606 q 664 717 565 717 q 768 694 722 717 q 846 632 814 672 q 895 539 878 592 q 913 424 913 485 q 881 249 913 328 q 794 112 850 169 q 660 23 738 55 q 489 -10 582 -9 l 461 -237 l 338 -237 l 366 -10 q 229 16 290 -9 q 126 83 169 40 q 62 183 84 125 q 40 308 40 240 q 60 443 40 380 q 116 557 80 506 q 203 648 153 608 q 316 712 254 687 l 346 658 q 346 627 353 643 q 326 603 339 611 q 260 554 289 583 q 211 487 231 524 q 181 406 192 450 q 171 314 171 362 q 184 225 171 266 q 223 155 197 185 q 288 107 249 125 q 378 89 327 90 l 427 491 z "},"χ":{"ha":620,"x_min":-61,"x_max":638,"o":"m 455 -74 q 483 -131 465 -113 q 537 -149 500 -149 l 560 -149 l 553 -202 q 549 -225 552 -216 q 539 -239 545 -233 q 522 -246 532 -244 q 496 -248 511 -248 q 443 -243 468 -248 q 398 -223 419 -237 q 361 -181 378 -208 q 334 -113 345 -155 l 260 152 q 249 114 255 133 q 235 82 242 96 l 74 -209 q 59 -227 69 -219 q 32 -235 49 -235 l -61 -235 l 217 260 l 140 542 q 126 576 133 563 q 108 599 118 590 q 82 611 97 608 q 45 615 67 615 l 22 615 l 28 664 q 31 683 30 674 q 38 699 33 692 q 55 709 44 706 q 88 713 67 713 q 196 686 156 713 q 256 592 236 658 l 327 335 q 353 406 338 376 l 502 678 q 517 698 508 690 q 544 706 527 706 l 638 706 l 369 230 l 455 -74 z "},"ψ":{"ha":994,"x_min":58,"x_max":931,"o":"m 926 706 q 927 663 926 686 q 930 615 928 639 q 931 570 931 592 q 931 533 931 549 q 916 353 931 432 q 872 217 900 275 q 804 118 843 158 q 718 51 765 77 q 619 11 672 25 q 512 -7 567 -2 l 483 -237 l 352 -237 l 380 -8 q 228 24 291 -1 q 126 94 165 50 q 73 198 88 138 q 68 334 58 258 l 114 706 l 205 706 q 231 690 221 706 q 238 654 241 674 l 199 334 q 239 171 187 231 q 393 98 290 112 l 503 997 l 635 997 l 524 97 q 634 124 584 103 q 720 188 684 144 q 776 302 756 232 q 797 475 797 372 q 792 574 797 528 q 790 661 788 619 q 805 695 792 685 q 832 706 818 706 l 926 706 z "},"ω":{"ha":1000,"x_min":42,"x_max":939,"o":"m 891 706 q 910 640 901 675 q 926 567 919 604 q 935 493 932 530 q 939 422 939 456 q 916 242 939 322 q 852 106 892 162 q 756 19 811 49 q 638 -11 701 -11 q 569 -1 599 -11 q 519 27 540 9 q 483 70 497 45 q 462 124 469 94 q 426 70 447 94 q 381 27 406 45 q 324 -1 356 9 q 256 -11 293 -11 q 167 10 206 -11 q 100 70 128 31 q 57 164 72 109 q 42 285 42 219 q 53 399 42 344 q 81 506 63 454 q 124 607 99 558 q 177 706 149 657 l 262 706 q 280 702 271 706 q 294 691 290 699 q 298 672 299 684 q 285 643 297 660 q 244 573 264 610 q 209 494 224 536 q 185 402 194 451 q 176 295 176 353 q 185 199 176 238 q 210 136 195 160 q 245 103 226 113 q 283 93 264 93 q 331 106 310 93 q 369 143 353 119 q 398 200 386 167 q 415 273 409 233 l 440 472 l 571 472 l 548 288 l 549 288 q 545 209 543 244 q 557 147 547 173 q 586 107 567 122 q 633 93 605 93 q 691 107 660 93 q 746 157 721 122 q 789 250 772 192 q 806 396 806 308 q 801 467 806 431 q 790 537 797 503 q 774 600 783 571 q 759 647 766 628 q 757 674 754 663 q 767 692 760 685 q 782 702 774 699 q 798 706 791 706 l 891 706 z "},"΄":{"ha":511,"x_min":307,"x_max":483,"o":"m 307 797 l 376 1040 l 453 1040 q 477 1027 472 1040 q 474 993 483 1015 l 381 797 l 307 797 z "},"΅":{"ha":511,"x_min":154,"x_max":612,"o":"m 306 801 l 375 1044 l 453 1044 q 476 1032 471 1044 q 472 997 481 1019 l 380 801 l 306 801 m 610 893 q 602 867 609 879 q 586 845 596 854 q 564 830 576 835 q 539 825 551 825 q 496 845 513 825 q 483 893 480 865 q 491 920 485 908 q 507 942 497 933 q 529 958 517 952 q 554 963 541 963 q 578 958 567 963 q 597 942 589 952 q 608 920 605 933 q 610 893 612 908 m 283 893 q 275 867 281 879 q 258 845 268 854 q 236 830 248 835 q 210 825 224 825 q 187 830 198 825 q 169 845 176 835 q 158 867 161 854 q 156 893 154 879 q 164 920 157 908 q 180 942 170 933 q 201 958 190 952 q 226 963 213 963 q 250 958 239 963 q 269 942 261 952 q 280 920 276 933 q 283 893 284 908 z "},"ʹ":{"ha":278,"x_min":108,"x_max":314,"o":"m 306 1048 q 277 847 314 944 q 157 667 240 750 l 120 694 q 109 712 108 701 q 116 731 109 722 q 153 780 136 756 q 178 830 169 805 q 188 882 188 856 q 176 939 188 909 l 185 1012 q 196 1038 187 1028 q 224 1048 206 1048 l 306 1048 z "},"͵":{"ha":280,"x_min":17,"x_max":222,"o":"m 215 233 q 185 33 222 130 q 65 -147 149 -65 l 28 -121 q 17 -103 17 -113 q 24 -84 17 -92 q 61 -34 44 -59 q 87 16 78 -10 q 96 68 96 41 q 84 124 97 94 l 93 197 q 105 223 95 213 q 133 233 114 233 l 215 233 z "},"Б":{"ha":810,"x_min":64,"x_max":792,"o":"m 263 458 l 220 113 l 387 113 q 481 127 441 113 q 546 168 520 142 q 585 232 572 194 q 598 318 598 270 q 589 377 598 351 q 559 421 579 403 q 506 448 538 439 q 430 458 474 458 l 263 458 m 315 885 l 276 571 l 444 571 q 578 553 522 571 q 670 504 634 535 q 724 430 707 473 q 741 337 741 387 q 716 199 741 260 q 643 92 690 137 q 527 24 595 48 q 373 0 459 0 l 64 0 l 186 997 l 792 997 l 778 885 l 315 885 z "},"Г":{"ha":701,"x_min":64,"x_max":744,"o":"m 731 885 l 315 885 l 207 0 l 64 0 l 186 997 l 744 997 l 731 885 z "},"Ґ":{"ha":701,"x_min":64,"x_max":772,"o":"m 731 885 l 315 885 l 207 0 l 64 0 l 186 997 l 634 997 l 662 1222 l 772 1222 l 731 885 z "},"Д":{"ha":1019,"x_min":-67,"x_max":952,"o":"m 661 112 l 756 885 l 474 885 q 416 592 445 718 q 356 373 386 466 q 293 216 325 280 q 230 112 262 153 l 661 112 m 952 112 l 914 -199 q 897 -230 911 -218 q 863 -242 883 -242 l 778 -242 l 808 0 l 93 0 l 68 -199 q 52 -230 66 -218 q 17 -242 38 -242 l -67 -242 l -24 112 l 70 112 q 113 145 90 122 q 158 212 135 169 q 205 320 181 255 q 253 481 228 386 q 303 703 278 576 q 353 997 328 831 l 913 997 l 805 112 l 952 112 z "},"Ж":{"ha":1348,"x_min":-41,"x_max":1385,"o":"m 1081 601 q 1037 552 1059 572 q 985 522 1015 533 q 1040 490 1017 512 q 1079 431 1063 468 l 1285 0 l 1191 0 q 1139 14 1160 0 q 1108 51 1118 28 l 935 399 q 901 441 921 428 q 848 454 881 454 l 744 454 l 689 0 l 555 0 l 610 454 l 508 454 q 452 441 475 454 q 408 399 428 428 l 150 51 q 109 14 133 28 q 54 0 85 0 l -41 0 l 272 431 q 325 490 297 468 q 388 522 353 512 q 343 552 360 533 q 310 601 326 572 l 104 997 l 216 997 q 256 986 238 997 q 282 956 273 975 l 453 614 q 489 574 469 583 q 537 564 509 564 l 624 564 l 677 997 l 811 997 l 758 564 l 846 564 q 896 574 874 564 q 942 614 919 583 l 1197 956 q 1231 986 1211 975 q 1273 997 1251 997 l 1385 997 l 1081 601 z "},"З":{"ha":748,"x_min":-10,"x_max":699,"o":"m 121 904 q 259 980 183 953 q 423 1007 335 1007 q 540 990 489 1007 q 627 942 592 973 q 681 870 663 912 q 699 778 699 828 q 653 627 699 692 q 524 530 606 562 q 632 446 593 501 q 670 320 670 392 q 645 192 670 252 q 572 87 619 132 q 457 16 524 42 q 306 -10 390 -10 q 208 0 254 -10 q 121 26 161 9 q 48 68 81 44 q -10 122 15 92 l 39 189 q 54 202 45 197 q 74 208 63 208 q 106 192 88 208 q 150 158 124 177 q 215 124 176 140 q 311 109 254 109 q 406 124 364 109 q 476 165 447 138 q 520 231 505 192 q 535 317 535 269 q 524 379 535 351 q 490 427 513 407 q 434 458 467 447 q 358 469 401 469 l 233 469 l 247 587 l 367 587 q 446 598 410 587 q 509 632 483 610 q 549 685 535 653 q 564 758 564 717 q 524 853 564 816 q 406 890 485 890 q 318 878 356 890 q 254 852 281 866 q 208 826 226 838 q 177 814 190 814 q 159 819 166 814 q 148 836 153 825 l 121 904 z "},"И":{"ha":988,"x_min":64,"x_max":942,"o":"m 942 997 l 820 0 l 677 0 l 761 681 q 770 745 765 712 q 785 815 776 778 q 753 755 770 783 q 721 705 737 727 l 240 44 q 209 14 228 28 q 169 0 191 0 l 64 0 l 186 997 l 329 997 l 246 317 q 236 252 242 286 q 220 181 230 218 q 253 242 236 214 q 286 292 270 270 l 767 953 q 797 983 779 969 q 836 997 815 997 l 942 997 z "},"К":{"ha":876,"x_min":64,"x_max":914,"o":"m 597 589 q 556 548 578 564 q 507 523 533 532 q 563 491 542 513 q 603 430 585 469 l 815 0 l 687 0 q 653 11 666 0 q 630 44 640 22 l 450 405 q 436 428 444 419 q 420 443 429 438 q 398 452 410 449 q 369 454 385 454 l 262 454 l 206 0 l 64 0 l 186 997 l 328 997 l 276 564 l 367 564 q 416 573 395 564 q 459 611 437 583 l 726 958 q 756 986 740 975 q 793 997 773 997 l 914 997 l 597 589 z "},"Л":{"ha":946,"x_min":-51,"x_max":901,"o":"m 778 0 l 635 0 l 744 885 l 462 885 q 397 552 430 693 q 330 313 364 412 q 260 150 295 213 q 186 52 224 88 q 109 3 149 17 q 26 -10 69 -10 q -47 19 -51 -10 l -37 109 l 10 109 q 47 115 28 109 q 85 136 65 120 q 125 180 105 151 q 166 253 145 208 q 208 365 186 299 q 251 522 229 431 q 295 730 273 612 q 340 997 317 847 l 901 997 l 778 0 z "},"Љ":{"ha":1363,"x_min":-51,"x_max":1313,"o":"m 958 113 q 1052 127 1013 113 q 1118 168 1092 142 q 1157 232 1144 194 q 1169 318 1169 270 q 1160 377 1169 351 q 1130 421 1151 403 q 1078 448 1110 439 q 1001 458 1046 458 l 835 458 l 792 113 l 958 113 m 1015 571 q 1149 553 1093 571 q 1242 504 1206 535 q 1295 430 1278 473 q 1313 337 1313 387 q 1287 199 1313 260 q 1214 92 1262 137 q 1099 24 1167 48 q 944 0 1031 0 l 635 0 l 744 885 l 462 885 q 397 552 430 693 q 330 313 364 412 q 260 150 295 213 q 186 52 224 88 q 109 3 149 17 q 26 -10 69 -10 q -47 19 -51 -10 l -37 109 l 10 109 q 47 115 28 109 q 85 136 65 120 q 125 180 105 151 q 166 253 145 208 q 208 365 186 299 q 251 522 229 431 q 295 730 273 612 q 340 997 317 847 l 901 997 l 849 571 l 1015 571 z "},"Њ":{"ha":1402,"x_min":65,"x_max":1351,"o":"m 998 113 q 1092 127 1052 113 q 1157 168 1131 142 q 1196 232 1183 194 q 1209 318 1209 270 q 1200 377 1209 351 q 1170 421 1190 403 q 1117 448 1149 439 q 1040 458 1085 458 l 877 458 l 835 113 l 998 113 m 1055 571 q 1189 553 1133 571 q 1281 504 1245 535 q 1334 430 1317 473 q 1351 337 1351 387 q 1326 199 1351 260 q 1253 92 1301 137 q 1138 24 1206 48 q 984 0 1070 0 l 677 0 l 733 451 l 263 451 l 208 0 l 65 0 l 187 997 l 331 997 l 276 554 l 745 554 l 800 997 l 944 997 l 891 571 l 1055 571 z "},"Ѳ":{"ha":1038,"x_min":65,"x_max":992,"o":"m 211 453 l 211 432 q 230 299 211 358 q 283 197 248 239 q 368 132 318 155 q 481 109 418 109 q 610 133 551 109 q 716 201 670 157 q 793 310 763 246 q 838 453 824 374 l 211 453 m 846 565 q 827 699 846 639 q 773 801 808 758 q 688 866 738 843 q 574 889 638 889 q 450 866 508 889 q 347 801 392 844 q 269 698 301 759 q 223 562 238 638 l 846 562 l 846 565 m 592 1008 q 758 975 684 1008 q 885 884 833 942 q 965 744 937 825 q 992 569 992 664 q 952 336 992 442 q 842 153 913 230 q 675 33 772 76 q 466 -10 579 -10 q 299 23 373 -10 q 173 114 225 56 q 93 252 121 172 q 65 428 65 333 q 83 588 65 512 q 135 728 101 664 q 216 845 168 793 q 322 933 263 897 q 448 989 380 969 q 592 1008 517 1008 z "},"П":{"ha":953,"x_min":64,"x_max":908,"o":"m 785 0 l 642 0 l 751 885 l 315 885 l 207 0 l 64 0 l 186 997 l 908 997 l 785 0 z "},"У":{"ha":822,"x_min":71,"x_max":885,"o":"m 885 997 l 406 131 q 359 63 383 90 q 310 19 335 35 q 258 -3 285 3 q 204 -10 232 -10 q 139 -1 160 -10 q 120 30 118 8 l 130 109 l 176 109 q 211 113 195 109 q 243 126 228 117 q 272 151 258 135 q 299 192 285 167 l 354 290 l 71 997 l 201 997 q 230 988 220 997 q 246 964 240 978 l 400 526 q 416 469 409 497 q 428 413 423 442 q 452 469 439 441 q 480 526 465 497 l 713 964 q 733 986 720 976 q 765 997 747 997 l 885 997 z "},"Ѵ":{"ha":909,"x_min":72,"x_max":959,"o":"m 699 865 q 777 968 729 935 q 896 1001 824 1001 q 930 1000 917 1001 q 950 994 943 999 q 958 983 956 990 q 958 965 959 976 l 948 884 l 913 884 q 861 866 885 884 q 822 811 838 848 l 452 0 l 324 0 l 72 997 l 183 997 q 213 988 202 997 q 228 963 224 978 l 386 276 q 398 223 392 251 q 406 163 403 194 q 428 223 416 194 q 451 276 440 251 l 699 865 z "},"Ф":{"ha":1019,"x_min":58,"x_max":985,"o":"m 554 232 q 669 260 616 233 q 760 331 722 286 q 820 435 799 376 q 842 560 842 494 q 827 657 842 611 q 784 736 813 702 q 716 791 756 771 q 626 813 676 812 l 554 232 m 490 813 q 375 785 428 812 q 284 715 322 759 q 223 611 245 670 q 201 486 201 552 q 216 389 201 435 q 259 309 231 343 q 327 253 287 274 q 419 232 367 233 l 490 813 m 639 925 q 782 893 718 922 q 891 815 847 863 q 960 702 936 766 q 985 566 985 638 q 969 450 985 506 q 926 345 954 394 q 857 255 897 296 q 768 185 817 215 q 661 139 719 156 q 540 120 603 122 l 526 0 l 390 0 l 405 120 q 261 152 326 122 q 152 230 197 181 q 83 343 107 279 q 58 480 58 408 q 93 650 58 570 q 187 790 127 730 q 328 886 247 851 q 503 925 410 922 l 518 1042 l 653 1042 l 639 925 z "},"Ц":{"ha":1008,"x_min":64,"x_max":936,"o":"m 936 112 l 898 -199 q 882 -230 896 -218 q 847 -242 867 -242 l 763 -242 l 792 0 l 64 0 l 186 997 l 329 997 l 221 112 l 656 112 l 765 997 l 908 997 l 799 112 l 936 112 z "},"Џ":{"ha":953,"x_min":64,"x_max":908,"o":"m 908 997 l 785 0 l 490 0 l 465 -199 q 449 -230 463 -218 q 415 -242 435 -242 l 330 -242 l 359 0 l 64 0 l 186 997 l 329 997 l 221 112 l 656 112 l 765 997 l 908 997 z "},"Ч":{"ha":860,"x_min":80,"x_max":815,"o":"m 815 997 l 692 0 l 549 0 l 602 426 q 455 393 526 405 q 325 383 385 381 q 217 400 265 384 q 138 450 169 416 q 93 539 106 484 q 90 671 80 593 l 129 997 l 273 997 l 233 670 q 242 562 224 603 q 306 503 260 520 q 428 493 352 486 q 615 529 505 500 l 672 997 l 815 997 z "},"Ш":{"ha":1388,"x_min":64,"x_max":1343,"o":"m 1343 997 l 1221 0 l 64 0 l 186 997 l 329 997 l 221 112 l 583 112 l 692 997 l 835 997 l 726 112 l 1092 112 l 1200 997 l 1343 997 z "},"Щ":{"ha":1444,"x_min":64,"x_max":1371,"o":"m 1371 112 l 1333 -199 q 1317 -230 1331 -218 q 1283 -242 1303 -242 l 1197 -242 l 1227 0 l 64 0 l 186 997 l 329 997 l 221 112 l 583 112 l 692 997 l 835 997 l 726 112 l 1092 112 l 1200 997 l 1343 997 l 1235 112 l 1371 112 z "},"Ъ":{"ha":956,"x_min":72,"x_max":907,"o":"m 553 113 q 647 127 607 113 q 712 168 686 142 q 751 232 738 194 q 764 318 764 270 q 755 377 764 351 q 725 421 745 403 q 672 448 704 439 q 596 458 640 458 l 428 458 l 386 113 l 553 113 m 610 571 q 744 553 688 571 q 836 504 800 535 q 890 430 873 473 q 907 337 907 387 q 882 199 907 260 q 809 92 856 137 q 693 24 761 48 q 539 0 625 0 l 230 0 l 338 881 l 72 881 l 86 997 l 494 997 l 442 571 l 610 571 z "},"Ы":{"ha":1146,"x_min":64,"x_max":1100,"o":"m 387 113 q 481 127 441 113 q 546 168 520 142 q 585 232 572 194 q 598 318 598 270 q 589 377 598 351 q 559 421 579 403 q 506 448 538 439 q 430 458 474 458 l 263 458 l 220 113 l 387 113 m 444 571 q 578 553 522 571 q 670 504 634 535 q 724 430 707 473 q 741 337 741 387 q 716 199 741 260 q 643 92 690 137 q 527 24 595 48 q 373 0 459 0 l 64 0 l 186 997 l 328 997 l 276 571 l 444 571 m 978 0 l 835 0 l 956 997 l 1100 997 l 978 0 z "},"Ь":{"ha":792,"x_min":64,"x_max":741,"o":"m 387 113 q 481 127 441 113 q 546 168 520 142 q 585 232 572 194 q 598 318 598 270 q 589 377 598 351 q 559 421 579 403 q 506 448 538 439 q 430 458 474 458 l 263 458 l 220 113 l 387 113 m 444 571 q 578 553 522 571 q 670 504 634 535 q 724 430 707 473 q 741 337 741 387 q 716 199 741 260 q 643 92 690 137 q 527 24 595 48 q 373 0 459 0 l 64 0 l 186 997 l 328 997 l 276 571 l 444 571 z "},"Э":{"ha":870,"x_min":1,"x_max":822,"o":"m 106 883 q 252 975 172 942 q 432 1008 332 1008 q 595 976 522 1008 q 718 885 667 943 q 795 747 768 827 q 822 570 822 666 q 785 336 822 443 q 682 153 749 230 q 523 32 615 76 q 319 -11 431 -11 q 215 -1 263 -11 q 129 29 168 10 q 58 76 90 49 q 1 139 26 104 l 65 201 q 86 210 74 210 q 109 199 99 210 q 151 159 130 176 q 198 132 173 142 q 254 116 224 122 q 322 111 284 111 q 439 134 383 111 q 542 201 496 157 q 621 308 588 244 q 667 453 653 372 l 215 453 l 228 562 l 676 562 l 676 565 q 658 698 676 638 q 606 799 640 757 q 524 864 572 841 q 417 886 476 886 q 319 873 360 886 q 250 844 278 860 q 202 815 221 828 q 171 802 183 802 q 153 807 159 802 q 143 819 147 812 l 106 883 z "},"Є":{"ha":869,"x_min":65,"x_max":876,"o":"m 799 140 q 648 28 735 68 q 449 -11 562 -11 q 288 21 359 -11 q 167 111 217 53 q 91 248 117 169 q 65 423 65 328 q 105 660 65 552 q 214 845 144 767 q 378 965 283 922 q 583 1008 472 1008 q 755 974 681 1008 q 876 881 828 939 l 822 815 q 809 803 816 808 q 790 799 801 799 q 762 812 777 799 q 723 841 747 825 q 661 871 699 858 q 567 884 624 884 q 449 862 505 884 q 348 799 392 840 q 270 697 303 757 q 224 562 238 638 l 675 562 l 661 453 l 212 453 l 212 435 q 231 300 212 360 q 285 198 251 240 q 368 133 320 156 q 472 111 415 111 q 541 116 510 111 q 600 132 572 122 q 653 160 628 143 q 705 199 678 176 q 728 210 716 208 q 750 201 740 213 l 799 140 l 799 140 z "},"Ю":{"ha":1377,"x_min":65,"x_max":1329,"o":"m 851 110 q 986 142 925 110 q 1092 235 1048 175 q 1159 382 1135 296 q 1183 573 1183 467 q 1167 703 1183 644 q 1121 802 1151 761 q 1047 866 1091 843 q 947 888 1003 888 q 811 855 872 888 q 706 761 749 822 q 638 614 662 700 q 613 424 613 528 q 629 293 613 351 q 676 195 645 235 q 750 132 706 154 q 851 110 794 110 m 479 554 q 539 739 497 655 q 644 882 582 822 q 788 975 707 942 q 961 1008 868 1008 q 1116 976 1047 1008 q 1232 886 1184 944 q 1304 749 1279 828 q 1329 576 1329 669 q 1292 341 1329 448 q 1190 156 1256 233 q 1034 34 1124 78 q 836 -10 944 -10 q 681 23 749 -10 q 565 112 613 55 q 493 249 518 169 q 468 422 468 328 l 468 442 l 262 442 l 208 0 l 65 0 l 186 997 l 330 997 l 276 554 l 479 554 z "},"Я":{"ha":865,"x_min":-54,"x_max":819,"o":"m 620 540 l 663 883 l 492 883 q 332 830 384 883 q 281 682 281 777 q 290 622 281 649 q 320 577 299 596 q 372 549 340 559 q 449 540 403 540 l 620 540 m 697 0 l 554 0 l 606 426 l 494 426 q 462 423 477 426 q 432 412 447 420 q 402 390 417 404 q 372 353 388 376 l 149 51 q 109 14 133 28 q 53 0 85 0 l -54 0 l 217 362 q 324 451 265 425 q 242 483 276 462 q 185 533 208 504 q 151 599 162 563 q 140 676 140 635 q 165 807 140 748 q 237 908 190 866 q 352 974 285 951 q 506 997 420 997 l 819 997 l 697 0 z "},"Ђ":{"ha":965,"x_min":76,"x_max":917,"o":"m 619 571 q 754 553 698 571 q 847 504 810 535 q 900 430 883 473 q 917 337 917 387 q 891 199 917 260 q 819 92 866 137 q 703 24 772 48 q 549 0 635 0 l 490 0 l 504 113 l 563 113 q 656 127 617 113 q 722 168 696 142 q 761 232 749 194 q 774 318 774 270 q 765 377 774 351 q 735 421 755 403 q 682 448 715 439 q 606 458 650 458 l 417 458 l 361 0 l 219 0 l 327 882 l 76 882 l 90 997 l 765 997 l 751 882 l 469 882 l 431 571 l 619 571 z "},"Ћ":{"ha":967,"x_min":76,"x_max":908,"o":"m 431 567 q 573 598 506 587 q 695 608 640 610 q 792 590 750 606 q 861 540 834 574 q 898 451 888 506 q 899 319 908 397 l 860 -1 l 717 -1 l 756 320 q 752 428 765 387 q 700 488 740 470 q 592 499 661 505 q 418 463 523 492 l 361 0 l 219 0 l 327 882 l 76 882 l 90 997 l 765 997 l 751 882 l 470 882 l 431 567 z "},"Ѣ":{"ha":940,"x_min":74,"x_max":888,"o":"m 534 113 q 628 127 588 113 q 693 168 667 142 q 732 232 719 194 q 745 318 745 270 q 736 377 745 351 q 706 421 726 403 q 653 448 685 439 q 577 458 622 458 l 410 458 l 367 113 l 534 113 m 591 571 q 725 553 669 571 q 818 504 781 535 q 871 430 854 473 q 888 337 888 387 q 863 199 888 260 q 790 92 838 137 q 674 24 742 48 q 520 0 606 0 l 211 0 l 301 738 l 74 738 l 87 846 l 315 846 l 333 997 l 476 997 l 457 846 l 736 846 l 723 738 l 444 738 l 424 571 l 591 571 z "},"б":{"ha":751,"x_min":69,"x_max":742,"o":"m 443 593 q 346 566 390 593 q 270 494 302 538 q 219 393 238 449 q 201 280 201 337 q 237 139 201 187 q 335 92 272 92 q 428 121 386 92 q 499 199 469 151 q 545 307 529 247 q 562 431 562 368 q 531 552 562 511 q 443 593 501 593 m 742 1047 l 742 978 q 731 940 742 956 q 698 918 720 924 l 505 888 q 400 857 446 878 q 321 808 355 837 q 263 744 287 779 q 224 669 240 708 q 199 588 208 630 q 185 504 190 546 q 239 581 208 546 q 310 640 271 615 q 394 677 349 664 q 490 691 440 691 q 572 676 534 691 q 638 631 610 661 q 681 553 665 600 q 697 442 697 506 q 684 331 697 386 q 650 225 672 276 q 595 132 627 175 q 522 58 563 89 q 432 8 481 26 q 328 -10 383 -10 q 226 9 274 -10 q 144 70 179 28 q 89 178 109 112 q 69 338 69 244 q 75 459 69 393 q 96 593 81 525 q 139 727 111 661 q 212 847 167 792 q 321 942 257 902 q 474 997 385 981 l 742 1047 z "},"в":{"ha":663,"x_min":36,"x_max":597,"o":"m 170 303 q 170 294 170 299 q 169 285 169 290 q 176 205 168 241 q 202 144 185 169 q 246 105 219 118 q 309 92 273 91 q 371 105 342 93 q 420 138 399 117 q 453 185 441 158 q 465 240 465 211 q 457 285 465 265 q 430 319 449 306 q 381 336 411 332 q 306 332 351 340 l 170 303 m 299 413 q 393 440 358 424 q 448 473 428 455 q 473 509 467 490 q 480 547 480 528 q 476 575 480 562 q 462 599 472 589 q 436 616 452 610 q 397 622 421 622 q 324 605 358 622 q 262 555 290 587 q 213 481 234 524 q 181 387 192 438 l 299 413 m 425 389 q 492 377 462 388 q 545 349 523 367 q 579 304 567 331 q 591 242 591 277 q 569 149 591 194 q 509 68 548 103 q 416 11 470 33 q 294 -10 361 -10 q 183 10 231 -10 q 102 66 135 30 q 53 154 69 103 q 36 267 36 205 q 49 381 36 325 q 85 486 62 437 q 143 578 109 536 q 218 651 176 620 q 310 698 260 681 q 414 715 359 715 q 495 703 460 715 q 552 672 529 692 q 585 626 574 652 q 597 572 597 600 q 586 519 597 545 q 556 468 576 492 q 502 424 535 444 q 425 389 470 404 z "},"г":{"ha":564,"x_min":13,"x_max":516,"o":"m 313 715 q 390 706 353 715 q 455 676 427 696 q 499 627 483 656 q 516 558 516 598 q 500 491 516 522 q 458 433 484 460 q 399 383 432 406 q 331 339 366 360 q 264 297 297 317 q 205 256 231 277 q 163 214 178 235 q 147 167 147 192 q 175 117 147 138 q 253 97 203 97 q 314 106 286 97 q 365 126 342 115 q 404 146 388 137 q 431 156 421 156 q 448 152 442 156 q 460 140 455 149 l 492 92 q 369 16 438 42 q 231 -10 300 -10 q 139 3 180 -10 q 70 38 99 16 q 27 91 42 60 q 13 156 13 121 q 28 226 13 194 q 71 285 44 258 q 131 338 97 313 q 199 384 164 362 q 267 426 234 406 q 327 467 301 447 q 369 507 353 487 q 385 549 385 527 q 363 591 385 574 q 297 609 340 609 q 242 601 267 609 q 197 584 217 593 q 160 566 176 574 q 134 558 144 558 q 122 561 128 558 q 110 576 115 565 l 81 631 q 131 666 103 651 q 189 692 159 681 q 250 709 219 703 q 313 715 282 715 z "},"ґ":{"ha":534,"x_min":-28,"x_max":592,"o":"m 592 878 l 537 610 l 397 610 q 322 577 350 610 q 281 474 293 545 l 233 200 q 164 48 215 101 q 25 -6 113 -6 q -16 -1 -4 -6 q -26 19 -28 5 l -17 97 l -3 97 q 66 124 38 97 q 103 206 94 151 l 151 469 q 232 650 172 594 q 385 706 291 706 l 442 706 l 470 821 q 541 878 485 878 l 592 878 z "},"д":{"ha":733,"x_min":40,"x_max":675,"o":"m 542 550 q 486 593 520 576 q 408 609 451 609 q 311 583 355 609 q 238 512 268 556 q 191 410 208 468 q 175 287 175 351 q 185 202 175 238 q 213 143 194 166 q 255 108 231 119 q 310 97 280 97 q 399 124 357 97 q 473 205 441 150 q 523 346 504 260 q 542 550 542 432 l 542 550 m 178 1001 q 384 996 292 1014 q 541 925 476 978 q 640 779 606 872 q 675 548 675 686 q 645 311 675 415 q 563 136 615 207 q 441 27 510 65 q 294 -10 372 -10 q 192 9 239 -10 q 111 66 145 28 q 58 159 77 103 q 40 288 40 215 q 64 443 40 367 q 133 577 88 518 q 240 672 177 636 q 379 708 302 708 q 475 689 433 708 q 550 635 517 670 q 516 767 542 714 q 446 852 490 820 q 340 897 402 885 q 198 908 278 910 q 174 915 180 908 q 171 939 169 923 l 178 1001 z "},"ж":{"ha":1212,"x_min":-10,"x_max":1204,"o":"m 649 293 q 716 407 680 352 q 791 508 752 461 q 870 593 830 555 q 947 658 910 631 q 1019 700 985 685 q 1082 715 1053 715 q 1144 705 1114 715 q 1204 668 1174 694 l 1172 612 q 1157 595 1165 599 q 1142 590 1149 590 q 1129 592 1135 590 q 1115 598 1122 594 q 1097 603 1107 601 q 1076 606 1088 606 q 1015 580 1045 606 q 961 509 985 555 q 923 399 938 463 q 908 258 908 335 q 913 182 908 213 q 928 133 918 151 q 952 106 938 114 q 986 97 967 97 q 1015 102 1002 97 q 1039 114 1028 108 q 1058 125 1050 120 q 1073 131 1067 131 q 1088 129 1081 131 q 1099 118 1094 126 l 1129 60 q 1086 27 1109 40 q 1041 6 1064 14 q 997 -6 1019 -3 q 956 -10 975 -10 q 889 3 919 -10 q 838 43 859 17 q 805 111 816 70 q 793 206 793 151 q 805 333 793 272 q 839 447 817 393 q 776 364 808 410 q 716 267 744 319 q 663 159 687 215 q 623 46 639 103 l 618 -1 l 504 -1 l 547 414 q 442 248 500 325 q 325 113 384 170 q 210 23 266 56 q 113 -10 155 -10 q 50 1 80 -10 q -10 38 20 12 l 23 94 q 38 111 30 107 q 53 116 45 115 q 66 114 59 116 q 80 109 72 112 q 97 103 88 106 q 119 101 107 101 q 180 126 149 101 q 233 197 210 151 q 272 307 257 243 q 286 449 286 371 q 281 524 286 493 q 266 573 276 554 q 242 601 256 592 q 208 609 227 609 q 178 604 192 609 q 155 592 165 599 q 136 581 144 586 q 122 575 128 576 q 107 577 114 575 q 95 588 100 580 l 65 646 q 108 678 85 665 q 153 700 131 692 q 198 712 176 708 q 238 715 219 715 q 306 702 276 715 q 357 662 335 689 q 390 595 378 635 q 401 500 401 554 q 390 374 401 434 q 356 260 378 313 q 419 344 387 297 q 480 442 451 390 q 532 551 508 494 q 572 667 556 608 l 576 706 l 691 706 l 649 293 z "},"з":{"ha":604,"x_min":-13,"x_max":549,"o":"m 76 617 q 124 657 96 638 q 185 688 151 675 q 257 709 219 701 q 335 717 295 717 q 432 703 391 717 q 498 666 472 689 q 537 615 524 644 q 549 555 549 585 q 541 504 549 530 q 515 455 533 478 q 467 413 497 432 q 395 383 438 394 q 492 331 459 371 q 526 233 526 292 q 507 145 526 189 q 449 68 488 102 q 354 12 411 33 q 222 -10 297 -10 q 93 12 152 -10 q -13 78 35 34 l 21 134 q 32 147 25 141 q 49 152 40 152 q 76 143 62 152 q 109 122 90 133 q 157 101 129 110 q 228 92 185 92 q 302 103 269 92 q 357 133 334 114 q 391 179 379 153 q 402 236 402 206 q 368 310 402 288 q 272 333 334 333 q 224 330 251 333 q 173 323 197 326 q 175 374 173 349 q 187 424 177 398 q 224 419 206 421 q 262 417 242 417 q 335 426 304 417 q 387 452 367 436 q 418 488 408 467 q 428 530 428 508 q 422 563 428 547 q 401 590 415 578 q 364 608 387 601 q 310 615 342 615 q 238 606 267 615 q 188 585 208 597 q 155 565 168 574 q 132 555 142 556 q 117 556 123 553 q 103 571 111 559 l 76 617 z "},"и":{"ha":740,"x_min":55,"x_max":685,"o":"m 685 706 l 599 0 l 532 0 q 483 49 483 0 l 491 164 q 368 34 436 78 q 227 -10 299 -10 q 148 8 183 -10 q 92 60 114 26 q 63 143 71 94 q 63 257 55 193 l 116 706 l 251 706 l 198 257 q 207 140 188 178 q 278 103 226 103 q 342 120 309 103 q 405 168 374 137 q 461 244 435 199 q 506 342 488 288 l 549 706 l 685 706 z "},"к":{"ha":677,"x_min":38,"x_max":669,"o":"m 443 585 q 483 641 466 617 q 518 678 501 664 q 558 700 536 693 q 611 707 580 707 l 669 707 l 655 636 q 643 615 651 620 q 622 607 634 610 q 595 597 610 604 q 567 571 581 590 l 470 442 q 430 398 449 413 q 378 374 410 382 q 445 345 419 367 q 487 282 470 323 l 612 0 l 534 0 q 482 12 499 0 q 453 46 465 24 l 357 260 q 325 305 347 288 q 276 322 303 322 l 205 309 l 167 0 l 38 0 l 123 706 l 253 706 l 216 398 l 271 410 q 294 416 284 413 q 313 424 305 419 q 329 436 322 429 q 344 454 336 444 l 443 585 z "},"л":{"ha":756,"x_min":-21,"x_max":701,"o":"m 181 378 q 233 528 203 466 q 308 630 263 590 q 414 688 352 669 q 563 706 476 706 l 701 706 l 615 0 l 485 0 l 558 603 l 535 603 q 452 591 488 603 q 390 553 417 580 q 345 482 364 526 q 310 372 326 438 q 257 190 285 263 q 196 73 229 117 q 124 9 163 28 q 38 -10 85 -10 q -8 -4 4 -10 q -19 16 -21 2 l -10 94 l 13 94 q 67 108 44 94 q 109 157 90 123 q 144 245 128 190 q 181 378 161 299 z "},"љ":{"ha":1091,"x_min":-21,"x_max":1042,"o":"m 644 162 q 664 108 640 130 q 737 85 688 85 q 806 104 773 85 q 863 152 838 123 q 901 219 887 182 q 916 293 916 256 q 912 330 916 313 q 898 360 908 347 q 873 382 889 374 q 834 390 858 390 q 771 372 803 390 q 714 327 740 355 q 669 264 688 299 q 647 194 651 229 l 644 162 m 668 367 q 715 416 690 394 q 769 453 741 438 q 825 477 797 469 q 879 485 853 485 q 947 473 917 485 q 998 438 977 460 q 1030 383 1019 415 q 1042 313 1042 351 q 1014 189 1042 248 q 939 86 986 131 q 828 16 891 42 q 697 -10 766 -10 q 549 39 595 -10 q 513 172 503 88 l 565 603 l 549 603 q 464 591 501 603 q 397 553 426 580 q 347 482 368 526 q 310 372 326 438 q 257 190 285 263 q 196 73 229 117 q 124 9 163 28 q 38 -10 85 -10 q -8 -4 4 -10 q -19 16 -21 2 l -10 94 l 13 94 q 67 108 44 94 q 109 157 90 123 q 144 245 128 190 q 181 378 161 299 q 236 528 203 466 q 315 630 268 590 q 426 688 362 669 q 576 706 490 706 l 710 706 l 668 367 z "},"м":{"ha":973,"x_min":-1,"x_max":919,"o":"m 919 708 l 832 0 l 710 0 l 769 472 q 774 505 771 487 q 782 540 778 522 l 489 43 q 471 25 481 32 q 448 19 461 19 l 429 19 q 408 25 417 19 q 395 43 399 32 l 247 537 q 240 496 244 517 q 233 458 237 474 q 214 355 223 406 q 193 254 204 305 q 167 151 181 203 q 134 42 153 99 q 114 11 128 22 q 79 0 100 0 l -1 0 q 96 341 51 165 q 174 708 142 517 l 281 708 q 309 702 295 708 q 328 678 322 696 l 462 269 q 472 235 467 251 q 479 203 476 218 q 489 227 483 215 q 501 251 494 239 l 751 678 q 776 702 763 696 q 804 708 790 708 l 919 708 z "},"н":{"ha":738,"x_min":38,"x_max":683,"o":"m 683 706 l 598 0 l 463 0 l 501 319 l 211 319 l 173 0 l 38 0 l 122 706 l 258 706 l 224 419 l 513 419 l 547 706 l 683 706 z "},"њ":{"ha":1060,"x_min":38,"x_max":1011,"o":"m 613 162 q 634 108 610 130 q 706 85 658 85 q 775 104 742 85 q 832 152 808 123 q 871 219 856 182 q 885 293 885 256 q 881 330 885 313 q 868 360 877 347 q 843 382 858 374 q 803 390 827 390 q 741 372 772 390 q 683 327 709 355 q 639 264 657 299 q 617 194 621 229 l 613 162 m 638 367 q 685 416 659 394 q 738 453 710 438 q 794 477 766 469 q 849 485 822 485 q 916 473 886 485 q 967 438 947 460 q 1000 383 988 415 q 1011 313 1011 351 q 983 189 1011 248 q 908 86 956 131 q 798 16 860 42 q 666 -10 735 -10 q 519 39 565 -10 q 483 172 473 88 l 501 322 l 212 322 l 173 0 l 38 0 l 122 706 l 258 706 l 224 422 l 513 422 l 547 706 l 679 706 l 638 367 z "},"ѳ":{"ha":722,"x_min":39,"x_max":667,"o":"m 170 313 q 169 298 169 305 q 169 283 169 290 q 206 136 169 185 q 315 88 243 88 q 388 105 354 88 q 448 152 422 122 q 494 224 475 183 q 524 313 514 265 l 170 313 m 535 400 q 536 412 536 406 q 536 424 536 418 q 499 570 536 522 q 391 619 463 619 q 319 602 352 619 q 259 556 285 585 q 213 486 232 526 q 183 400 194 447 l 535 400 m 402 716 q 508 696 460 716 q 592 639 557 676 q 647 547 627 601 q 667 423 667 492 q 639 255 667 334 q 561 117 610 176 q 446 24 513 58 q 303 -10 380 -10 q 197 10 246 -10 q 114 67 149 30 q 59 159 78 105 q 39 284 39 214 q 67 452 39 374 q 144 590 95 531 q 259 682 193 649 q 402 716 326 716 z "},"п":{"ha":740,"x_min":38,"x_max":668,"o":"m 227 537 q 353 671 283 626 q 496 716 422 716 q 575 698 540 716 q 631 647 609 681 q 660 563 652 613 q 660 449 668 513 l 607 0 l 472 0 l 525 449 q 516 566 535 529 q 445 603 497 603 q 380 586 413 603 q 316 536 347 568 q 258 458 285 503 q 213 356 231 412 l 174 0 l 38 0 l 122 707 l 190 707 q 224 696 213 707 q 236 661 236 685 l 227 537 z "},"т":{"ha":1095,"x_min":38,"x_max":1031,"o":"m 38 0 l 123 707 l 191 707 q 225 696 213 707 q 237 661 237 685 l 228 548 q 340 674 279 631 q 467 716 400 716 q 572 669 537 716 q 608 532 607 622 q 725 671 660 626 q 862 716 789 716 q 992 647 953 716 q 1015 449 1031 578 l 962 0 l 828 0 l 881 449 q 876 566 891 528 q 813 603 862 603 q 756 589 784 603 q 701 545 727 574 q 651 475 674 517 q 611 379 628 433 l 566 0 l 433 0 l 485 449 q 490 518 490 489 q 482 566 490 547 q 460 594 475 585 q 421 603 445 603 q 359 587 389 603 q 304 540 330 571 q 255 466 278 510 q 215 368 233 423 l 170 0 l 38 0 z "},"ѵ":{"ha":697,"x_min":46,"x_max":708,"o":"m 483 588 q 517 652 498 627 q 557 690 535 676 q 602 708 578 703 q 650 713 625 713 q 680 711 668 713 q 698 706 691 709 q 706 699 704 703 q 708 693 708 696 l 699 620 l 680 620 q 632 607 652 620 q 599 565 613 594 l 339 0 l 220 0 l 46 706 l 153 706 q 178 698 169 706 q 190 678 188 690 l 288 238 q 295 194 292 215 q 301 150 299 172 q 316 193 308 172 q 331 238 323 215 l 483 588 z "},"ф":{"ha":1017,"x_min":38,"x_max":963,"o":"m 538 118 q 577 100 556 106 q 619 94 597 94 q 708 125 669 94 q 774 205 747 156 q 814 317 800 255 q 828 443 828 379 q 820 519 828 488 q 798 570 813 551 q 764 599 784 590 q 717 608 743 608 q 646 591 681 608 q 590 545 612 575 l 538 118 m 462 588 q 424 606 444 601 q 381 612 403 612 q 319 598 348 612 q 268 559 291 584 q 227 501 244 535 q 197 429 209 467 q 178 348 185 390 q 172 263 172 306 q 180 187 172 218 q 202 136 188 156 q 236 108 216 117 q 283 99 257 99 q 354 115 319 99 q 411 161 389 131 l 462 588 m 603 653 q 675 700 635 684 q 765 716 715 716 q 846 701 810 716 q 908 655 883 686 q 948 573 934 623 q 963 455 963 524 q 952 338 963 396 q 921 229 941 281 q 873 133 901 177 q 810 58 845 90 q 732 8 774 26 q 644 -10 690 -10 q 578 4 607 -10 q 528 38 549 17 l 503 -179 q 480 -224 499 -206 q 428 -242 460 -242 l 363 -242 l 398 54 q 325 7 365 23 q 235 -10 285 -10 q 154 5 190 -10 q 92 52 117 20 q 52 133 66 83 q 38 251 38 183 q 48 368 38 310 q 79 477 59 426 q 127 573 99 529 q 190 648 155 617 q 268 698 226 680 q 357 716 310 716 q 423 702 394 716 q 472 669 451 689 l 507 963 q 530 1007 510 989 q 581 1025 550 1025 l 647 1025 l 603 653 z "},"ц":{"ha":787,"x_min":55,"x_max":730,"o":"m 730 99 l 657 -201 q 643 -231 655 -220 q 615 -242 631 -242 l 533 -242 l 599 0 l 532 0 q 483 49 483 0 l 491 164 q 368 34 436 78 q 227 -10 299 -10 q 148 8 183 -10 q 92 60 114 26 q 63 143 71 94 q 63 257 55 193 l 116 706 l 251 706 l 198 257 q 207 140 188 178 q 278 103 226 103 q 342 120 309 103 q 405 168 374 137 q 461 244 435 199 q 506 342 488 288 l 549 706 l 685 706 l 611 99 l 730 99 z "},"џ":{"ha":740,"x_min":55,"x_max":685,"o":"m 685 706 l 599 0 l 532 0 q 483 49 483 0 l 491 164 q 420 76 458 112 q 340 18 382 40 l 313 -201 q 299 -231 310 -220 q 270 -242 287 -242 l 189 -242 l 217 -10 q 143 11 175 -8 q 90 64 110 30 q 63 147 70 98 q 63 257 55 195 l 116 706 l 251 706 l 198 257 q 207 140 188 178 q 278 103 226 103 q 342 120 309 103 q 405 168 374 137 q 461 244 435 199 q 506 342 488 288 l 549 706 l 685 706 z "},"ч":{"ha":671,"x_min":46,"x_max":616,"o":"m 616 706 l 531 0 l 396 0 l 435 323 q 334 241 391 271 q 210 212 278 212 q 132 229 165 212 q 79 277 99 246 q 52 351 59 308 q 52 445 46 394 l 84 706 l 219 706 l 188 445 q 187 397 184 419 q 199 359 190 375 q 225 334 208 343 q 267 325 242 325 q 324 335 297 325 q 376 364 352 345 q 419 410 400 383 q 452 470 439 437 l 481 706 l 616 706 z "},"ш":{"ha":1095,"x_min":47,"x_max":1040,"o":"m 1040 706 l 955 0 l 887 0 q 853 11 865 0 q 841 46 841 22 l 849 158 q 738 33 799 75 q 610 -10 677 -10 q 506 38 540 -10 q 469 175 471 85 q 353 35 417 80 q 216 -10 288 -10 q 86 59 125 -10 q 63 257 47 128 l 116 706 l 249 706 l 197 257 q 201 140 187 178 q 265 103 215 103 q 322 118 294 103 q 377 161 351 133 q 426 233 403 190 q 467 329 449 275 l 512 706 l 645 706 l 592 257 q 588 189 588 217 q 595 141 588 160 q 618 112 603 122 q 657 103 633 103 q 718 119 689 103 q 774 166 748 135 q 823 240 800 197 q 863 339 845 284 l 908 706 l 1040 706 z "},"щ":{"ha":1140,"x_min":47,"x_max":1081,"o":"m 1081 99 l 1008 -201 q 994 -231 1006 -220 q 966 -242 982 -242 l 885 -242 l 950 0 l 887 0 q 853 11 865 0 q 841 46 841 22 l 849 158 q 738 33 799 75 q 610 -10 677 -10 q 506 38 540 -10 q 469 175 471 85 q 353 35 417 80 q 216 -10 288 -10 q 86 59 125 -10 q 63 257 47 128 l 116 706 l 249 706 l 197 257 q 201 140 187 178 q 265 103 215 103 q 322 118 294 103 q 377 161 351 133 q 426 233 403 190 q 467 329 449 275 l 512 706 l 645 706 l 592 257 q 588 189 588 217 q 595 141 588 160 q 618 112 603 122 q 657 103 633 103 q 718 119 689 103 q 774 166 748 135 q 823 240 800 197 q 863 339 845 284 l 908 706 l 1040 706 l 967 99 l 1081 99 z "},"ъ":{"ha":724,"x_min":38,"x_max":675,"o":"m 372 85 q 441 103 408 85 q 497 151 473 122 q 535 217 521 180 q 549 294 549 255 q 545 330 549 313 q 532 360 541 347 q 507 382 522 374 q 468 390 491 390 q 401 373 435 390 q 339 328 367 356 q 294 264 312 301 q 276 188 276 227 q 303 111 276 137 q 372 85 331 85 m 403 636 q 333 504 358 569 q 296 368 308 439 q 345 417 318 396 q 401 454 372 439 q 459 477 430 469 q 517 485 489 485 q 582 473 553 485 q 632 438 611 460 q 664 383 652 415 q 675 312 675 351 q 665 237 675 275 q 635 163 655 199 q 588 95 616 127 q 525 41 560 64 q 446 4 489 17 q 354 -10 403 -10 q 268 4 307 -10 q 202 46 230 17 q 160 119 175 75 q 145 223 145 163 q 152 314 145 267 q 173 407 158 360 q 213 504 188 455 q 274 605 238 553 l 38 605 l 44 653 q 62 691 47 676 q 105 706 78 706 l 415 706 l 403 636 z "},"ы":{"ha":907,"x_min":44,"x_max":851,"o":"m 851 706 l 767 0 l 632 0 l 717 706 l 851 706 m 185 162 q 205 108 181 130 q 278 85 229 85 q 347 104 314 85 q 403 152 379 123 q 442 219 428 182 q 457 293 457 256 q 453 330 457 313 q 439 360 449 347 q 414 382 430 374 q 375 390 399 390 q 312 372 344 390 q 255 327 281 355 q 210 264 228 299 q 188 194 192 229 l 185 162 m 209 367 q 256 416 231 394 q 310 453 282 438 q 366 477 338 469 q 420 485 394 485 q 488 473 458 485 q 539 438 518 460 q 571 383 560 415 q 583 313 583 351 q 555 189 583 248 q 480 86 527 131 q 369 16 432 42 q 238 -10 307 -10 q 90 39 136 -10 q 54 172 44 88 l 118 706 l 251 706 l 209 367 z "},"ь":{"ha":632,"x_min":44,"x_max":583,"o":"m 185 162 q 205 108 181 130 q 278 85 229 85 q 347 104 314 85 q 403 152 379 123 q 442 219 428 182 q 457 293 457 256 q 453 330 457 313 q 439 360 449 347 q 414 382 430 374 q 375 390 399 390 q 312 372 344 390 q 255 327 281 355 q 210 264 228 299 q 188 194 192 229 l 185 162 m 209 367 q 256 416 231 394 q 310 453 282 438 q 366 477 338 469 q 420 485 394 485 q 488 473 458 485 q 539 438 518 460 q 571 383 560 415 q 583 313 583 351 q 555 189 583 248 q 480 86 527 131 q 369 16 432 42 q 238 -10 307 -10 q 90 39 136 -10 q 54 172 44 88 l 118 706 l 251 706 l 209 367 z "},"э":{"ha":635,"x_min":3,"x_max":578,"o":"m 58 631 q 170 694 113 672 q 301 716 228 716 q 420 693 368 716 q 507 630 472 671 q 560 531 542 589 q 578 402 578 473 q 551 240 578 315 q 475 110 524 165 q 360 22 427 54 q 213 -10 292 -10 q 91 15 143 -10 q 3 88 40 40 l 42 135 q 54 144 47 140 q 68 149 60 149 q 88 140 77 149 q 116 122 99 132 q 155 103 132 112 q 213 95 178 95 q 295 111 258 95 q 361 156 333 127 q 410 226 390 185 q 439 315 430 266 l 136 315 l 147 406 l 446 406 q 401 559 444 505 q 276 613 358 613 q 218 605 243 613 q 173 586 192 597 q 139 568 153 576 q 113 560 125 560 q 91 566 98 560 q 81 578 85 572 l 58 631 z "},"є":{"ha":635,"x_min":38,"x_max":603,"o":"m 570 126 q 502 60 535 87 q 436 18 469 34 q 368 -3 403 3 q 292 -10 333 -10 q 183 11 231 -10 q 103 70 135 32 q 54 162 71 108 q 38 281 38 215 q 50 392 38 338 q 85 495 62 447 q 140 584 108 543 q 213 654 173 624 q 301 700 253 683 q 402 716 349 716 q 520 691 472 716 q 603 618 567 666 l 565 571 q 553 561 560 565 q 539 557 547 557 q 519 565 529 557 q 495 584 510 574 q 459 602 481 594 q 403 610 437 610 q 331 595 365 610 q 269 554 297 581 q 219 490 241 527 q 185 406 198 452 l 477 406 l 466 315 l 170 315 q 169 299 169 307 q 169 284 169 292 q 179 207 169 242 q 208 147 189 172 q 257 107 228 122 q 324 93 285 93 q 377 99 354 93 q 418 115 401 106 q 450 135 436 124 q 475 155 464 146 q 496 170 486 164 q 515 176 506 176 q 540 164 529 176 l 570 126 l 570 126 z "},"ю":{"ha":979,"x_min":37,"x_max":924,"o":"m 596 96 q 675 123 640 96 q 736 197 710 151 q 775 302 761 242 q 788 427 788 362 q 666 610 787 610 q 587 583 622 610 q 526 511 551 556 q 488 405 501 465 q 474 279 474 345 q 505 142 475 188 q 596 96 535 96 m 360 404 q 405 529 374 472 q 476 628 435 586 q 570 693 518 669 q 681 716 622 716 q 778 697 733 716 q 855 640 822 677 q 905 549 887 603 q 924 427 924 496 q 912 311 924 367 q 878 207 900 256 q 824 119 856 159 q 755 50 793 79 q 673 6 717 22 q 581 -10 628 -10 q 485 10 528 -10 q 411 66 442 29 q 364 157 381 103 q 347 280 347 211 q 347 294 347 288 q 347 308 347 301 l 206 308 l 167 0 l 37 0 l 123 706 l 254 706 l 217 404 l 360 404 z "},"я":{"ha":698,"x_min":-25,"x_max":644,"o":"m 509 617 l 374 617 q 306 604 333 617 q 262 571 278 591 q 238 527 245 551 q 231 482 231 503 q 263 406 231 433 q 349 378 294 378 l 480 378 l 509 617 m 644 706 l 558 0 l 433 0 l 469 295 l 386 295 q 350 291 365 295 q 324 279 335 287 q 304 261 313 272 q 288 237 296 250 l 193 81 q 159 36 177 53 q 122 10 142 19 q 80 -3 101 0 q 35 -7 58 -7 q -12 -1 1 -7 q -24 19 -25 4 l -14 95 l 9 95 q 57 107 36 95 q 95 144 78 118 l 167 252 q 205 294 184 278 q 255 321 226 311 q 183 344 213 328 q 135 382 153 360 q 109 431 117 404 q 101 485 101 458 q 116 563 101 524 q 165 634 132 602 q 250 685 198 665 q 374 706 301 706 l 644 706 z "},"ђ":{"ha":719,"x_min":19,"x_max":648,"o":"m 231 517 q 342 619 283 582 q 470 656 402 656 q 549 639 515 656 q 604 590 582 622 q 637 513 626 558 q 648 411 648 468 q 632 249 648 330 q 585 89 615 169 q 510 -71 554 8 q 412 -230 467 -151 l 311 -188 q 404 -25 365 -102 q 467 123 442 52 q 503 260 492 194 q 515 390 515 326 q 491 511 515 470 q 415 552 466 552 q 364 540 390 552 q 311 505 338 527 q 261 450 285 482 q 214 378 236 418 l 167 0 l 37 0 l 130 761 l 19 761 l 31 863 l 142 863 l 163 1025 l 293 1025 l 273 863 l 490 863 l 478 761 l 260 761 l 231 517 z "},"ѣ":{"ha":738,"x_min":38,"x_max":681,"o":"m 283 162 q 304 108 280 130 q 376 85 328 85 q 445 104 413 85 q 502 152 478 123 q 541 219 526 182 q 556 293 556 256 q 551 330 556 313 q 538 360 547 347 q 513 382 528 374 q 474 390 497 390 q 411 372 442 390 q 353 327 379 355 q 309 264 327 299 q 287 194 291 229 l 283 162 m 308 367 q 355 416 329 394 q 408 453 381 438 q 464 477 436 469 q 519 485 492 485 q 586 473 556 485 q 638 438 617 460 q 670 383 658 415 q 681 313 681 351 q 653 189 681 248 q 578 86 626 131 q 468 16 531 42 q 336 -10 406 -10 q 189 39 235 -10 q 153 172 143 88 l 205 605 l 38 605 l 50 706 l 217 706 l 241 900 l 374 900 l 349 706 l 546 706 l 533 605 l 337 605 l 324 502 l 308 367 z "},"!":{"ha":355,"x_min":50,"x_max":306,"o":"m 306 997 l 257 599 q 249 538 253 568 q 238 478 244 508 q 224 416 231 448 q 208 348 217 384 l 119 348 q 121 416 120 384 q 123 478 122 448 q 127 538 124 508 q 133 599 129 568 l 182 997 l 306 997 m 50 81 q 57 117 50 100 q 76 146 64 133 q 105 166 88 158 q 141 173 122 173 q 176 166 160 173 q 206 146 193 158 q 225 117 218 133 q 233 81 233 100 q 225 45 233 62 q 206 16 218 28 q 176 -3 193 3 q 141 -10 160 -10 q 105 -3 122 -10 q 76 16 88 3 q 57 45 64 28 q 50 81 50 62 z "},"?":{"ha":585,"x_min":108,"x_max":570,"o":"m 108 907 q 158 945 131 927 q 216 978 185 964 q 281 1000 247 992 q 356 1008 316 1008 q 445 993 406 1008 q 513 952 485 978 q 556 890 541 926 q 570 813 570 855 q 554 714 570 755 q 514 643 538 673 q 459 591 489 613 q 402 549 429 569 q 353 506 374 528 q 324 454 332 484 l 298 348 l 208 348 l 214 463 q 233 523 215 497 q 277 571 251 549 q 333 615 303 594 q 389 661 363 636 q 432 717 415 686 q 449 788 449 747 q 417 870 449 840 q 332 900 386 900 q 266 890 294 900 q 218 868 238 880 q 184 845 198 856 q 161 835 171 835 q 147 839 151 835 q 136 853 142 843 l 108 907 m 146 81 q 153 117 146 100 q 172 146 160 133 q 201 166 184 158 q 237 173 217 173 q 272 166 256 173 q 301 146 289 158 q 321 117 314 133 q 328 81 328 100 q 321 45 328 62 q 301 16 314 28 q 272 -3 289 3 q 237 -10 256 -10 q 201 -3 217 -10 q 172 16 184 3 q 153 45 160 28 q 146 81 146 62 z "},"‽":{"ha":641,"x_min":128,"x_max":633,"o":"m 229 173 q 265 166 248 173 q 294 146 281 158 q 314 117 306 133 q 321 81 321 100 q 314 45 321 62 q 294 16 306 28 q 265 -3 281 3 q 229 -10 248 -10 q 193 -3 210 -10 q 164 16 176 3 q 145 45 152 28 q 138 81 138 62 q 145 117 138 100 q 164 146 152 133 q 193 166 176 158 q 229 173 210 173 m 323 977 q 375 990 345 985 q 435 995 406 995 q 516 983 480 995 q 579 948 553 971 q 619 890 605 924 q 633 813 633 856 q 622 730 633 765 q 592 667 610 694 q 549 618 573 639 q 498 578 524 597 q 445 544 472 560 q 397 508 419 527 q 358 466 374 489 q 333 413 341 443 l 311 337 l 230 337 q 210 441 219 384 q 192 553 200 499 l 128 981 l 253 1012 l 291 675 q 293 651 292 666 q 296 616 294 635 q 299 574 297 596 q 301 528 300 551 q 342 578 319 556 q 389 618 365 599 q 434 654 412 636 q 473 691 456 672 q 501 736 490 711 q 511 793 511 760 q 484 862 511 837 q 413 887 457 887 q 379 884 393 887 q 360 881 365 881 q 339 887 345 881 q 331 903 332 892 l 323 977 z "},",":{"ha":316,"x_min":28,"x_max":205,"o":"m 113 0 q 79 7 94 0 q 52 26 63 14 q 34 55 40 38 q 28 91 28 72 q 34 123 28 108 q 52 149 40 138 q 79 166 63 160 q 115 173 95 173 q 154 165 137 173 q 182 143 171 157 q 199 110 194 128 q 205 69 205 91 q 196 3 205 38 q 169 -65 187 -31 q 126 -131 152 -99 q 68 -190 101 -163 l 44 -168 q 35 -148 35 -159 q 46 -126 35 -140 q 72 -95 58 -113 q 101 -53 87 -76 q 120 0 115 -29 l 113 0 z "},";":{"ha":365,"x_min":54,"x_max":292,"o":"m 140 0 q 105 7 121 0 q 78 26 90 14 q 60 55 67 38 q 54 91 54 72 q 60 123 54 108 q 78 149 67 138 q 106 166 90 160 q 141 173 122 173 q 180 165 163 173 q 209 143 197 157 q 226 110 220 128 q 231 69 231 91 q 222 3 231 38 q 196 -65 213 -31 q 153 -131 178 -99 q 94 -190 127 -163 l 71 -168 q 61 -148 61 -159 q 73 -126 61 -140 q 99 -95 84 -113 q 127 -53 113 -76 q 147 0 141 -29 l 140 0 m 109 595 q 116 631 109 614 q 135 660 123 647 q 164 680 147 672 q 200 687 181 687 q 235 680 219 687 q 265 660 252 672 q 284 631 277 647 q 292 595 292 614 q 284 559 292 576 q 265 530 277 542 q 235 510 252 517 q 200 503 219 503 q 164 510 181 503 q 135 530 147 517 q 116 559 123 542 q 109 595 109 576 z "},".":{"ha":326,"x_min":33,"x_max":215,"o":"m 33 81 q 40 117 33 100 q 59 146 47 133 q 88 166 71 158 q 124 173 104 173 q 159 166 142 173 q 188 146 176 158 q 208 117 201 133 q 215 81 215 100 q 208 45 215 62 q 188 16 201 28 q 159 -3 176 3 q 124 -10 142 -10 q 88 -3 104 -10 q 59 16 71 3 q 40 45 47 28 q 33 81 33 62 z "},"…":{"ha":1048,"x_min":33,"x_max":936,"o":"m 33 81 q 40 117 33 100 q 59 146 47 133 q 88 166 71 158 q 124 173 104 173 q 159 166 142 173 q 188 146 176 158 q 208 117 201 133 q 215 81 215 100 q 208 45 215 62 q 188 16 201 28 q 159 -3 176 3 q 124 -10 142 -10 q 88 -3 104 -10 q 59 16 71 3 q 40 45 47 28 q 33 81 33 62 m 393 81 q 400 117 393 100 q 419 146 407 133 q 448 166 431 158 q 484 173 465 173 q 519 166 503 173 q 549 146 536 158 q 568 117 561 133 q 576 81 576 100 q 568 45 576 62 q 549 16 561 28 q 519 -3 536 3 q 484 -10 503 -10 q 448 -3 465 -10 q 419 16 431 3 q 400 45 407 28 q 393 81 393 62 m 753 81 q 760 117 753 100 q 780 146 767 133 q 808 166 792 158 q 844 173 825 173 q 880 166 863 173 q 909 146 897 158 q 929 117 922 133 q 936 81 936 100 q 929 45 936 62 q 909 16 922 28 q 880 -3 897 3 q 844 -10 863 -10 q 808 -3 825 -10 q 780 16 792 3 q 760 45 767 28 q 753 81 753 62 z "},"‘":{"ha":286,"x_min":112,"x_max":302,"o":"m 137 699 q 113 798 115 749 q 128 894 112 847 q 178 985 145 942 q 258 1066 211 1028 l 294 1042 q 302 1025 302 1035 q 299 1014 302 1019 q 288 1000 296 1008 q 258 959 274 983 q 234 904 243 934 q 225 840 224 874 q 242 769 225 806 q 241 747 247 757 q 221 731 235 737 l 137 699 z "},"’":{"ha":288,"x_min":99,"x_max":290,"o":"m 265 1048 q 289 949 288 999 q 274 853 290 900 q 224 762 257 806 q 144 681 191 719 l 108 706 q 99 722 99 713 q 103 733 99 728 q 114 747 106 739 q 144 789 128 764 q 168 843 159 813 q 177 907 178 873 q 160 978 177 942 q 161 1000 155 990 q 181 1016 167 1010 l 265 1048 z "},"“":{"ha":485,"x_min":112,"x_max":501,"o":"m 137 699 q 113 798 115 749 q 128 894 112 847 q 178 985 145 942 q 258 1066 211 1028 l 294 1042 q 302 1025 302 1035 q 299 1014 302 1019 q 288 1000 296 1008 q 258 959 274 983 q 234 904 243 934 q 225 840 224 874 q 242 769 225 806 q 241 747 247 757 q 221 731 235 737 l 137 699 m 335 699 q 312 798 313 749 q 327 894 310 847 q 377 985 344 942 q 456 1066 410 1028 l 492 1042 q 501 1025 501 1035 q 498 1014 501 1019 q 487 1000 494 1008 q 457 959 472 983 q 432 904 442 934 q 423 840 423 874 q 440 769 424 806 q 440 747 446 757 q 419 731 433 737 l 335 699 z "},"”":{"ha":487,"x_min":99,"x_max":489,"o":"m 265 1048 q 289 949 288 999 q 274 853 290 900 q 224 762 257 806 q 144 681 191 719 l 108 706 q 99 722 99 713 q 103 733 99 728 q 114 747 106 739 q 144 789 128 764 q 168 843 159 813 q 177 907 178 873 q 160 978 177 942 q 161 1000 155 990 q 181 1016 167 1010 l 265 1048 m 464 1048 q 488 949 486 999 q 472 853 489 900 q 423 762 456 806 q 343 681 390 719 l 307 706 q 298 722 298 713 q 301 733 298 728 q 313 747 305 739 q 342 789 327 764 q 367 843 358 813 q 376 907 376 873 q 359 978 376 942 q 360 1000 353 990 q 380 1016 366 1010 l 464 1048 z "},"‚":{"ha":282,"x_min":-22,"x_max":169,"o":"m 144 173 q 168 74 167 124 q 153 -22 169 25 q 103 -113 136 -69 q 24 -194 70 -156 l -12 -169 q -22 -153 -22 -162 q -18 -142 -22 -147 q -7 -128 -15 -136 q 23 -86 8 -111 q 48 -32 38 -62 q 57 32 57 -2 q 40 103 56 67 q 40 125 34 115 q 60 141 47 135 l 144 173 z "},"„":{"ha":481,"x_min":-22,"x_max":368,"o":"m 144 173 q 168 74 167 124 q 153 -22 169 25 q 103 -113 136 -69 q 24 -194 70 -156 l -12 -169 q -22 -153 -22 -162 q -18 -142 -22 -147 q -7 -128 -15 -136 q 23 -86 8 -111 q 48 -32 38 -62 q 57 32 57 -2 q 40 103 56 67 q 40 125 34 115 q 60 141 47 135 l 144 173 m 343 173 q 367 74 365 124 q 351 -22 368 25 q 302 -113 335 -69 q 222 -194 269 -156 l 186 -169 q 177 -153 177 -162 q 181 -142 177 -147 q 192 -128 184 -136 q 222 -86 206 -111 q 246 -32 237 -62 q 255 32 256 -2 q 238 103 255 67 q 239 125 233 115 q 259 141 245 135 l 343 173 z "},"‹":{"ha":363,"x_min":53,"x_max":308,"o":"m 178 394 q 156 369 167 377 q 164 358 160 365 q 172 343 168 351 l 247 165 q 249 133 254 147 q 227 110 244 118 l 181 89 l 53 360 l 56 377 l 250 648 l 290 627 q 307 605 306 619 q 297 573 308 590 l 178 394 z "},"›":{"ha":361,"x_min":40,"x_max":294,"o":"m 294 377 l 292 360 l 99 89 l 59 110 q 41 133 42 118 q 51 165 40 147 l 170 343 q 192 369 181 358 q 176 394 183 378 l 101 573 q 99 605 94 590 q 122 627 104 619 l 167 648 l 294 377 z "},"«":{"ha":556,"x_min":53,"x_max":502,"o":"m 178 394 q 156 369 167 377 q 164 358 160 365 q 172 343 168 351 l 247 165 q 249 133 254 147 q 227 110 244 118 l 181 89 l 53 360 l 56 377 l 250 648 l 290 627 q 307 605 306 619 q 297 573 308 590 l 178 394 m 372 394 q 349 369 361 377 q 358 358 354 365 q 365 343 362 351 l 440 165 q 443 133 448 147 q 421 110 438 118 l 375 89 l 247 360 l 249 377 l 444 648 l 484 627 q 501 605 500 619 q 490 573 502 590 l 372 394 z "},"»":{"ha":556,"x_min":40,"x_max":489,"o":"m 294 377 l 292 360 l 99 89 l 59 110 q 41 133 42 118 q 51 165 40 147 l 170 343 q 192 369 181 358 q 176 394 183 378 l 101 573 q 99 605 94 590 q 122 627 104 619 l 167 648 l 294 377 m 489 377 l 487 360 l 293 89 l 253 110 q 236 133 237 118 q 246 165 235 147 l 365 343 q 387 369 375 358 q 371 394 378 378 l 296 573 q 294 605 289 590 q 317 627 299 619 l 362 648 l 489 377 z "},"/":{"ha":585,"x_min":-16,"x_max":613,"o":"m 116 -14 q 82 -51 103 -39 q 40 -64 60 -64 l -16 -64 l 483 960 q 514 995 495 983 q 557 1008 533 1008 l 613 1008 l 116 -14 z "},"|":{"ha":363,"x_min":128,"x_max":233,"o":"m 128 1067 l 233 1067 l 233 -237 l 128 -237 l 128 1067 z "},"¦":{"ha":362,"x_min":127,"x_max":233,"o":"m 127 1067 l 233 1067 l 233 513 l 127 513 l 127 1067 m 127 318 l 233 318 l 233 -237 l 127 -237 l 127 318 z "},"\\":{"ha":580,"x_min":113,"x_max":478,"o":"m 113 1008 l 169 1008 q 209 995 193 1008 q 231 960 225 983 l 478 -64 l 424 -64 q 384 -51 403 -64 q 359 -14 365 -39 l 113 1008 z "},"-":{"ha":486,"x_min":74,"x_max":410,"o":"m 88 472 l 410 472 l 396 361 l 74 361 l 88 472 z "},"–":{"ha":806,"x_min":138,"x_max":663,"o":"m 149 458 l 663 458 l 651 363 l 138 363 l 149 458 z "},"—":{"ha":1022,"x_min":75,"x_max":942,"o":"m 86 458 l 942 458 l 931 363 l 75 363 l 86 458 z "},"_":{"ha":617,"x_min":-19,"x_max":496,"o":"m 496 -111 l 485 -199 l -19 -199 l -8 -111 l 496 -111 z "},"•":{"ha":806,"x_min":132,"x_max":670,"o":"m 132 413 q 153 518 132 469 q 211 604 174 567 q 296 662 247 641 q 400 683 344 683 q 505 662 456 683 q 591 604 554 641 q 649 518 628 567 q 670 413 670 469 q 649 308 670 357 q 591 223 628 260 q 505 165 554 186 q 400 144 456 144 q 296 165 344 144 q 211 223 247 186 q 153 308 174 260 q 132 413 132 357 z "},"·":{"ha":363,"x_min":69,"x_max":290,"o":"m 69 413 q 77 456 69 435 q 101 492 86 476 q 136 516 116 507 q 178 524 156 524 q 222 516 201 524 q 257 492 242 507 q 281 456 272 476 q 290 413 290 435 q 281 370 290 390 q 257 335 272 350 q 222 311 242 319 q 178 302 201 302 q 136 311 156 302 q 101 335 116 319 q 77 370 86 350 q 69 413 69 390 z "},"(":{"ha":362,"x_min":56,"x_max":392,"o":"m 171 305 q 175 200 171 255 q 189 90 180 144 q 213 -18 199 35 q 244 -117 226 -71 q 246 -152 253 -140 q 226 -171 238 -164 l 165 -206 q 116 -83 136 -147 q 82 45 95 -19 q 63 172 69 109 q 56 293 56 235 q 68 486 56 392 q 109 674 79 579 q 190 868 139 769 q 322 1079 242 968 l 376 1044 q 385 1035 381 1040 q 390 1024 389 1031 q 390 1009 392 1018 q 381 990 388 1001 q 292 832 331 911 q 226 670 253 753 q 185 497 199 587 q 171 305 171 406 z "},")":{"ha":361,"x_min":-29,"x_max":308,"o":"m 194 568 q 189 673 194 618 q 175 783 184 728 q 152 891 165 838 q 120 990 138 944 q 116 1009 116 1001 q 119 1024 116 1018 q 127 1035 122 1031 q 138 1044 132 1040 l 201 1079 q 250 956 229 1019 q 283 828 270 892 q 302 701 296 764 q 308 580 308 638 q 297 387 308 481 q 256 199 285 294 q 175 5 226 104 q 43 -206 123 -95 l -10 -171 q -25 -152 -21 -164 q -15 -117 -29 -140 q 74 42 35 -38 q 139 207 113 123 q 180 381 166 292 q 194 568 194 471 z "},"[":{"ha":406,"x_min":44,"x_max":444,"o":"m 438 1015 q 426 991 437 1001 q 399 981 415 981 l 299 981 l 163 -116 l 265 -116 q 289 -126 280 -116 q 295 -151 297 -136 l 289 -203 l 44 -203 l 199 1067 l 444 1067 l 438 1015 z "},"]":{"ha":406,"x_min":-37,"x_max":365,"o":"m 208 -203 l -37 -203 l -31 -151 q -18 -126 -29 -136 q 9 -116 -7 -116 l 110 -116 l 244 981 l 144 981 q 119 991 128 981 q 113 1015 111 1001 l 119 1067 l 365 1067 l 208 -203 z "},"{":{"ha":397,"x_min":44,"x_max":433,"o":"m 433 1067 l 426 1008 q 413 987 424 993 q 394 981 401 981 l 383 981 q 301 942 333 981 q 266 834 269 904 q 263 769 263 801 q 263 707 263 738 q 264 648 264 677 q 262 590 264 619 q 250 533 260 559 q 225 486 240 507 q 189 452 209 466 q 144 432 168 438 q 204 387 182 420 q 226 310 226 354 q 216 230 226 269 q 194 151 206 190 q 173 71 183 112 q 163 -12 163 31 q 185 -87 163 -59 q 249 -116 207 -116 l 259 -116 q 277 -123 267 -116 q 285 -144 286 -130 l 277 -203 l 243 -203 q 157 -189 194 -203 q 96 -149 120 -174 q 60 -90 72 -124 q 48 -14 48 -55 q 59 73 48 32 q 82 154 69 115 q 106 233 95 194 q 117 313 117 272 q 98 370 117 348 q 44 393 80 393 l 53 472 q 129 513 105 472 q 153 642 153 555 q 152 673 153 656 q 150 708 151 690 q 148 744 149 726 q 147 776 147 761 q 211 990 147 914 q 399 1067 274 1067 l 433 1067 z "},"}":{"ha":397,"x_min":-34,"x_max":356,"o":"m 157 1067 q 243 1053 206 1067 q 303 1014 279 1039 q 339 954 327 989 q 351 878 351 919 q 340 790 351 832 q 317 709 330 749 q 294 631 304 669 q 283 551 283 592 q 301 494 283 516 q 356 472 319 472 l 347 393 q 271 351 295 393 q 247 222 247 309 q 247 191 247 208 q 249 156 248 174 q 251 120 250 138 q 251 88 251 103 q 235 -35 251 19 q 188 -126 219 -89 q 109 -183 156 -163 q 1 -203 63 -203 l -34 -203 l -26 -144 q -14 -123 -24 -130 q 6 -116 -3 -116 l 16 -116 q 98 -78 66 -116 q 134 31 130 -40 q 137 95 137 63 q 136 157 137 126 q 136 216 136 187 q 138 273 136 244 q 150 330 140 304 q 175 377 159 356 q 211 411 190 397 q 255 432 231 426 q 194 476 217 444 q 172 553 172 509 q 182 634 172 594 q 205 713 192 673 q 227 793 217 752 q 238 876 238 833 q 215 952 238 923 q 151 981 193 981 l 141 981 q 132 982 137 981 q 123 987 127 983 q 117 995 119 990 q 116 1008 115 1000 l 122 1067 l 157 1067 z "},"*":{"ha":549,"x_min":113,"x_max":529,"o":"m 415 839 q 389 827 401 832 q 365 822 376 823 q 410 804 390 819 l 508 735 l 471 681 l 372 749 q 353 762 362 756 q 340 778 345 769 q 342 732 346 758 l 325 596 l 261 596 l 278 731 q 283 756 280 744 q 292 778 286 767 q 274 763 283 769 q 252 749 264 756 l 138 681 l 113 735 l 228 804 q 281 822 254 819 q 232 839 254 824 l 133 908 l 172 963 l 270 894 q 303 861 293 881 q 300 911 296 885 l 317 1047 l 381 1047 l 364 912 q 358 886 362 899 q 349 863 355 874 q 368 880 358 873 q 390 894 378 888 l 505 963 l 529 908 l 415 839 z "},"†":{"ha":806,"x_min":122,"x_max":737,"o":"m 486 687 q 587 701 536 692 q 681 711 638 710 q 708 706 697 711 q 725 693 719 701 q 734 675 732 685 q 735 653 737 665 l 730 609 l 477 609 l 440 310 l 391 -231 q 358 -244 376 -240 q 321 -249 340 -249 q 255 -231 281 -249 l 338 310 l 375 609 l 122 609 l 127 653 q 147 693 130 676 q 196 711 164 711 q 287 701 238 710 q 384 687 335 692 l 408 1009 q 477 1026 438 1026 q 542 1009 516 1026 l 486 687 z "},"‡":{"ha":806,"x_min":62,"x_max":739,"o":"m 489 687 q 539 693 513 690 q 590 701 565 697 q 639 708 615 705 q 683 711 663 711 q 710 706 699 711 q 728 693 722 701 q 737 675 735 685 q 738 653 739 665 l 733 609 l 479 609 l 451 381 l 424 169 l 678 169 l 673 125 q 653 84 669 102 q 604 67 636 67 q 513 77 562 68 q 415 91 464 86 l 394 -231 q 360 -244 378 -240 q 323 -249 342 -249 q 287 -244 303 -249 q 258 -231 270 -240 l 314 91 q 213 77 264 85 q 119 67 162 68 q 74 84 87 67 q 65 125 62 102 l 70 169 l 324 169 l 350 381 l 378 609 l 124 609 l 130 653 q 150 693 133 676 q 199 711 167 711 q 243 708 219 711 q 290 701 266 705 q 338 693 314 697 q 387 686 363 689 l 410 1009 q 479 1026 440 1026 q 545 1009 518 1026 l 489 687 z "},"§":{"ha":645,"x_min":24,"x_max":613,"o":"m 397 328 q 451 376 435 348 q 467 438 467 403 q 449 492 467 469 q 403 534 431 515 q 339 568 374 552 q 271 603 304 585 q 208 555 226 581 q 190 494 190 528 q 209 442 190 464 q 259 401 228 419 q 326 366 289 383 q 397 328 363 349 m 578 876 q 549 860 567 860 q 526 867 538 860 q 499 884 515 875 q 460 901 483 894 q 406 909 438 909 q 349 900 374 909 q 306 876 324 891 q 279 840 288 860 q 269 797 269 820 q 283 757 269 774 q 319 724 297 739 q 369 694 341 708 q 428 666 398 681 q 486 633 458 651 q 537 593 515 615 q 573 542 559 570 q 586 476 586 513 q 556 363 586 413 q 459 284 525 313 q 499 232 483 261 q 514 163 514 202 q 495 65 514 110 q 440 -14 476 20 q 352 -67 404 -47 q 233 -86 300 -86 q 111 -62 166 -86 q 24 -1 57 -38 l 60 49 q 75 64 67 59 q 97 69 83 69 q 122 59 110 69 q 150 38 133 49 q 191 17 167 26 q 256 8 216 8 q 315 17 289 8 q 359 43 341 26 q 386 82 377 59 q 396 131 396 104 q 382 179 396 159 q 345 216 368 199 q 293 245 322 232 q 233 273 264 259 q 174 304 203 288 q 122 343 144 321 q 85 393 99 365 q 71 461 71 422 q 105 572 71 524 q 208 649 138 621 q 167 702 183 672 q 151 776 151 733 q 169 864 151 822 q 222 938 188 906 q 305 988 256 969 q 416 1007 353 1007 q 531 985 481 1007 q 613 924 580 963 l 578 876 z "},"¶":{"ha":979,"x_min":78,"x_max":1002,"o":"m 988 881 l 837 881 l 711 -141 l 592 -141 l 717 881 l 533 881 l 407 -141 l 288 -141 l 360 453 q 244 470 296 453 q 155 520 192 488 q 98 597 118 552 q 78 694 78 641 q 103 813 78 758 q 174 909 128 868 q 284 974 220 950 q 427 997 349 997 l 1002 997 l 988 881 z "},"^":{"ha":806,"x_min":143,"x_max":733,"o":"m 733 544 l 634 544 q 612 552 621 544 q 598 569 603 559 l 468 803 q 452 835 458 819 q 440 867 445 851 q 413 803 431 837 l 285 569 q 270 552 279 560 q 247 544 261 544 l 143 544 l 394 997 l 482 997 l 733 544 z "},"~":{"ha":806,"x_min":77,"x_max":727,"o":"m 525 432 q 593 460 569 432 q 617 537 617 489 l 727 537 q 714 448 727 488 q 676 380 701 408 q 615 335 651 351 q 533 319 579 319 q 462 330 497 319 q 395 354 427 341 q 333 378 363 367 q 280 389 304 389 q 212 361 236 389 q 187 285 188 333 l 77 285 q 90 373 77 333 q 128 442 103 413 q 190 486 153 470 q 272 502 226 502 q 342 491 308 502 q 409 467 377 480 q 471 443 442 454 q 525 432 500 432 z "},"'":{"ha":273,"x_min":123,"x_max":263,"o":"m 263 997 l 238 796 l 213 688 q 195 651 207 664 q 162 638 184 638 q 133 651 142 638 q 123 688 124 664 l 124 796 l 149 997 l 263 997 z "},"\"":{"ha":491,"x_min":123,"x_max":481,"o":"m 263 997 l 238 796 l 213 688 q 195 651 207 664 q 162 638 184 638 q 133 651 142 638 q 123 688 124 664 l 124 796 l 149 997 l 263 997 m 481 997 l 456 796 l 431 688 q 414 651 425 664 q 380 638 402 638 q 351 651 360 638 q 341 688 342 664 l 342 796 l 367 997 l 481 997 z "},"&":{"ha":917,"x_min":36,"x_max":860,"o":"m 319 484 q 207 382 244 441 q 171 253 171 322 q 182 186 171 215 q 214 136 194 157 q 263 106 235 116 q 325 95 292 95 q 443 122 388 95 q 544 195 498 149 l 319 484 m 860 0 l 748 0 q 720 2 731 0 q 699 9 708 4 q 682 20 690 13 q 666 39 674 28 l 608 114 q 464 22 542 56 q 297 -11 385 -11 q 190 6 238 -11 q 108 55 142 23 q 55 133 74 87 q 36 235 36 178 q 54 339 36 290 q 104 427 72 387 q 178 500 135 468 q 271 553 221 531 q 232 643 244 599 q 220 729 220 687 q 240 838 220 787 q 297 926 260 888 q 386 986 334 964 q 503 1008 439 1008 q 597 991 556 1008 q 666 944 638 974 q 708 876 694 915 q 722 793 723 838 l 645 778 q 619 780 628 775 q 606 801 610 785 q 594 839 602 820 q 572 873 585 858 q 538 897 558 888 q 491 906 517 906 q 430 893 458 906 q 383 857 403 880 q 353 805 364 835 q 343 739 343 774 q 407 578 343 664 l 626 299 q 671 392 653 344 q 699 489 690 440 q 709 510 702 502 q 730 518 716 518 l 821 518 q 778 356 810 435 q 696 210 746 278 l 860 0 z "},"@":{"ha":1068,"x_min":59,"x_max":1022,"o":"m 684 569 q 634 574 660 574 q 542 551 585 574 q 466 489 499 527 q 414 401 433 450 q 395 303 395 353 q 411 241 395 264 q 461 217 428 217 q 499 224 479 217 q 538 247 519 231 q 576 293 558 264 q 610 365 594 322 l 684 569 m 713 378 q 691 294 694 326 q 693 243 687 262 q 715 218 700 225 q 749 212 730 212 q 816 236 783 212 q 873 304 848 260 q 913 407 898 347 q 928 539 928 467 q 906 678 928 618 q 841 779 883 738 q 741 840 799 819 q 614 860 683 860 q 493 842 551 860 q 384 790 435 824 q 291 707 333 756 q 219 599 249 659 q 172 468 189 539 q 156 320 156 398 q 183 149 156 223 q 259 24 210 74 q 376 -53 308 -27 q 526 -79 444 -79 q 698 -58 624 -79 q 820 -6 772 -36 q 842 2 833 1 q 857 1 851 3 q 868 -8 864 -2 q 874 -21 872 -14 l 883 -60 q 719 -137 810 -108 q 516 -167 628 -167 q 330 -133 414 -167 q 185 -37 246 -100 q 92 114 125 25 q 59 315 59 203 q 80 484 59 403 q 138 635 101 565 q 228 763 176 705 q 343 861 280 820 q 477 924 406 901 q 624 947 548 947 q 778 919 706 947 q 905 838 851 891 q 991 710 959 785 q 1022 539 1022 635 q 998 376 1022 451 q 932 246 974 301 q 836 160 891 191 q 720 128 781 128 q 644 153 673 128 q 610 230 615 178 q 520 154 567 177 q 424 131 474 131 q 365 143 390 131 q 324 176 340 155 q 300 226 308 197 q 292 288 292 255 q 303 374 292 330 q 336 459 314 417 q 390 536 358 500 q 463 599 422 572 q 555 642 504 626 q 665 658 606 658 q 743 651 710 658 q 804 630 775 644 l 713 378 z "},"©":{"ha":1152,"x_min":76,"x_max":1094,"o":"m 758 336 q 769 334 763 337 q 778 328 774 331 l 824 278 q 726 207 784 232 q 588 181 668 181 q 464 205 519 181 q 368 272 408 229 q 306 373 328 315 q 284 501 284 431 q 308 630 284 571 q 374 730 332 688 q 475 796 417 772 q 601 819 533 819 q 730 795 676 819 q 822 732 783 771 l 788 682 q 778 673 784 678 q 763 669 772 669 q 742 676 753 669 q 715 693 731 684 q 673 710 698 702 q 608 717 647 717 q 523 702 560 717 q 459 659 485 687 q 419 591 433 631 q 405 501 405 551 q 419 408 405 449 q 459 340 433 368 q 519 298 484 313 q 594 284 553 284 q 653 290 630 284 q 695 303 677 295 q 727 320 713 311 q 758 336 741 329 m 76 499 q 94 634 76 569 q 146 756 113 699 q 226 858 179 812 q 328 938 272 905 q 450 990 385 972 q 585 1008 515 1008 q 783 968 690 1008 q 945 859 876 928 q 1055 697 1015 790 q 1094 499 1094 604 q 1055 301 1094 393 q 945 139 1015 208 q 783 30 876 70 q 585 -10 690 -10 q 450 8 515 -10 q 328 60 385 26 q 226 139 272 93 q 146 242 179 185 q 94 364 113 299 q 76 499 76 428 m 153 499 q 168 381 153 438 q 211 275 183 324 q 278 186 239 226 q 365 118 317 147 q 469 74 413 90 q 585 58 524 58 q 755 93 676 58 q 894 186 835 127 q 987 326 953 246 q 1021 499 1021 406 q 987 672 1021 591 q 894 813 953 753 q 755 908 835 873 q 585 942 676 942 q 469 927 524 942 q 365 882 413 911 q 278 813 317 853 q 211 724 239 773 q 168 617 183 674 q 153 499 153 560 z "},"℗":{"ha":1152,"x_min":76,"x_max":1094,"o":"m 588 493 q 656 502 629 493 q 698 526 683 510 q 720 563 714 542 q 726 610 726 585 q 720 655 726 635 q 700 689 715 675 q 661 711 685 703 q 599 719 636 719 l 512 719 l 512 493 l 588 493 m 599 810 q 708 795 662 810 q 784 753 753 780 q 828 689 814 726 q 843 610 843 652 q 828 532 843 569 q 784 468 814 496 q 707 423 753 440 q 596 407 660 407 l 512 407 l 512 190 l 393 190 l 393 810 l 599 810 m 585 58 q 755 93 676 58 q 894 186 835 127 q 987 326 953 246 q 1021 499 1021 406 q 987 672 1021 591 q 894 813 953 753 q 755 908 835 873 q 585 942 676 942 q 469 927 524 942 q 365 882 413 911 q 278 813 317 853 q 211 724 239 773 q 168 617 183 674 q 153 499 153 560 q 168 381 153 438 q 211 275 183 324 q 278 186 239 226 q 365 118 317 147 q 469 74 413 90 q 585 58 524 58 m 585 1008 q 783 968 690 1008 q 945 859 876 928 q 1055 697 1015 790 q 1094 499 1094 604 q 1055 301 1094 393 q 945 139 1015 208 q 783 30 876 70 q 585 -10 690 -10 q 450 8 515 -10 q 328 60 385 26 q 226 139 272 93 q 146 242 179 185 q 94 364 113 299 q 76 499 76 428 q 94 634 76 569 q 146 756 113 699 q 226 858 179 812 q 328 938 272 905 q 450 990 385 972 q 585 1008 515 1008 z "},"®":{"ha":1152,"x_min":76,"x_max":1094,"o":"m 567 517 q 630 524 604 517 q 671 544 656 531 q 693 577 687 557 q 700 622 700 597 q 694 665 700 647 q 674 695 688 683 q 636 713 660 707 q 578 719 613 719 l 491 719 l 491 517 l 567 517 m 578 810 q 758 766 699 810 q 817 636 817 722 q 781 526 817 572 q 674 462 746 480 q 695 443 686 454 q 713 417 704 431 l 863 190 l 750 190 q 714 209 724 190 l 583 411 q 569 426 578 421 q 542 431 560 431 l 491 431 l 491 190 l 372 190 l 372 810 l 578 810 m 585 58 q 755 93 676 58 q 894 186 835 127 q 987 326 953 246 q 1021 499 1021 406 q 987 672 1021 591 q 894 813 953 753 q 755 908 835 873 q 585 942 676 942 q 469 927 524 942 q 365 882 413 911 q 278 813 317 853 q 211 724 239 773 q 168 617 183 674 q 153 499 153 560 q 168 381 153 438 q 211 275 183 324 q 278 186 239 226 q 365 118 317 147 q 469 74 413 90 q 585 58 524 58 m 585 1008 q 783 968 690 1008 q 945 859 876 928 q 1055 697 1015 790 q 1094 499 1094 604 q 1055 301 1094 393 q 945 139 1015 208 q 783 30 876 70 q 585 -10 690 -10 q 450 8 515 -10 q 328 60 385 26 q 226 139 272 93 q 146 242 179 185 q 94 364 113 299 q 76 499 76 428 q 94 634 76 569 q 146 756 113 699 q 226 858 179 812 q 328 938 272 905 q 450 990 385 972 q 585 1008 515 1008 z "},"™":{"ha":965,"x_min":113,"x_max":935,"o":"m 124 997 l 437 997 l 427 919 l 316 919 l 274 585 l 184 585 l 224 919 l 113 919 l 124 997 m 935 997 l 885 585 l 805 585 l 835 830 l 848 886 l 710 656 q 676 635 698 635 l 663 635 q 645 641 653 635 q 634 656 638 646 l 553 882 l 552 830 l 522 585 l 442 585 l 492 997 l 570 997 q 587 994 582 997 q 599 981 592 991 l 672 776 q 681 738 678 756 q 701 776 690 758 l 826 981 q 840 994 833 991 q 858 997 846 997 l 935 997 z "},"℠":{"ha":964,"x_min":106,"x_max":936,"o":"m 133 677 q 154 689 142 689 q 168 683 161 689 q 185 670 176 677 q 208 658 195 664 q 241 652 222 652 q 287 669 271 652 q 303 713 303 687 q 291 739 303 729 q 263 755 280 748 q 226 768 247 762 q 190 786 206 774 q 161 817 173 798 q 150 867 150 835 q 160 920 150 895 q 190 964 171 945 q 236 995 209 983 q 297 1006 263 1006 q 361 995 332 1006 q 408 963 390 983 l 386 921 q 365 908 378 908 q 353 913 359 908 q 338 922 347 917 q 318 932 330 927 q 289 936 306 936 q 248 922 265 936 q 231 885 231 908 q 243 862 231 871 q 271 847 254 853 q 308 833 288 840 q 345 814 328 826 q 373 783 362 801 q 385 734 385 764 q 374 675 385 703 q 343 626 363 647 q 294 593 323 606 q 230 581 265 581 q 160 597 194 581 q 106 636 126 612 l 133 677 m 936 997 l 885 585 l 806 585 l 835 831 l 848 884 l 710 656 q 676 636 699 636 l 663 636 q 635 656 642 636 l 553 882 l 553 831 l 523 585 l 442 585 l 493 997 l 571 997 q 588 994 583 997 q 599 983 593 992 l 672 777 q 682 739 679 757 q 702 777 690 758 l 826 983 q 841 994 835 992 q 858 997 847 997 l 936 997 z "},"°":{"ha":571,"x_min":98,"x_max":557,"o":"m 98 783 q 116 871 98 830 q 165 943 133 913 q 238 991 196 974 q 327 1009 279 1009 q 418 991 376 1009 q 491 943 460 974 q 539 871 522 913 q 557 783 557 830 q 539 695 557 736 q 491 623 522 653 q 418 574 460 592 q 327 556 376 556 q 238 574 279 556 q 165 623 196 592 q 116 695 133 653 q 98 783 98 736 m 192 782 q 203 729 192 753 q 231 686 213 704 q 274 658 249 668 q 327 647 299 647 q 380 658 356 647 q 422 686 404 668 q 450 729 440 704 q 460 782 460 753 q 450 835 460 810 q 422 878 440 860 q 380 907 404 897 q 327 917 356 917 q 274 907 299 917 q 231 878 249 897 q 203 835 213 860 q 192 782 192 810 z "},"¤":{"ha":806,"x_min":90,"x_max":720,"o":"m 256 467 q 267 409 256 436 q 300 362 279 383 q 347 330 320 342 q 406 318 374 318 q 464 330 437 318 q 512 362 492 342 q 544 409 533 383 q 556 467 556 436 q 544 525 556 498 q 512 573 533 553 q 464 606 492 594 q 406 617 437 617 q 347 606 374 617 q 300 573 320 594 q 267 525 279 553 q 256 467 256 498 m 651 154 l 546 260 q 481 228 516 240 q 406 217 445 217 q 332 227 367 217 q 267 258 297 238 l 161 152 l 93 222 l 198 326 q 167 392 178 357 q 156 467 156 427 q 166 540 156 506 q 197 605 177 575 l 90 711 l 160 779 l 265 674 q 331 706 295 694 q 406 717 366 717 q 479 707 444 717 q 544 676 514 696 l 649 782 l 717 713 l 613 608 q 644 542 633 577 q 656 467 656 506 q 645 394 656 428 q 615 329 634 359 l 720 224 l 651 154 z "},"€":{"ha":806,"x_min":11,"x_max":828,"o":"m 42 628 l 137 628 q 202 786 160 716 q 300 905 244 856 q 424 981 356 954 q 570 1007 493 1007 q 655 998 617 1007 q 726 972 694 989 q 783 930 758 955 q 828 875 808 906 l 776 825 q 764 814 771 819 q 747 810 758 810 q 724 823 735 810 q 693 851 713 835 q 643 880 674 867 q 561 892 613 892 q 465 875 510 892 q 382 824 419 858 q 317 741 345 790 q 271 628 288 692 l 652 628 l 648 587 q 635 564 646 574 q 606 553 624 553 l 255 553 q 249 506 251 530 q 245 457 247 482 l 567 457 l 562 417 q 549 393 560 403 q 520 382 538 382 l 245 382 q 306 175 251 247 q 457 104 361 104 q 523 111 494 104 q 573 129 551 119 q 611 152 595 140 q 640 176 627 165 q 661 193 652 186 q 680 201 671 201 q 691 199 687 201 q 699 192 694 197 l 749 140 q 613 29 691 68 q 437 -10 535 -10 q 298 18 358 -10 q 197 98 238 46 q 133 222 156 149 q 109 382 111 294 l 11 382 l 20 457 l 110 457 q 115 506 112 482 q 121 553 117 529 l 33 553 l 42 628 z "},"$":{"ha":806,"x_min":26,"x_max":767,"o":"m 458 894 q 373 875 409 890 q 314 837 338 860 q 280 786 291 815 q 268 727 268 758 q 278 678 268 699 q 306 641 288 658 q 347 613 324 625 q 399 590 371 600 l 458 894 m 386 101 q 474 123 435 106 q 539 166 513 140 q 578 226 565 192 q 592 301 592 260 q 581 351 592 330 q 551 388 570 372 q 506 415 532 403 q 451 438 481 427 l 386 101 m 561 1003 q 683 964 633 993 q 767 896 733 935 l 731 847 q 694 826 714 826 q 672 834 685 826 q 640 854 658 842 q 597 876 622 865 q 540 892 572 887 l 476 563 q 564 532 520 549 q 642 489 608 515 q 699 426 677 463 q 720 333 720 388 q 695 206 720 266 q 625 100 671 146 q 513 24 579 53 q 365 -10 447 -6 l 342 -129 q 329 -153 340 -142 q 301 -163 317 -163 l 253 -163 l 283 -8 q 135 34 201 0 q 26 119 70 67 l 73 179 q 89 193 80 188 q 110 198 99 198 q 138 185 123 198 q 175 156 153 172 q 228 124 197 140 q 304 102 259 108 l 374 462 q 290 492 331 475 q 215 536 248 509 q 163 601 183 563 q 142 698 142 640 q 166 811 142 756 q 233 908 189 865 q 339 977 276 950 q 480 1006 401 1003 l 499 1103 q 512 1128 501 1117 q 539 1139 523 1139 l 588 1139 l 561 1003 z "},"¢":{"ha":806,"x_min":82,"x_max":731,"o":"m 455 614 q 349 585 395 609 q 273 522 303 562 q 227 428 242 483 q 211 307 211 374 q 249 166 211 220 q 354 97 286 113 l 455 614 m 556 710 q 655 680 613 702 q 731 624 698 658 l 692 577 q 679 566 685 569 q 663 562 672 562 q 644 568 654 562 q 619 582 633 574 q 584 598 604 590 q 537 610 565 606 l 436 91 q 509 105 479 94 q 561 127 540 115 q 596 147 582 138 q 622 156 610 156 q 646 145 639 156 l 676 99 q 622 55 651 74 q 560 23 593 36 q 490 1 526 9 q 417 -8 454 -6 l 394 -126 q 380 -151 390 -140 q 353 -162 369 -162 l 304 -162 l 334 -7 q 231 24 278 0 q 152 88 185 49 q 100 181 119 127 q 82 301 82 235 q 109 463 82 388 q 186 593 135 538 q 310 680 237 648 q 474 715 383 713 l 498 836 q 512 861 501 850 q 539 872 523 872 l 588 872 l 556 710 z "},"£":{"ha":806,"x_min":-3,"x_max":796,"o":"m 611 459 q 598 435 610 446 q 569 425 586 425 l 282 425 l 262 256 q 238 169 256 206 q 188 103 219 133 q 276 113 233 113 l 737 113 l 731 58 q 724 38 729 48 q 710 19 719 27 q 690 5 701 10 q 667 0 679 0 l -3 0 l 8 85 q 52 102 32 92 q 86 128 72 113 q 110 167 101 144 q 123 221 119 190 l 148 425 l 35 425 l 42 478 q 55 502 44 492 q 84 513 67 513 l 158 513 l 181 692 q 217 815 189 758 q 290 916 244 873 q 398 983 335 958 q 536 1008 460 1008 q 638 994 594 1008 q 711 958 681 981 q 763 902 742 934 q 796 833 783 871 l 739 799 q 703 791 719 790 q 674 810 686 793 q 650 844 662 828 q 621 872 638 860 q 581 890 604 883 q 523 896 557 896 q 444 882 480 896 q 382 841 409 867 q 338 777 355 815 q 315 693 320 740 l 292 513 l 617 513 l 611 459 l 611 459 z "},"¥":{"ha":806,"x_min":74,"x_max":843,"o":"m 491 435 l 701 435 l 692 360 l 458 360 l 449 288 l 683 288 l 674 213 l 440 213 l 413 0 l 283 0 l 308 213 l 74 213 l 84 288 l 317 288 l 326 360 l 92 360 l 101 435 l 311 435 l 98 997 l 208 997 q 236 988 226 997 q 251 963 247 978 l 390 579 q 402 533 398 554 q 409 491 407 512 q 426 533 417 512 q 448 579 435 555 l 681 963 q 701 986 688 976 q 733 997 715 997 l 843 997 l 491 435 z "},"℅":{"ha":1081,"x_min":61,"x_max":1030,"o":"m 856 975 q 875 990 864 983 q 902 997 885 997 l 997 997 l 201 21 q 183 6 194 11 q 158 0 172 0 l 61 0 l 856 975 m 407 622 q 420 616 415 622 l 455 572 q 377 513 422 533 q 274 492 332 492 q 190 509 227 492 q 127 555 153 526 q 89 625 102 585 q 76 713 76 666 q 96 833 76 778 q 152 928 117 888 q 237 989 188 967 q 343 1011 286 1011 q 434 993 395 1011 q 495 944 472 974 l 455 897 q 447 888 451 892 q 433 885 442 885 q 418 891 425 885 q 401 904 411 897 q 374 917 390 911 q 332 924 358 924 q 272 910 299 924 q 223 870 244 896 q 191 806 203 844 q 179 722 179 769 q 188 662 179 689 q 211 617 196 635 q 246 588 226 598 q 291 578 267 578 q 345 587 323 578 q 390 615 367 595 q 398 620 394 618 q 407 622 403 622 m 1030 283 q 1009 167 1030 220 q 951 74 988 113 q 863 12 914 35 q 753 -10 813 -10 q 665 7 704 -10 q 599 54 626 24 q 557 125 572 84 q 542 215 542 167 q 563 331 542 277 q 621 424 584 385 q 708 486 658 463 q 817 508 758 508 q 906 491 867 508 q 973 443 945 474 q 1015 372 1001 413 q 1030 283 1030 331 m 926 279 q 895 383 926 344 q 807 421 865 421 q 740 407 770 421 q 689 366 710 392 q 656 302 667 340 q 644 218 644 265 q 676 115 644 153 q 765 76 707 76 q 831 91 801 76 q 882 131 861 105 q 914 195 903 158 q 926 279 926 233 z "},"№":{"ha":1497,"x_min":81,"x_max":1476,"o":"m 1278 921 q 1224 909 1249 921 q 1183 876 1200 898 q 1157 824 1166 855 q 1147 756 1147 794 q 1173 672 1147 703 q 1244 641 1198 641 q 1298 652 1274 641 q 1339 685 1322 664 q 1365 737 1356 706 q 1374 806 1374 767 q 1349 890 1374 859 q 1278 921 1324 921 m 1233 551 q 1155 567 1190 551 q 1097 609 1121 582 q 1059 672 1072 635 q 1047 750 1047 708 q 1065 852 1047 805 q 1116 934 1083 899 q 1192 989 1148 969 q 1290 1008 1237 1008 q 1368 993 1333 1008 q 1426 951 1402 978 q 1464 888 1451 924 q 1476 809 1476 851 q 1458 707 1476 754 q 1407 626 1440 660 q 1330 571 1375 591 q 1233 551 1285 551 m 834 997 l 959 997 l 837 0 l 764 0 q 737 6 747 0 q 717 26 726 12 l 296 760 q 294 726 295 742 q 291 694 292 709 l 206 0 l 81 0 l 203 997 l 276 997 q 304 993 295 997 q 322 972 313 988 l 744 237 q 746 274 745 256 q 749 308 747 292 l 834 997 m 1012 465 l 1432 465 l 1420 372 l 1001 372 l 1012 465 z "},"#":{"ha":806,"x_min":22,"x_max":808,"o":"m 527 609 l 360 609 l 290 388 l 457 388 l 527 609 m 808 705 l 790 650 q 770 619 785 629 q 727 609 756 609 l 635 609 l 565 388 l 684 388 q 713 376 705 388 q 713 333 721 364 l 701 292 l 538 292 l 445 0 l 385 0 q 357 16 367 0 q 354 56 347 33 l 430 292 l 263 292 l 186 50 q 160 11 178 23 q 120 0 141 0 l 62 0 l 155 292 l 58 292 q 30 304 38 292 q 29 347 22 317 l 41 388 l 181 388 l 251 609 l 93 609 l 109 664 q 130 695 115 685 q 173 705 144 705 l 278 705 l 356 950 q 381 984 364 972 q 419 997 398 997 l 479 997 l 385 705 l 552 705 l 646 997 l 705 997 q 736 983 725 997 q 740 949 747 969 l 661 705 l 808 705 z "},"₀":{"ha":464,"x_min":-3,"x_max":386,"o":"m 386 146 q 368 9 386 67 q 318 -87 349 -49 q 245 -144 287 -125 q 159 -162 204 -162 q 94 -150 124 -162 q 43 -111 65 -137 q 9 -45 22 -85 q -3 46 -3 -6 q 15 183 -3 125 q 64 280 33 242 q 136 338 95 319 q 223 356 177 356 q 288 343 258 356 q 340 304 318 330 q 374 238 362 278 q 386 146 386 199 m 291 157 q 285 215 291 192 q 269 252 279 238 q 244 273 258 267 q 213 278 230 278 q 169 268 190 278 q 130 232 147 258 q 102 159 113 206 q 92 38 92 112 q 98 -20 92 3 q 114 -58 103 -44 q 138 -78 124 -72 q 168 -85 152 -85 q 216 -73 193 -85 q 255 -34 238 -62 q 281 40 272 -7 q 291 157 291 86 z "},"₁":{"ha":464,"x_min":41,"x_max":326,"o":"m 326 -87 l 318 -157 l 41 -157 l 50 -87 l 151 -87 l 186 201 l 193 233 l 115 174 q 90 168 101 165 q 73 178 78 172 l 49 219 l 220 352 l 300 352 l 246 -87 l 326 -87 z "},"₂":{"ha":464,"x_min":-20,"x_max":372,"o":"m 317 -70 q 344 -100 349 -70 l 338 -157 l -20 -157 l -16 -126 q -10 -106 -15 -116 q 4 -87 -6 -95 l 176 64 q 215 101 197 83 q 246 140 233 120 q 268 178 260 159 q 276 218 276 198 q 258 263 276 247 q 214 278 241 278 q 162 263 183 278 q 128 219 141 247 q 110 201 119 206 q 81 199 100 196 l 30 208 q 103 319 50 283 q 228 356 156 356 q 289 347 263 356 q 334 320 316 338 q 363 280 353 303 q 372 228 372 256 q 361 170 372 197 q 333 120 351 144 q 292 75 315 97 q 244 31 269 53 l 122 -80 q 188 -70 158 -70 l 317 -70 z "},"₃":{"ha":464,"x_min":-8,"x_max":371,"o":"m 35 208 q 64 273 45 245 q 108 319 83 301 q 164 347 133 338 q 228 356 194 356 q 288 347 262 356 q 333 322 315 338 q 361 284 351 306 q 371 238 371 263 q 278 110 371 142 q 353 13 353 85 q 336 -63 353 -30 q 291 -118 319 -96 q 228 -151 263 -140 q 158 -162 194 -162 q 91 -154 119 -162 q 43 -129 63 -146 q 11 -87 23 -112 q -8 -28 -1 -62 l 35 -10 q 66 -7 52 -3 q 84 -22 80 -10 q 90 -40 86 -29 q 103 -59 94 -50 q 126 -76 112 -69 q 163 -83 140 -83 q 202 -75 185 -83 q 232 -56 219 -68 q 250 -28 244 -44 q 257 5 257 -12 q 233 53 257 37 q 151 69 209 69 l 160 136 q 249 157 222 138 q 277 219 277 177 q 260 262 277 247 q 214 277 243 277 q 161 261 181 277 q 128 219 140 246 q 110 200 119 205 q 83 199 101 196 l 35 208 z "},"₄":{"ha":464,"x_min":-24,"x_max":379,"o":"m 226 38 l 244 190 q 249 220 247 203 q 257 254 252 236 l 73 38 l 226 38 m 379 38 l 374 -17 q 366 -31 372 -25 q 351 -37 361 -37 l 297 -37 l 282 -157 l 201 -157 l 216 -37 l 6 -37 q -14 -31 -7 -37 q -21 -15 -20 -25 l -24 31 l 253 351 l 344 351 l 306 38 l 379 38 z "},"₅":{"ha":464,"x_min":-10,"x_max":369,"o":"m 369 351 l 364 311 q 347 278 361 291 q 304 265 333 265 l 170 265 l 140 163 q 231 168 192 174 q 295 145 269 163 q 335 100 322 127 q 348 39 348 72 q 331 -43 348 -6 q 285 -106 315 -80 q 217 -148 256 -133 q 134 -162 178 -162 q 50 -144 86 -162 q -10 -101 13 -126 l 24 -61 q 49 -47 34 -47 q 67 -53 58 -47 q 86 -66 76 -59 q 112 -78 97 -72 q 149 -84 126 -84 q 189 -77 170 -84 q 222 -56 208 -69 q 243 -23 235 -42 q 251 22 251 -3 q 213 85 251 68 q 97 79 175 102 l 42 95 l 116 351 l 369 351 z "},"₆":{"ha":464,"x_min":3,"x_max":365,"o":"m 172 -90 q 212 -82 194 -90 q 244 -61 231 -74 q 266 -29 258 -47 q 274 12 274 -10 q 254 67 274 47 q 199 88 235 88 q 156 80 175 88 q 124 59 138 72 q 104 27 111 45 q 97 -12 97 9 q 116 -68 97 -46 q 172 -90 136 -90 m 205 189 q 172 157 189 172 q 139 126 155 142 q 184 149 159 140 q 235 158 209 158 q 284 151 260 158 q 325 127 307 143 q 354 87 343 111 q 365 30 365 63 q 349 -45 365 -10 q 307 -106 334 -80 q 242 -147 279 -132 q 161 -162 205 -162 q 94 -151 124 -162 q 45 -119 65 -140 q 14 -70 24 -99 q 3 -8 3 -42 q 23 82 3 40 q 83 169 43 123 l 223 329 q 244 344 231 338 q 274 351 258 351 l 357 351 l 205 189 z "},"₇":{"ha":464,"x_min":22,"x_max":401,"o":"m 401 351 l 393 285 l 125 -157 l 22 -157 l 261 221 q 277 244 269 233 q 294 263 285 254 l 60 263 q 46 270 52 263 q 41 285 40 276 l 49 351 l 401 351 z "},"₈":{"ha":464,"x_min":-1,"x_max":368,"o":"m 169 -90 q 238 -64 213 -90 q 263 5 263 -39 q 257 34 263 22 q 240 54 251 47 q 217 65 230 62 q 189 69 203 69 q 154 64 171 69 q 125 49 138 60 q 104 20 112 38 q 96 -24 96 3 q 114 -71 96 -52 q 169 -90 133 -90 m 215 286 q 180 280 195 286 q 154 261 165 273 q 139 235 144 250 q 133 204 133 221 q 149 159 133 176 q 198 142 165 142 q 261 166 240 142 q 281 226 281 189 q 265 268 281 249 q 215 286 249 286 m 284 107 q 340 67 322 93 q 358 4 358 40 q 343 -65 358 -34 q 302 -117 328 -95 q 240 -151 276 -139 q 161 -162 203 -162 q 94 -153 124 -162 q 43 -126 65 -144 q 11 -85 22 -109 q -1 -31 -1 -60 q 25 56 -1 19 q 104 108 50 92 q 46 203 46 138 q 59 264 46 236 q 97 313 73 292 q 154 345 121 333 q 225 356 187 356 q 284 347 258 356 q 329 321 310 338 q 358 282 348 304 q 368 233 368 259 q 347 157 368 189 q 284 107 326 124 z "},"₉":{"ha":464,"x_min":26,"x_max":373,"o":"m 119 188 q 138 137 119 155 q 192 119 156 119 q 231 126 213 119 q 261 145 249 133 q 281 174 274 157 q 288 211 288 191 q 268 264 288 244 q 215 283 248 283 q 145 258 171 283 q 119 188 119 232 m 189 19 q 216 47 203 34 q 242 74 230 60 q 156 51 203 51 q 107 60 131 51 q 66 85 84 69 q 38 126 49 102 q 27 180 27 150 q 42 246 27 214 q 83 302 57 278 q 145 341 109 326 q 222 356 181 356 q 286 345 258 356 q 333 315 314 335 q 363 269 353 296 q 373 210 373 242 q 367 159 373 183 q 352 113 362 135 q 327 69 342 90 q 295 26 313 47 l 160 -135 q 140 -151 153 -144 q 110 -157 126 -157 l 26 -157 l 189 19 z "},"₊":{"ha":464,"x_min":15,"x_max":365,"o":"m 358 51 l 223 51 l 206 -92 l 131 -92 l 148 51 l 15 51 l 23 122 l 157 122 l 174 263 l 249 263 l 232 122 l 365 122 l 358 51 z "},"₋":{"ha":464,"x_min":28,"x_max":351,"o":"m 38 122 l 351 122 l 342 51 l 28 51 l 38 122 z "},"₌":{"ha":464,"x_min":22,"x_max":358,"o":"m 30 59 l 343 59 l 334 -10 l 22 -10 l 30 59 m 46 184 l 358 184 l 350 114 l 37 114 l 46 184 z "},"₍":{"ha":232,"x_min":-3,"x_max":191,"o":"m 79 26 q 81 -25 79 2 q 88 -79 83 -52 q 99 -132 92 -106 q 115 -180 106 -158 q 116 -203 121 -195 q 102 -217 110 -212 l 58 -243 q 31 -180 42 -212 q 12 -112 19 -147 q 1 -45 4 -78 q -3 19 -3 -12 q 5 124 -3 74 q 29 224 13 174 q 73 322 46 273 q 140 423 100 372 l 178 398 q 188 385 185 392 q 181 361 191 377 q 106 204 133 286 q 79 26 79 122 z "},"₎":{"ha":232,"x_min":-42,"x_max":152,"o":"m 71 149 q 68 200 71 174 q 61 254 66 227 q 50 307 57 281 q 34 356 43 333 q 33 379 28 372 q 47 392 38 387 l 92 417 q 138 287 123 356 q 152 156 152 219 q 145 52 152 102 q 122 -47 138 2 q 77 -146 105 -96 q 10 -249 50 -196 l -28 -222 q -39 -209 -36 -217 q -32 -187 -42 -201 q 43 -28 16 -111 q 71 149 71 54 z "},"⁄":{"ha":194,"x_min":-281,"x_max":494,"o":"m -155 40 q -189 8 -172 17 q -228 0 -206 0 l -281 0 l 363 951 q 397 984 378 972 q 440 997 415 997 l 494 997 l -155 40 z "},"⅔":{"ha":982,"x_min":69,"x_max":911,"o":"m 254 40 q 220 8 238 17 q 181 0 203 0 l 128 0 l 772 951 q 806 984 788 972 q 849 997 824 997 l 903 997 l 254 40 m 406 576 q 434 547 438 576 l 428 490 l 69 490 l 74 521 q 80 541 75 531 q 94 560 84 551 l 265 710 q 304 748 286 729 q 336 786 322 767 q 357 825 349 806 q 365 865 365 844 q 348 909 365 894 q 303 925 331 925 q 252 909 273 925 q 218 865 231 894 q 199 847 209 852 q 171 845 190 842 l 119 854 q 192 966 140 929 q 318 1003 245 1003 q 379 993 352 1003 q 424 967 406 984 q 452 926 442 950 q 462 874 462 903 q 451 817 462 843 q 423 767 440 790 q 382 722 405 743 q 334 677 359 700 l 212 567 q 277 576 247 576 l 406 576 m 575 365 q 604 430 585 402 q 648 476 623 458 q 704 504 674 494 q 769 513 735 513 q 828 504 802 513 q 873 478 855 494 q 901 441 892 463 q 911 394 911 419 q 818 267 911 299 q 893 170 893 242 q 876 94 893 127 q 831 39 859 61 q 769 6 803 17 q 698 -6 734 -6 q 631 3 659 -6 q 583 28 603 11 q 551 70 563 44 q 532 129 539 95 l 576 147 q 606 150 592 153 q 624 135 620 147 q 631 117 626 128 q 643 98 635 107 q 666 81 652 88 q 703 74 681 74 q 742 82 725 74 q 772 101 760 89 q 791 128 784 113 q 797 162 797 144 q 773 210 797 194 q 692 226 749 226 l 700 293 q 790 314 762 294 q 817 376 817 334 q 800 419 817 404 q 754 434 783 434 q 701 418 722 434 q 669 376 681 403 q 651 357 660 362 q 624 356 642 353 l 575 365 z "},"⅖":{"ha":963,"x_min":68,"x_max":901,"o":"m 253 40 q 219 8 236 17 q 180 0 201 0 l 126 0 l 770 951 q 805 984 786 972 q 847 997 823 997 l 901 997 l 253 40 m 405 576 q 433 547 437 576 l 426 490 l 68 490 l 72 521 q 78 541 74 531 q 92 560 83 551 l 264 710 q 303 748 285 729 q 334 786 321 767 q 356 825 348 806 q 364 865 364 844 q 347 909 364 894 q 302 925 329 925 q 250 909 272 925 q 217 865 229 894 q 198 847 208 852 q 169 845 188 842 l 118 854 q 191 966 138 929 q 317 1003 244 1003 q 377 993 351 1003 q 423 967 404 984 q 451 926 441 950 q 460 874 460 903 q 450 817 460 843 q 421 767 439 790 q 381 722 403 743 q 333 677 358 700 l 210 567 q 276 576 246 576 l 405 576 m 894 508 l 889 468 q 872 435 886 448 q 829 422 858 422 l 695 422 l 665 320 q 756 325 717 331 q 820 302 794 319 q 860 257 847 284 q 873 196 873 229 q 856 114 873 151 q 810 51 840 77 q 742 9 781 24 q 659 -6 703 -6 q 575 13 611 -6 q 515 56 538 31 l 549 96 q 574 110 559 110 q 592 104 583 110 q 611 91 601 98 q 637 79 622 85 q 674 73 651 73 q 714 80 695 73 q 747 101 733 88 q 768 134 760 115 q 776 179 776 154 q 738 242 776 225 q 622 236 700 259 l 567 252 l 641 508 l 894 508 z "},"+":{"ha":806,"x_min":69,"x_max":749,"o":"m 736 417 l 455 417 l 419 121 l 312 121 l 348 417 l 69 417 l 81 516 l 360 516 l 397 810 l 503 810 l 467 516 l 749 516 l 736 417 z "},"−":{"ha":806,"x_min":101,"x_max":713,"o":"m 113 516 l 713 516 l 701 417 l 101 417 l 113 516 z "},"×":{"ha":806,"x_min":63,"x_max":744,"o":"m 478 466 l 692 222 l 615 151 l 400 396 l 124 150 l 63 220 l 338 466 l 130 703 l 208 774 l 417 536 l 683 773 l 744 702 l 478 466 z "},"÷":{"ha":806,"x_min":67,"x_max":747,"o":"m 80 516 l 747 516 l 735 417 l 67 417 l 80 516 m 347 702 q 355 741 347 723 q 377 773 363 760 q 409 795 391 787 q 448 803 427 803 q 480 797 465 803 q 505 779 494 790 q 522 753 516 768 q 528 722 528 739 q 519 683 528 701 q 497 651 511 665 q 464 631 483 638 q 426 623 446 623 q 369 646 391 623 q 347 702 347 669 m 286 208 q 294 247 286 228 q 316 279 302 265 q 348 300 330 292 q 387 308 366 308 q 419 302 404 308 q 444 285 433 296 q 461 259 455 274 q 467 228 467 244 q 458 189 467 207 q 436 157 450 170 q 404 136 422 144 q 365 128 385 128 q 333 135 348 128 q 308 151 319 141 q 292 176 298 162 q 286 208 286 191 z "},"=":{"ha":806,"x_min":86,"x_max":726,"o":"m 99 400 l 698 400 l 686 301 l 86 301 l 99 400 m 128 635 l 726 635 l 715 535 l 115 535 l 128 635 z "},"≠":{"ha":806,"x_min":158,"x_max":655,"o":"m 560 800 l 655 800 l 253 128 l 158 128 l 560 800 z "},"≈":{"ha":806,"x_min":111,"x_max":701,"o":"m 567 601 q 607 605 587 601 q 643 617 626 610 q 674 632 660 624 q 694 648 687 640 l 701 565 q 631 515 672 531 q 547 499 590 499 q 475 511 510 499 q 408 536 441 522 q 343 561 375 550 q 281 573 311 573 q 239 568 259 573 q 202 556 219 563 q 172 540 185 549 q 152 523 159 531 l 140 603 q 212 656 169 639 q 301 673 254 673 q 372 661 337 673 q 439 636 406 650 q 504 612 472 623 q 567 601 536 601 m 538 363 q 577 368 558 363 q 615 380 597 373 q 645 395 632 387 q 665 410 658 403 l 672 328 q 602 278 643 294 q 517 263 560 263 q 446 274 481 263 q 378 299 412 285 q 314 324 345 313 q 251 335 282 335 q 210 331 230 335 q 172 319 190 326 q 142 303 155 312 q 123 286 129 294 l 111 366 q 183 419 140 402 q 272 437 225 437 q 343 425 308 437 q 411 400 378 414 q 475 375 444 386 q 538 363 507 363 z "},"<":{"ha":806,"x_min":114,"x_max":695,"o":"m 695 776 l 684 679 q 675 658 683 667 q 653 640 668 648 l 337 490 q 270 467 306 476 q 331 444 304 459 l 610 294 q 628 277 624 287 q 632 256 633 267 l 619 158 l 114 440 l 119 481 l 119 481 l 121 495 l 695 776 z "},">":{"ha":806,"x_min":120,"x_max":702,"o":"m 695 440 l 120 158 l 132 256 q 140 277 133 267 q 163 294 147 287 l 478 444 q 546 467 508 459 q 484 490 512 476 l 206 640 q 187 658 192 648 q 184 679 183 667 l 196 776 l 702 495 l 695 440 z "},"±":{"ha":806,"x_min":26,"x_max":758,"o":"m 38 155 l 706 155 l 694 56 l 26 56 l 38 155 m 758 581 l 746 481 l 465 481 l 434 228 l 327 228 l 358 481 l 79 481 l 90 581 l 370 581 l 402 840 l 509 840 l 477 581 l 758 581 z "},"≤":{"ha":806,"x_min":84,"x_max":718,"o":"m 718 820 l 707 727 q 698 705 706 715 q 670 686 690 694 l 362 551 q 289 531 328 539 q 357 509 328 522 l 631 373 q 654 354 649 365 q 658 332 660 344 l 647 238 l 139 502 l 140 516 l 142 528 l 144 544 l 146 558 l 718 820 m 97 158 l 637 158 l 624 56 l 84 56 l 97 158 z "},"≥":{"ha":806,"x_min":94,"x_max":697,"o":"m 107 158 l 647 158 l 635 56 l 94 56 l 107 158 m 694 544 l 695 544 l 690 502 l 117 238 l 128 332 q 138 354 130 344 q 166 373 146 365 l 473 509 q 547 531 505 522 q 478 551 508 539 l 204 686 q 181 705 186 694 q 177 727 176 715 l 188 820 l 697 558 l 694 544 z "},"¬":{"ha":806,"x_min":101,"x_max":713,"o":"m 701 417 l 700 417 l 676 217 l 565 217 l 589 417 l 101 417 l 113 516 l 713 516 l 701 417 z "},"℮":{"ha":1139,"x_min":79,"x_max":1092,"o":"m 910 613 q 889 736 910 679 q 826 833 867 792 q 726 898 785 874 q 596 921 668 921 q 466 897 525 921 q 365 830 408 873 q 299 729 322 788 q 275 602 275 671 l 275 590 l 910 590 l 910 613 m 275 412 q 299 287 275 347 q 370 181 324 227 q 482 107 416 135 q 632 79 549 79 q 820 120 738 79 q 965 246 902 160 l 1039 192 q 963 106 1006 144 q 867 42 920 68 q 748 1 813 15 q 603 -12 682 -12 q 385 26 482 -12 q 220 133 288 65 q 116 294 152 201 q 79 494 79 387 q 96 633 79 567 q 145 756 113 699 q 222 859 177 813 q 324 938 267 905 q 448 989 381 971 q 590 1007 515 1007 q 803 966 711 1007 q 959 857 896 926 q 1056 696 1022 788 q 1092 504 1089 605 l 275 504 l 275 412 z "},"ℓ":{"ha":723,"x_min":30,"x_max":720,"o":"m 533 905 q 452 874 492 905 q 376 788 411 842 q 315 659 342 733 q 275 501 288 585 q 409 564 348 529 q 513 640 469 599 q 581 724 557 680 q 605 814 605 767 q 585 881 605 858 q 533 905 566 905 m 30 431 q 87 443 59 437 q 142 458 115 450 q 170 600 151 531 q 217 730 189 669 q 281 842 244 791 q 359 931 317 894 q 450 989 401 968 q 551 1009 499 1009 q 626 994 594 1009 q 679 954 658 979 q 710 894 700 928 q 720 821 720 860 q 688 691 720 752 q 595 576 655 629 q 452 480 536 524 q 266 400 369 435 q 265 384 265 392 q 265 369 265 376 q 272 241 265 292 q 290 159 278 190 q 321 116 303 128 q 364 103 340 103 q 412 115 388 103 q 458 149 436 127 q 500 200 481 170 q 534 267 519 231 l 646 239 q 598 142 628 187 q 528 63 568 97 q 439 9 488 28 q 336 -10 390 -10 q 253 8 290 -10 q 190 69 216 27 q 150 180 164 111 q 136 347 136 248 l 136 361 q 92 350 114 356 q 47 340 69 345 l 30 431 z "},"∞":{"ha":945,"x_min":59,"x_max":882,"o":"m 768 410 q 767 466 772 442 q 749 506 761 490 q 719 530 737 522 q 681 538 702 538 q 640 527 660 538 q 601 500 620 517 q 565 459 583 483 q 528 410 547 436 q 553 361 540 384 q 580 321 565 338 q 611 293 594 303 q 650 283 628 283 q 691 291 671 283 q 726 315 710 299 q 753 354 742 331 q 768 410 764 378 m 259 283 q 300 293 281 283 q 339 321 320 303 q 376 361 358 338 q 412 410 394 384 q 388 459 400 436 q 361 500 376 483 q 329 527 347 517 q 290 538 312 538 q 250 530 269 538 q 215 506 231 522 q 188 466 199 490 q 172 410 176 442 q 174 354 168 378 q 191 315 179 331 q 221 291 203 299 q 259 283 238 283 m 700 649 q 776 631 741 649 q 835 583 811 614 q 871 508 860 551 q 876 410 882 464 q 847 313 869 357 q 793 238 825 269 q 722 190 761 207 q 641 172 683 172 q 578 183 606 172 q 529 214 551 194 q 490 258 507 233 q 458 310 472 283 q 413 258 436 283 q 363 214 390 233 q 306 183 336 194 q 240 172 275 172 q 164 190 199 172 q 105 238 129 207 q 70 313 81 269 q 65 410 59 357 q 94 508 72 464 q 148 583 116 551 q 218 631 179 614 q 299 649 258 649 q 361 638 334 649 q 411 607 389 626 q 451 563 433 588 q 483 510 468 538 q 527 563 503 538 q 577 607 551 588 q 634 638 604 626 q 700 649 665 649 z "},"∂":{"ha":749,"x_min":26,"x_max":731,"o":"m 288 97 q 363 115 326 97 q 434 170 401 133 q 496 265 467 208 q 547 401 525 322 q 536 458 544 431 q 513 507 528 485 q 473 541 497 528 q 413 554 449 554 q 322 534 363 554 q 250 477 281 513 q 201 390 220 440 q 174 281 181 340 q 194 145 164 193 q 288 97 225 97 m 272 928 q 326 963 300 948 q 380 987 353 977 q 438 1002 408 997 q 503 1008 468 1008 q 607 982 562 1008 q 681 907 652 956 q 720 788 710 858 q 719 628 731 717 q 664 369 702 487 q 568 168 626 252 q 432 37 510 83 q 258 -10 355 -10 q 157 10 202 -10 q 82 68 112 31 q 39 159 51 106 q 34 278 26 212 q 77 429 44 359 q 161 550 111 499 q 276 632 212 602 q 411 661 340 661 q 520 634 476 661 q 588 556 563 608 q 593 594 591 576 q 597 628 595 613 q 579 830 614 762 q 472 899 544 899 q 423 892 446 899 q 381 876 400 885 q 347 860 362 867 q 323 853 332 853 q 308 858 315 853 q 295 876 301 863 l 272 928 z "},"∫":{"ha":564,"x_min":-63,"x_max":633,"o":"m 265 862 q 297 984 274 933 q 354 1068 319 1035 q 434 1117 389 1101 q 533 1133 479 1133 q 584 1128 557 1133 q 633 1112 610 1124 l 624 1054 q 620 1041 623 1046 q 610 1033 617 1035 q 592 1030 603 1031 q 564 1028 581 1028 q 493 1019 523 1028 q 444 991 464 1010 q 411 941 424 972 q 394 866 399 910 l 304 30 q 273 -92 296 -41 q 215 -176 250 -143 q 135 -225 181 -210 q 37 -241 90 -241 q -14 -236 13 -241 q -63 -220 -41 -232 l -55 -162 q -50 -149 -53 -154 q -41 -141 -47 -144 q -23 -138 -34 -139 q 6 -137 -12 -137 q 76 -128 46 -137 q 126 -99 106 -119 q 158 -49 146 -80 q 175 26 169 -18 l 265 862 z "},"√":{"ha":866,"x_min":35,"x_max":951,"o":"m 951 1189 l 422 0 l 312 0 l 196 458 l 83 458 q 48 470 62 458 q 38 513 35 483 l 43 554 l 278 554 q 303 547 294 554 q 315 528 313 539 l 379 253 q 386 205 385 229 q 388 156 388 181 q 416 238 399 195 l 824 1161 q 841 1181 830 1173 q 867 1189 853 1189 l 951 1189 z "},"∏":{"ha":960,"x_min":92,"x_max":982,"o":"m 969 885 l 840 885 l 703 -237 l 568 -237 l 705 885 l 365 885 l 227 -237 l 92 -237 l 230 885 l 103 885 l 115 997 l 982 997 l 969 885 z "},"∑":{"ha":877,"x_min":-33,"x_max":888,"o":"m 874 881 l 311 881 l 602 400 l 597 360 l 188 -121 l 750 -121 l 735 -237 l -33 -237 l -28 -188 q -22 -167 -26 -178 q -8 -147 -17 -156 l 450 382 l 122 906 q 113 927 115 916 q 113 949 111 939 l 118 997 l 888 997 l 874 881 z "},"◊":{"ha":806,"x_min":95,"x_max":728,"o":"m 619 490 l 432 880 q 420 910 426 896 q 412 938 415 924 q 402 910 408 924 q 391 880 397 896 l 207 490 l 391 101 q 402 72 397 85 q 412 44 408 58 q 420 72 415 58 q 432 101 426 85 l 619 490 m 728 490 l 459 -78 l 365 -78 l 95 490 l 365 1058 l 459 1058 l 728 490 z "},"←":{"ha":1389,"x_min":73,"x_max":1308,"o":"m 73 447 l 472 846 l 518 797 q 530 767 533 782 q 513 738 527 752 l 328 554 q 265 498 293 519 q 344 506 303 503 q 429 508 385 508 l 1308 508 l 1308 385 l 429 385 q 344 388 385 385 q 265 395 303 390 q 295 370 279 383 q 328 339 310 356 l 515 153 q 531 125 528 140 q 519 94 534 110 l 473 46 l 73 447 z "},"→":{"ha":1389,"x_min":81,"x_max":1316,"o":"m 1316 446 l 917 47 l 871 96 q 859 126 856 111 q 876 155 862 141 l 1060 339 q 1123 395 1094 373 q 1044 388 1085 390 q 960 385 1003 385 l 81 385 l 81 508 l 960 508 q 1045 506 1003 508 q 1124 497 1086 503 q 1060 554 1095 520 l 874 740 q 858 768 860 753 q 869 799 855 783 l 916 847 l 1316 446 z "},"↑":{"ha":1042,"x_min":121,"x_max":920,"o":"m 920 680 l 872 633 q 842 621 857 618 q 813 638 827 624 l 628 822 q 572 885 593 858 q 580 806 577 848 q 583 721 583 765 l 583 -157 l 460 -157 l 460 721 q 463 807 460 765 q 470 886 465 849 q 445 856 459 872 q 414 822 431 840 l 228 637 q 199 620 214 623 q 169 632 184 617 l 121 679 l 522 1079 l 920 680 z "},"↓":{"ha":1042,"x_min":122,"x_max":921,"o":"m 921 162 l 520 -239 l 122 160 l 169 208 q 200 219 185 222 q 228 203 215 217 l 413 18 q 469 -44 447 -17 q 462 35 465 -7 q 459 120 459 76 l 459 997 l 582 997 l 582 120 q 579 34 582 76 q 572 -46 576 -8 q 597 -16 583 -31 q 628 18 610 0 l 814 204 q 843 221 828 218 q 873 209 858 224 l 921 162 z "},"↗":{"ha":1042,"x_min":31,"x_max":949,"o":"m 949 909 l 949 344 l 881 346 q 852 359 860 346 q 843 390 843 372 l 843 651 q 847 735 843 699 q 740 612 801 674 l 118 -8 l 31 78 l 653 699 q 716 758 684 731 q 777 809 747 785 q 738 805 759 806 q 692 803 717 803 l 428 803 q 396 812 408 803 q 383 842 383 820 l 382 909 l 949 909 z "},"↖":{"ha":1042,"x_min":93,"x_max":1010,"o":"m 1010 78 l 924 -8 l 302 612 q 194 735 240 674 q 199 651 199 699 l 199 390 q 190 359 199 372 q 160 346 181 346 l 93 344 l 93 909 l 660 909 l 658 842 q 646 812 658 820 q 614 803 633 803 l 350 803 q 304 805 325 803 q 265 809 283 806 q 326 758 294 785 q 389 699 358 731 l 1010 78 z "},"↘":{"ha":1042,"x_min":31,"x_max":949,"o":"m 949 565 l 949 1 l 382 0 l 383 68 q 396 98 383 89 q 428 106 408 106 l 692 106 q 738 104 717 106 q 777 101 759 103 q 716 151 747 124 q 653 210 684 178 l 31 831 l 118 918 l 740 297 q 847 174 801 235 q 843 258 843 210 l 843 519 q 852 551 843 538 q 881 564 860 563 l 949 565 z "},"↙":{"ha":1042,"x_min":93,"x_max":1010,"o":"m 93 0 l 93 565 l 160 563 q 190 550 181 563 q 199 518 199 538 l 199 258 q 197 213 199 233 q 194 174 196 192 q 244 235 217 203 q 302 297 271 266 l 924 917 l 1010 830 l 389 210 q 326 151 358 178 q 265 100 295 124 q 304 104 283 103 q 350 106 325 105 l 614 106 q 646 97 633 106 q 658 67 658 88 l 660 -1 l 93 0 z "},"↔":{"ha":1389,"x_min":73,"x_max":1316,"o":"m 1316 446 l 917 47 l 871 96 q 859 126 856 111 q 876 155 862 141 l 1060 339 q 1123 395 1094 373 q 1044 388 1085 390 q 960 385 1003 385 l 278 385 q 328 339 301 366 l 515 153 q 531 125 528 140 q 519 94 534 110 l 473 46 l 73 447 l 472 846 l 518 797 q 530 767 533 782 q 513 738 527 752 l 328 554 q 302 529 315 540 q 278 508 290 518 l 960 508 q 1045 506 1003 508 q 1124 497 1086 503 q 1060 554 1095 520 l 874 740 q 858 768 860 753 q 869 799 855 783 l 916 847 l 1316 446 z "},"↕":{"ha":1042,"x_min":121,"x_max":922,"o":"m 521 -239 l 122 160 l 170 208 q 200 219 185 222 q 229 203 215 217 l 414 18 q 439 -8 428 4 q 460 -31 450 -19 l 460 721 q 463 806 460 765 q 470 885 465 848 q 445 855 458 871 q 414 822 431 840 l 227 636 q 199 619 214 622 q 169 631 184 617 l 121 678 l 522 1079 l 920 680 l 872 633 q 842 621 857 618 q 813 638 827 624 l 628 822 q 572 885 594 856 q 580 806 577 847 q 583 721 583 765 l 583 -32 q 603 -8 592 -20 q 628 18 615 4 l 815 204 q 843 221 828 218 q 874 209 858 224 l 922 162 l 521 -239 z "},"Ơ":{"ha":1094,"x_min":65,"x_max":1147,"o":"m 481 109 q 630 141 563 109 q 745 233 697 174 q 819 377 793 292 q 846 565 846 461 q 827 699 846 639 q 773 801 808 758 q 688 866 738 843 q 574 889 638 889 q 427 857 494 889 q 313 765 360 824 q 238 620 265 705 q 211 432 211 536 q 230 299 211 358 q 283 197 248 239 q 368 132 318 155 q 481 109 418 109 m 1145 1096 q 1147 1075 1147 1088 q 1147 1054 1147 1063 q 1095 885 1147 953 q 944 794 1042 817 q 980 689 967 746 q 992 569 992 632 q 952 336 992 442 q 842 153 913 230 q 675 33 772 76 q 466 -10 579 -10 q 299 23 373 -10 q 173 114 225 56 q 93 252 121 172 q 65 428 65 333 q 83 588 65 512 q 135 728 101 664 q 216 845 168 793 q 322 933 263 897 q 448 989 380 969 q 592 1008 517 1008 q 774 968 694 1008 q 906 858 853 928 q 980 891 952 865 q 1008 950 1008 916 q 1006 969 1008 961 q 999 986 1003 978 q 992 1002 995 994 q 990 1023 990 1011 q 1073 1096 990 1096 l 1145 1096 z "},"Ư":{"ha":1101,"x_min":91,"x_max":1178,"o":"m 1176 1096 q 1177 1075 1177 1088 q 1178 1054 1178 1063 q 1159 945 1178 994 q 1103 861 1140 897 q 1014 806 1067 826 q 894 786 961 787 l 845 392 q 799 232 834 306 q 710 103 765 158 q 582 19 655 49 q 424 -12 510 -12 q 272 19 338 -12 q 166 103 207 49 q 108 232 124 158 q 101 392 91 306 l 175 997 l 317 997 l 243 392 q 245 280 235 331 q 279 192 254 228 q 344 134 304 155 q 439 113 385 113 q 538 134 493 113 q 617 191 583 154 q 673 280 651 228 q 703 392 695 331 l 776 997 l 919 997 l 902 854 q 957 862 932 855 q 1001 882 983 869 q 1029 913 1019 895 q 1039 950 1039 930 q 1036 969 1039 961 q 1030 986 1033 978 q 1023 1002 1026 994 q 1020 1023 1020 1011 q 1103 1096 1020 1096 l 1176 1096 z "},"ơ":{"ha":787,"x_min":38,"x_max":840,"o":"m 315 96 q 404 123 365 96 q 472 194 444 149 q 515 299 500 240 q 531 422 531 358 q 495 564 531 517 q 390 610 459 610 q 301 584 340 610 q 233 512 261 557 q 190 408 205 467 q 174 285 174 349 q 210 143 174 191 q 315 96 246 96 m 837 813 q 839 793 838 805 q 840 774 840 782 q 827 689 840 728 q 791 619 815 649 q 732 567 767 588 q 651 536 697 545 q 667 423 667 485 q 654 309 667 364 q 618 205 641 253 q 561 117 594 157 q 488 50 528 78 q 401 6 447 22 q 303 -10 354 -10 q 197 10 245 -10 q 113 67 148 30 q 58 159 78 105 q 38 284 38 214 q 51 399 38 344 q 87 503 64 455 q 144 590 110 551 q 217 658 177 630 q 304 701 258 686 q 401 717 351 717 q 534 685 476 717 q 626 592 592 653 q 691 626 667 601 q 715 681 715 650 q 711 698 715 690 q 705 712 708 705 q 698 728 701 719 q 694 748 694 736 q 713 796 694 779 q 771 813 731 813 l 837 813 z "},"ư":{"ha":846,"x_min":55,"x_max":903,"o":"m 901 813 q 903 793 903 805 q 903 774 903 782 q 888 679 903 722 q 842 603 872 635 q 767 552 812 571 q 663 530 722 533 l 599 0 l 532 0 q 483 49 483 0 l 491 164 q 368 34 436 78 q 227 -10 299 -10 q 148 8 183 -10 q 92 60 114 26 q 63 143 71 94 q 63 257 55 193 l 116 706 l 251 706 l 198 257 q 207 140 188 178 q 278 103 226 103 q 342 120 309 103 q 405 168 374 137 q 461 244 435 199 q 506 342 488 288 l 549 706 l 685 706 l 671 590 q 749 621 720 595 q 778 681 778 647 q 775 698 778 690 q 768 712 772 705 q 761 728 765 719 q 758 748 758 736 q 777 796 758 779 q 835 813 795 813 l 901 813 z "},"₫":{"ha":801,"x_min":3,"x_max":797,"o":"m 13 -87 l 654 -87 l 644 -172 l 3 -172 l 13 -87 m 531 535 q 470 582 505 569 q 400 595 435 595 q 305 566 347 595 q 233 490 263 537 q 187 383 203 442 q 171 263 171 324 q 199 140 171 182 q 279 99 227 99 q 344 119 311 99 q 408 176 377 140 q 465 261 438 212 q 510 369 491 311 l 531 535 m 787 792 l 696 792 l 598 0 l 527 0 q 491 14 501 0 q 482 47 482 27 l 494 181 q 437 102 467 138 q 372 42 406 67 q 302 4 338 17 q 228 -10 266 -10 q 87 56 138 -10 q 36 249 36 121 q 48 363 36 307 q 82 469 60 419 q 135 562 104 519 q 205 635 167 604 q 287 683 243 665 q 380 700 331 700 q 471 681 430 700 q 542 628 513 663 l 563 792 l 461 792 q 424 804 433 792 q 418 841 414 816 l 424 876 l 573 876 l 592 1025 l 724 1025 l 706 876 l 797 876 l 787 792 z "},"○":{"ha":921,"x_min":83,"x_max":844,"o":"m 83 451 q 113 599 83 530 q 195 720 143 669 q 316 802 247 772 q 464 832 385 832 q 612 802 542 832 q 733 720 681 772 q 815 599 785 669 q 844 451 844 530 q 815 303 844 373 q 733 182 785 234 q 612 101 681 131 q 464 71 542 71 q 316 101 385 71 q 195 182 247 131 q 113 303 143 234 q 83 451 83 373 m 203 451 q 224 350 203 397 q 280 268 244 303 q 362 212 315 233 q 464 192 410 192 q 566 212 518 192 q 649 268 613 233 q 705 350 684 303 q 725 451 725 397 q 705 553 725 506 q 649 636 684 601 q 566 691 613 671 q 464 712 518 712 q 362 691 410 712 q 280 636 315 671 q 224 553 244 601 q 203 451 203 506 z "},"◌":{"ha":921,"x_min":88,"x_max":842,"o":"m 422 785 q 435 816 422 803 q 465 828 447 828 q 494 816 482 828 q 507 785 507 803 q 494 756 507 768 q 465 743 482 743 q 435 756 447 743 q 422 785 422 768 m 549 760 q 561 790 549 778 q 592 803 574 803 q 622 790 609 803 q 634 760 634 778 q 622 730 634 742 q 592 718 609 718 q 561 730 574 718 q 549 760 549 742 m 658 689 q 670 719 658 707 q 700 731 683 731 q 730 719 718 731 q 742 689 742 707 q 730 659 742 672 q 700 647 718 647 q 670 659 683 647 q 658 689 658 672 m 728 581 q 741 611 728 599 q 771 624 753 624 q 801 611 788 624 q 813 581 813 599 q 801 551 813 563 q 771 538 788 538 q 741 551 753 538 q 728 581 728 563 m 758 451 q 770 482 758 469 q 800 494 782 494 q 830 482 817 494 q 842 451 842 469 q 830 422 842 434 q 800 409 817 409 q 770 422 782 409 q 758 451 758 434 m 293 760 q 305 790 293 778 q 335 803 317 803 q 365 790 353 803 q 378 760 378 778 q 365 730 378 742 q 335 718 353 718 q 305 730 317 718 q 293 760 293 742 m 185 689 q 197 719 185 707 q 227 731 210 731 q 257 719 244 731 q 269 689 269 707 q 257 659 269 672 q 227 647 244 647 q 197 659 210 647 q 185 689 185 672 m 113 581 q 126 611 113 599 q 156 624 138 624 q 186 611 174 624 q 198 581 198 599 q 186 551 198 563 q 156 538 174 538 q 126 551 138 538 q 113 581 113 563 m 88 451 q 100 482 88 469 q 131 494 113 494 q 160 482 148 494 q 173 451 173 469 q 160 422 173 434 q 131 409 148 409 q 100 422 113 409 q 88 451 88 434 m 728 324 q 741 355 728 342 q 771 367 753 367 q 801 355 788 367 q 813 324 813 342 q 801 294 813 307 q 771 282 788 282 q 741 294 753 282 q 728 324 728 307 m 113 324 q 126 355 113 342 q 156 367 138 367 q 186 355 174 367 q 198 324 198 342 q 186 294 198 307 q 156 282 174 282 q 126 294 138 282 q 113 324 113 307 m 658 216 q 670 246 658 233 q 700 258 683 258 q 730 246 718 258 q 742 216 742 233 q 730 186 742 198 q 700 174 718 174 q 670 186 683 174 q 658 216 658 198 m 185 216 q 197 246 185 233 q 227 258 210 258 q 257 246 244 258 q 269 216 269 233 q 257 186 269 198 q 227 174 244 174 q 197 186 210 174 q 185 216 185 198 m 549 146 q 561 176 549 163 q 592 188 574 188 q 622 176 609 188 q 634 146 634 163 q 622 115 634 128 q 592 103 609 103 q 561 115 574 103 q 549 146 549 128 m 293 146 q 305 176 293 163 q 335 188 317 188 q 365 176 353 188 q 378 146 378 163 q 365 115 378 128 q 335 103 353 103 q 305 115 317 103 q 293 146 293 128 m 422 117 q 435 147 422 134 q 465 159 447 159 q 494 147 482 159 q 507 117 507 134 q 494 86 507 99 q 465 74 482 74 q 435 86 447 74 q 422 117 422 99 z "},"͏":{"ha":0,"x_min":0,"x_max":0,"o":""},"᷂":{"ha":0,"x_min":-117,"x_max":65,"o":"m -117 -61 q -108 -52 -117 -57 q -86 -42 -99 -47 q -59 -34 -73 -37 q -37 -31 -46 -31 q -23 -33 -29 -31 q -11 -40 -17 -35 q 2 -49 -6 -44 q 22 -58 10 -53 q 52 -77 40 -65 q 65 -105 65 -88 q 50 -138 65 -126 q 16 -159 35 -151 q -17 -172 -2 -167 q -32 -181 -32 -176 q -23 -189 -32 -185 q -2 -198 -13 -192 q 19 -214 10 -204 q 28 -239 28 -223 q 17 -270 28 -260 q -9 -287 5 -281 q -35 -300 -24 -294 q -47 -316 -47 -306 q -41 -328 -47 -323 q -26 -337 -35 -334 q -25 -338 -26 -337 l -25 -339 q -26 -344 -25 -342 q -29 -347 -27 -347 q -66 -332 -52 -343 q -81 -303 -81 -320 q -70 -277 -81 -287 q -48 -262 -60 -268 q -25 -252 -35 -256 q -15 -244 -15 -249 q -26 -236 -15 -240 q -52 -227 -37 -233 q -77 -211 -66 -221 q -89 -185 -89 -201 q -75 -152 -89 -165 q -43 -132 -60 -140 q -11 -118 -26 -124 q 3 -106 3 -112 q -15 -96 3 -96 q -25 -98 -22 -96 q -33 -101 -29 -99 q -40 -104 -36 -103 q -51 -105 -44 -106 q -72 -100 -60 -104 q -94 -89 -84 -95 q -111 -75 -104 -83 q -117 -61 -117 -67 z "},"Ɓ":{"ha":1038,"x_min":69,"x_max":986,"o":"m 606 113 q 700 127 660 113 q 766 168 740 142 q 806 231 792 194 q 819 313 819 267 q 777 414 819 376 q 647 451 735 451 l 459 451 l 417 113 l 606 113 m 513 885 l 472 553 l 624 553 q 786 605 732 553 q 841 748 841 657 q 800 851 841 817 q 672 885 759 885 l 513 885 m 685 997 q 822 981 765 997 q 915 936 878 965 q 969 866 951 907 q 986 773 986 824 q 974 689 986 729 q 936 615 961 649 q 872 555 910 581 q 783 513 834 529 q 915 443 872 492 q 959 315 959 393 q 934 189 959 247 q 862 89 909 131 q 748 23 815 47 q 594 0 680 0 l 261 0 l 370 892 l 356 892 q 278 881 310 892 q 227 850 247 870 q 199 802 208 831 q 190 740 190 774 q 191 717 190 729 q 193 699 192 706 q 190 672 195 685 q 164 653 185 659 l 80 635 q 72 682 74 658 q 69 726 69 706 q 89 839 69 789 q 148 924 109 889 q 242 978 186 959 q 369 997 298 997 l 685 997 z "},"Ƅ":{"ha":886,"x_min":74,"x_max":840,"o":"m 475 113 q 580 136 538 113 q 650 193 623 158 q 688 270 676 228 q 699 351 699 313 q 690 415 699 384 q 659 469 680 445 q 605 507 638 492 q 525 521 572 521 l 333 521 l 288 157 l 283 113 l 475 113 m 532 635 q 669 613 611 635 q 765 552 726 590 q 821 464 803 515 q 840 358 840 414 q 815 218 840 283 q 742 105 790 153 q 624 28 694 56 q 464 0 553 0 l 126 0 l 206 651 l 74 748 l 287 997 l 391 997 l 347 635 l 532 635 z "},"Ɔ":{"ha":866,"x_min":-3,"x_max":818,"o":"m 83 210 q 95 207 90 210 q 106 199 101 204 q 147 160 126 176 q 192 132 167 143 q 248 116 217 122 q 317 111 278 111 q 453 142 388 111 q 566 231 517 172 q 643 373 615 289 q 672 565 672 458 q 654 697 672 638 q 601 798 635 756 q 518 862 567 840 q 410 884 470 884 q 313 871 353 884 q 245 841 273 858 q 199 812 217 825 q 168 799 181 799 q 151 803 157 799 q 141 815 144 808 l 102 881 q 245 974 165 940 q 424 1008 325 1008 q 588 976 515 1008 q 712 885 660 943 q 791 747 763 827 q 818 570 818 666 q 781 336 818 443 q 676 153 743 230 q 515 32 608 76 q 311 -11 422 -11 q 121 28 197 -11 q -3 140 44 68 l 61 201 q 83 210 71 210 z "},"Ƈ":{"ha":872,"x_min":65,"x_max":1126,"o":"m 799 140 q 647 28 733 68 q 448 -11 561 -11 q 286 21 358 -11 q 166 111 215 53 q 91 248 117 168 q 65 422 65 327 q 83 585 65 508 q 135 727 101 663 q 216 844 169 792 q 322 933 264 897 q 447 988 380 969 q 587 1008 514 1008 q 690 997 641 1009 q 781 961 739 984 q 795 1057 783 1010 q 833 1138 807 1103 q 899 1195 858 1174 q 1001 1216 940 1216 q 1068 1209 1040 1216 q 1126 1190 1097 1202 l 1099 1117 q 1078 1093 1091 1096 q 1052 1092 1065 1090 q 1027 1099 1040 1097 q 1001 1101 1014 1101 q 927 1063 953 1101 q 893 956 901 1026 l 884 875 l 835 816 q 822 803 829 808 q 803 799 815 799 q 776 812 790 799 q 739 842 762 826 q 678 871 715 858 q 583 885 642 885 q 436 853 504 885 q 318 763 368 822 q 239 621 268 704 q 210 434 210 538 q 230 299 210 359 q 284 198 249 240 q 367 134 319 156 q 472 112 415 112 q 551 119 517 112 q 611 138 585 126 q 656 161 638 149 q 689 185 675 174 q 712 203 702 196 q 730 210 722 210 q 741 208 737 210 q 749 202 746 206 l 799 140 z "},"Ɗ":{"ha":1179,"x_min":69,"x_max":1131,"o":"m 622 115 q 769 146 703 115 q 884 235 836 177 q 958 377 932 294 q 985 565 985 460 q 966 697 985 638 q 914 797 948 756 q 829 859 879 838 q 715 881 778 881 l 513 881 l 419 115 l 622 115 m 730 997 q 897 966 822 997 q 1023 878 971 935 q 1103 742 1075 821 q 1131 569 1131 663 q 1092 337 1131 442 q 983 158 1053 233 q 817 41 913 83 q 608 0 721 0 l 261 0 l 370 892 l 356 892 q 278 881 310 892 q 227 850 247 870 q 199 802 208 831 q 190 740 190 774 q 191 717 190 729 q 193 699 192 706 q 190 672 195 685 q 164 653 185 659 l 80 635 q 72 682 74 658 q 69 726 69 706 q 89 839 69 789 q 148 924 109 889 q 242 978 186 959 q 369 997 298 997 l 730 997 z "},"Ƌ":{"ha":805,"x_min":34,"x_max":760,"o":"m 508 113 l 551 458 l 383 458 q 224 408 275 458 q 174 258 174 358 q 183 200 174 226 q 213 154 192 173 q 265 124 233 135 q 342 113 297 113 l 508 113 m 760 997 l 638 0 l 328 0 q 202 19 257 0 q 110 72 147 38 q 53 153 72 106 q 34 260 34 201 q 55 385 34 328 q 120 483 76 442 q 233 548 165 524 q 397 571 302 571 l 565 571 l 603 885 l 141 885 l 154 997 l 760 997 z "},"Ǝ":{"ha":744,"x_min":4,"x_max":698,"o":"m 576 0 l 4 0 l 17 116 l 446 116 l 487 447 l 144 447 l 157 559 l 501 559 l 540 881 l 113 881 l 126 997 l 698 997 l 576 0 z "},"Ə":{"ha":937,"x_min":51,"x_max":888,"o":"m 191 406 q 194 284 183 339 q 233 191 205 230 q 305 131 261 152 q 405 110 349 110 q 520 131 468 110 q 613 190 572 151 q 682 283 653 228 q 725 406 710 338 l 191 406 m 122 856 q 208 927 163 898 q 303 975 254 956 q 403 1002 352 993 q 503 1010 453 1010 q 659 981 588 1010 q 780 894 729 951 q 860 755 831 838 q 888 568 888 673 q 852 339 888 444 q 751 155 817 233 q 594 34 686 78 q 392 -10 503 -10 q 252 15 315 -10 q 145 89 190 41 q 76 207 100 138 q 51 365 51 277 q 56 440 51 412 q 67 482 60 467 q 86 501 75 497 q 111 506 97 506 l 739 506 q 741 563 741 533 q 672 802 741 719 q 474 885 602 885 q 369 869 415 885 q 291 836 324 854 q 233 802 257 817 q 190 787 208 787 q 158 803 167 787 l 122 856 z "},"Ɛ":{"ha":769,"x_min":47,"x_max":772,"o":"m 699 142 q 622 73 664 101 q 535 25 581 44 q 441 -2 490 7 q 341 -10 392 -10 q 229 7 283 -10 q 135 59 176 25 q 70 142 94 92 q 47 256 47 192 q 62 350 47 306 q 106 431 78 394 q 173 497 134 468 q 260 543 213 525 q 196 575 222 556 q 153 617 169 594 q 130 666 137 640 q 122 719 122 692 q 148 829 122 777 q 223 921 174 881 q 340 984 271 960 q 494 1008 408 1008 q 660 978 593 1008 q 772 898 727 948 l 733 842 q 713 823 722 826 q 695 819 703 819 q 668 830 683 819 q 629 854 653 841 q 568 878 605 867 q 475 890 531 890 q 385 876 423 890 q 322 838 347 862 q 284 783 297 815 q 272 718 272 752 q 285 663 272 687 q 320 622 297 638 q 377 597 344 605 q 451 588 410 588 l 602 588 l 590 485 l 426 485 q 325 467 369 485 q 253 420 282 449 q 209 355 224 392 q 194 281 194 319 q 207 214 194 245 q 245 160 220 183 q 307 124 270 137 q 393 110 344 110 q 476 122 441 110 q 538 148 512 133 q 581 178 564 163 q 610 202 599 194 q 622 210 616 207 q 635 213 628 213 q 646 211 641 213 q 655 204 651 209 l 699 142 z "},"Ƒ":{"ha":737,"x_min":-168,"x_max":758,"o":"m 316 881 l 274 541 l 638 541 l 624 425 l 260 425 l 213 41 l 208 7 q 183 -98 201 -51 q 133 -180 164 -146 q 60 -234 103 -215 q -37 -253 17 -253 q -110 -246 -81 -253 q -168 -228 -139 -240 l -140 -153 q -120 -130 -133 -133 q -94 -130 -107 -126 q -43 -137 -71 -137 q 30 -100 4 -137 q 65 7 56 -62 l 72 65 l 187 997 l 758 997 l 744 881 l 316 881 z "},"Ɠ":{"ha":948,"x_min":65,"x_max":1161,"o":"m 919 881 l 871 817 q 843 798 859 801 q 811 805 828 794 q 776 829 794 815 q 731 855 757 842 q 670 875 706 867 q 587 884 635 884 q 434 852 503 884 q 316 761 365 820 q 239 620 266 703 q 211 434 211 537 q 231 296 211 357 q 287 192 251 235 q 375 127 324 149 q 490 104 427 104 q 608 118 558 104 q 706 158 659 133 l 733 374 l 601 374 q 580 382 588 374 q 574 402 573 390 l 585 483 l 876 483 l 828 97 q 750 49 790 69 q 666 16 710 29 q 573 -5 622 2 q 466 -11 523 -11 q 301 22 375 -11 q 175 113 228 54 q 94 251 122 171 q 65 428 65 332 q 105 663 65 556 q 216 846 144 769 q 386 966 287 923 q 606 1008 486 1008 q 720 997 669 1008 q 813 964 771 985 q 828 1058 815 1013 q 868 1139 842 1103 q 935 1195 894 1174 q 1036 1216 976 1216 q 1104 1209 1076 1216 q 1161 1190 1132 1202 l 1134 1117 q 1113 1093 1126 1096 q 1087 1092 1100 1090 q 1063 1099 1076 1097 q 1036 1101 1050 1101 q 963 1063 989 1101 q 928 956 937 1026 l 919 881 z "},"Ɣ":{"ha":879,"x_min":24,"x_max":964,"o":"m 545 109 q 526 131 535 117 l 421 329 q 406 302 414 315 q 387 278 397 290 l 278 125 q 257 109 269 116 l 545 109 m 519 409 l 745 0 l 24 0 l 355 417 l 51 997 l 189 997 q 210 992 203 997 q 224 975 217 987 l 458 509 l 793 975 q 809 991 801 985 q 827 997 817 997 l 964 997 l 519 409 z "},"Ɩ":{"ha":422,"x_min":79,"x_max":364,"o":"m 182 997 l 326 997 l 229 214 q 240 128 222 156 q 306 101 258 101 l 364 101 l 358 53 q 345 24 356 36 q 318 5 335 13 q 281 -5 302 -2 q 237 -8 260 -8 q 162 8 193 -8 q 111 52 131 24 q 86 120 92 81 q 85 206 79 159 l 182 997 z "},"Ƙ":{"ha":896,"x_min":64,"x_max":951,"o":"m 275 564 l 319 564 q 361 570 344 564 q 395 599 378 576 l 594 877 q 704 977 644 947 q 842 1006 765 1006 q 907 1000 881 1006 q 951 985 933 994 l 930 913 q 909 889 922 892 q 883 888 897 885 q 861 893 874 891 q 835 895 849 895 q 770 878 799 895 q 717 831 740 862 l 538 582 q 506 547 523 561 q 469 525 488 533 q 505 505 490 517 q 532 469 519 492 l 815 0 l 691 0 q 652 8 665 0 q 633 30 640 15 l 392 419 q 366 445 381 437 q 322 454 351 454 l 262 454 l 206 0 l 64 0 l 186 997 l 328 997 l 275 564 z "},"Ɯ":{"ha":1394,"x_min":80,"x_max":1349,"o":"m 1349 997 l 1226 2 l 1153 2 q 1112 39 1116 2 l 1122 207 q 998 42 1067 95 q 851 -10 929 -10 q 772 6 807 -10 q 712 52 738 23 q 669 123 686 82 q 644 211 653 163 q 584 115 618 156 q 512 46 551 74 q 432 4 474 18 q 349 -10 390 -10 q 140 94 201 -10 q 102 397 80 199 l 176 997 l 319 997 l 245 397 q 244 263 238 319 q 269 170 250 206 q 319 117 288 134 q 390 100 349 100 q 469 124 431 100 q 538 192 507 149 q 591 297 569 236 q 620 431 613 358 l 691 997 l 834 997 l 763 431 q 758 286 756 348 q 776 182 761 224 q 819 120 791 141 q 893 100 848 100 q 1026 182 964 100 q 1135 433 1089 265 l 1206 997 l 1349 997 z "},"Ɲ":{"ha":989,"x_min":-170,"x_max":943,"o":"m 943 997 l 821 0 l 748 0 q 721 6 731 0 q 701 26 710 12 l 281 760 q 278 726 279 742 q 275 694 277 709 l 192 19 l 192 19 l 188 -15 q 164 -120 181 -72 q 119 -202 147 -167 q 50 -255 90 -236 q -45 -274 9 -274 q -113 -268 -85 -274 q -170 -249 -141 -261 l -143 -176 q -122 -152 -135 -156 q -96 -152 -109 -149 q -45 -160 -73 -160 q 28 -122 2 -160 q 63 -15 54 -85 l 69 43 l 187 997 l 260 997 q 288 993 279 997 q 307 972 297 988 l 728 238 q 730 274 729 256 q 733 308 731 292 l 818 997 l 943 997 z "},"Ɵ":{"ha":1038,"x_min":65,"x_max":992,"o":"m 211 453 l 211 432 q 230 299 211 358 q 283 197 248 239 q 368 132 318 155 q 481 109 418 109 q 610 133 551 109 q 716 201 670 157 q 793 310 763 246 q 838 453 824 374 l 211 453 m 846 565 q 827 699 846 639 q 773 801 808 758 q 688 866 738 843 q 574 889 638 889 q 450 866 508 889 q 347 801 392 844 q 269 698 301 759 q 223 562 238 638 l 846 562 l 846 565 m 592 1008 q 758 975 684 1008 q 885 884 833 942 q 965 744 937 825 q 992 569 992 664 q 952 336 992 442 q 842 153 913 230 q 675 33 772 76 q 466 -10 579 -10 q 299 23 373 -10 q 173 114 225 56 q 93 252 121 172 q 65 428 65 333 q 83 588 65 512 q 135 728 101 664 q 216 845 168 793 q 322 933 263 897 q 448 989 380 969 q 592 1008 517 1008 z "}}}
